<svg width="114" height="1219" viewBox="0 0 114 1219" fill="none" xmlns="http://www.w3.org/2000/svg">
<path d="M103.822 65.433C91.9482 38.3483 72.4408 18.8812 45.3001 7.0316C16.463 -3.12516 -13.2222 -2.27876 -43.7555 9.5708C-65.8074 18.0348 -82.7704 30.7307 -94.6445 47.6587C-108.215 64.5866 -115 83.2073 -115 103.521C-115 118.756 -111.607 133.145 -104.822 146.687C-92.9482 173.772 -72.5926 192.392 -43.7555 202.549C-16.6148 214.399 12.2222 214.399 42.7555 202.549C66.5037 194.085 84.3148 181.389 96.1889 164.461C108.063 147.533 114 128.913 114 108.599C114 93.3641 110.607 78.9753 103.822 65.433Z" fill="#002E94"/>
<path d="M103.822 568.807C91.9482 541.723 72.4408 522.256 45.3001 510.406C16.463 500.249 -13.2222 501.096 -43.7555 512.945C-65.8074 521.409 -82.7704 534.105 -94.6445 551.033C-108.215 567.961 -115 586.582 -115 606.895C-115 622.13 -111.607 636.519 -104.822 650.062C-92.9482 677.146 -72.5926 695.767 -43.7555 705.924C-16.6148 717.773 12.2222 717.773 42.7555 705.924C66.5037 697.46 84.3148 684.764 96.1889 667.836C108.063 650.908 114 632.287 114 611.974C114 596.739 110.607 582.35 103.822 568.807Z" fill="#26256B"/>
<path d="M103.822 1072.18C91.9482 1045.1 72.4408 1025.63 45.3001 1013.78C16.463 1003.62 -13.2222 1004.47 -43.7555 1016.32C-65.8074 1024.78 -82.7704 1037.48 -94.6445 1054.41C-108.215 1071.34 -115 1089.96 -115 1110.27C-115 1125.51 -111.607 1139.89 -104.822 1153.44C-92.9482 1180.52 -72.5926 1199.14 -43.7555 1209.3C-16.6148 1221.15 12.2222 1221.15 42.7555 1209.3C66.5037 1200.83 84.3148 1188.14 96.1889 1171.21C108.063 1154.28 114 1135.66 114 1115.35C114 1100.11 110.607 1085.72 103.822 1072.18Z" fill="#CB294E"/>
</svg>
