<svg width="927" height="1064" viewBox="0 0 927 1064" fill="none" xmlns="http://www.w3.org/2000/svg">
<path d="M183.638 925.742C183.638 925.742 179.129 885.952 159.37 855.209C139.611 824.465 112.48 805.154 87.1512 803.191C61.8228 801.228 41.3744 824.412 68.5859 840.513C95.7973 856.615 143.828 872.822 165.974 932.691L183.638 925.742Z" fill="#002372"/>
<path opacity="0.1" d="M183.638 925.742C183.638 925.742 179.129 885.952 159.37 855.209C139.611 824.465 112.48 805.154 87.1512 803.191C61.8228 801.228 41.3744 824.412 68.5859 840.513C95.7973 856.615 143.828 872.822 165.974 932.691L183.638 925.742Z" fill="black"/>
<path d="M176.211 915.422C176.298 915.449 176.39 915.449 176.476 915.422C176.642 915.358 176.792 915.261 176.92 915.138C177.047 915.015 177.148 914.867 177.218 914.704C177.287 914.541 177.323 914.365 177.323 914.188C177.323 914.01 177.288 913.835 177.219 913.671C150.512 847.86 99.6426 820.353 76.436 815.021C76.2618 814.982 76.0816 814.978 75.9058 815.009C75.73 815.04 75.5621 815.105 75.4117 815.201C75.2613 815.298 75.1314 815.423 75.0296 815.569C74.9277 815.716 74.8559 815.881 74.8182 816.056C74.7456 816.403 74.8099 816.765 74.9976 817.067C75.1854 817.368 75.4821 817.585 75.826 817.674C98.5287 822.979 148.39 849.903 174.7 914.679C174.826 914.959 175.047 915.186 175.322 915.322C175.598 915.457 175.912 915.493 176.211 915.422Z" fill="white"/>
<path d="M40.9481 916.218C43.229 921.391 48.9046 924.176 54.209 926.192C59.5134 928.208 65.1625 930.569 68.0004 935.45C73.7026 945.344 64.3404 959.323 70.4669 968.819C71.8998 970.743 73.7081 972.355 75.7824 973.559C77.8567 974.763 80.1537 975.533 82.5344 975.822C86.4643 976.387 90.4218 976.742 94.3896 976.883C96.2799 976.864 98.1668 976.722 100.039 976.459C105.526 975.225 111.267 975.83 116.376 978.183C124.333 982.613 126.64 992.507 131.388 1000.15C134.343 1004.67 138.246 1008.49 142.825 1011.35C147.405 1014.22 152.552 1016.05 157.91 1016.73C161.437 1017.2 167.988 1017.84 171.568 1015.82C171.826 1015.69 172.074 1015.54 172.311 1015.37C172.815 1014.82 173.425 1014.1 173.69 1013.73C173.744 1013.65 173.789 1013.57 173.823 1013.49C175.228 1008.37 172.947 1003.04 172.868 997.759C172.841 997.442 172.841 997.122 172.868 996.804C173.08 990.65 173.266 984.549 173.398 978.395C173.681 967.131 173.796 955.839 173.743 944.522C173.743 937.174 174.539 929.163 171.436 922.24C168.014 914.653 159.448 914.468 156.239 907.014C154.939 904.043 154.249 900.86 153.003 897.862C151.058 893.459 147.942 889.675 143.995 886.92C140.048 884.165 135.422 882.546 130.619 882.238C115.713 881.469 102.32 893.565 87.4144 892.451C83.5758 891.936 79.7686 891.21 76.01 890.276C63.916 888.021 49.9655 891.469 43.1759 901.682C41.6465 903.739 40.6438 906.139 40.2555 908.673C39.8671 911.207 40.1049 913.797 40.9481 916.218Z" fill="#002372"/>
<path d="M175.044 989.907C175.205 989.867 175.357 989.795 175.49 989.696C175.623 989.596 175.734 989.471 175.818 989.328C175.902 989.184 175.957 989.026 175.979 988.861C176.001 988.696 175.989 988.529 175.945 988.369C155.364 910.992 73.8893 899.825 54.8201 901.337C54.6539 901.347 54.4914 901.39 54.3421 901.464C54.1929 901.537 54.0599 901.641 53.9511 901.767C53.8424 901.893 53.76 902.039 53.7088 902.198C53.6576 902.356 53.6387 902.523 53.6532 902.689C53.6803 903.023 53.8373 903.332 54.0904 903.55C54.3435 903.768 54.6723 903.879 55.0058 903.857C73.5711 902.53 153.349 913.459 173.505 989.111C173.614 989.414 173.833 989.664 174.118 989.811C174.404 989.959 174.734 989.993 175.044 989.907Z" fill="white"/>
<path d="M84.4456 950.729C84.7012 950.681 84.934 950.55 85.1087 950.358C92.6416 943.846 101.514 939.07 111.098 936.37C120.682 933.67 130.742 933.112 140.566 934.734C140.741 934.786 140.925 934.8 141.105 934.774C141.286 934.749 141.459 934.686 141.613 934.588C141.767 934.49 141.898 934.36 141.997 934.207C142.096 934.054 142.162 933.881 142.189 933.701C142.215 933.521 142.203 933.336 142.153 933.161C142.102 932.986 142.015 932.823 141.896 932.685C141.778 932.546 141.63 932.435 141.465 932.358C141.3 932.282 141.12 932.241 140.937 932.24C130.721 930.549 120.256 931.137 110.293 933.962C100.33 936.786 91.1146 941.778 83.3052 948.58C83.0718 948.822 82.9414 949.146 82.9414 949.482C82.9414 949.818 83.0718 950.142 83.3052 950.384C83.4514 950.532 83.6323 950.641 83.8315 950.702C84.0307 950.762 84.2418 950.771 84.4456 950.729Z" fill="white"/>
<path d="M172.763 1027.52C171.02 1026.33 169.58 1024.75 168.557 1022.91C167.535 1021.07 166.958 1019.01 166.875 1016.91V436.331C166.995 434.151 167.627 432.031 168.719 430.142C169.811 428.253 171.333 426.647 173.161 425.455L855.993 31.2775C857.859 30.2807 859.935 29.7394 862.051 29.6979C864.166 29.6564 866.262 30.1159 868.166 31.0388C869.909 32.2237 871.349 33.8009 872.372 35.6436C873.394 37.4864 873.971 39.5433 874.054 41.6492V622.119C873.939 624.3 873.312 626.423 872.225 628.317C871.137 630.211 869.62 631.822 867.795 633.021L184.936 1027.28C183.07 1028.28 180.994 1028.82 178.878 1028.86C176.763 1028.9 174.667 1028.44 172.763 1027.52Z" fill="#002372"/>
<path opacity="0.3" d="M873.999 40.5882C873.548 37.352 870.923 36.1583 867.767 37.9356L184.935 432.272C183.088 433.441 181.565 435.056 180.505 436.967L168.703 430.15C169.766 428.239 171.3 426.632 173.159 425.481L855.991 31.2775C857.857 30.2807 859.933 29.7394 862.049 29.6979C864.165 29.6564 866.26 30.1159 868.164 31.0388C869.757 32.1271 871.101 33.541 872.106 35.1871C873.112 36.8333 873.757 38.6742 873.999 40.5882Z" fill="white"/>
<path d="M183.74 1027.84C183.652 1027.85 183.562 1027.85 183.475 1027.84C183.283 1027.94 183.078 1028.02 182.865 1028.08L182.414 1028.21C182.134 1028.32 181.839 1028.39 181.538 1028.42C181.345 1028.45 181.148 1028.45 180.955 1028.42C180.642 1028.5 180.323 1028.56 180 1028.58C177.525 1028.91 175.007 1028.48 172.786 1027.33C171.032 1026.16 169.582 1024.59 168.558 1022.74C167.534 1020.9 166.965 1018.83 166.898 1016.72V510.633L178.727 517.45V1023.65C178.727 1026.49 180.133 1028.16 182.202 1028.16C182.49 1028.16 182.778 1028.12 183.05 1028.02C183.288 1028 183.521 1027.94 183.74 1027.84Z" fill="#37474F"/>
<path opacity="0.1" d="M180.507 436.966C179.371 438.832 178.74 440.962 178.677 443.146V517.579L166.848 510.761V436.488C166.822 436.233 166.822 435.975 166.848 435.719C166.848 435.215 166.848 434.685 167.087 434.154C167.432 432.799 167.959 431.496 168.651 430.281L180.507 436.966Z" fill="black"/>
<path d="M874.052 41.6211V75.1766L373.532 364.311C370.057 366.3 367.246 364.682 367.246 360.677V347.971C367.246 343.965 364.435 342.347 360.961 344.337L208.539 432.271C206.701 433.453 205.17 435.056 204.072 436.947C202.975 438.838 202.342 440.963 202.227 443.146V455.852C202.11 458.029 201.482 460.147 200.395 462.037C199.307 463.926 197.791 465.533 195.968 466.728L178.676 476.728V443.146C178.793 440.97 179.421 438.851 180.508 436.962C181.596 435.072 183.112 433.465 184.935 432.271L867.767 37.987C871.241 35.9711 874.052 37.6157 874.052 41.6211Z" fill="#002372"/>
<path d="M874.079 622.119C873.964 624.302 873.332 626.427 872.234 628.318C871.137 630.209 869.606 631.812 867.767 632.995L184.935 1027.28C181.487 1029.27 178.676 1027.65 178.676 1023.64V476.73L195.968 466.729C199.416 464.74 205.038 434.261 208.539 432.245L358.414 345.691C361.889 343.675 370.058 366.169 373.532 364.259L874.053 75.125V622.119H874.079Z" fill="#455A64"/>
<path d="M874.052 75.1758V116.159L178.676 517.578V476.727L191.592 469.247C195.04 467.231 196.207 464.181 197.851 458.345L202.227 443.145C203.606 437.84 205.038 434.259 208.539 432.27L358.414 345.715C361.889 343.699 364.594 343.487 367.246 347.864L372.551 357.625C374.513 361.021 375.495 362.931 378.942 361.021L874.052 75.1758Z" fill="#F0F0F0"/>
<path d="M844.589 62.6569C848.965 60.1369 852.546 62.1794 852.546 67.2459C852.394 69.9937 851.594 72.6664 850.211 75.0455C848.828 77.4245 846.902 79.4422 844.589 80.9334C840.24 83.586 836.633 81.4108 836.633 76.3709C836.793 73.6215 837.596 70.9482 838.978 68.5662C840.36 66.1842 842.282 64.1601 844.589 62.6569Z" fill="white"/>
<path d="M816.128 79.0283C820.505 76.3757 824.085 78.5508 824.085 83.5908C823.933 86.3421 823.133 89.0186 821.751 91.4019C820.368 93.7852 818.442 95.8078 816.128 97.3047C811.752 99.9573 808.172 97.7822 808.172 92.7157C808.323 89.968 809.123 87.2952 810.506 84.9162C811.889 82.5371 813.816 80.5194 816.128 79.0283Z" fill="white"/>
<path d="M787.699 95.497C792.075 92.8444 795.655 95.0196 795.655 100.06C795.504 102.807 794.704 105.48 793.321 107.859C791.938 110.238 790.011 112.256 787.699 113.747C783.323 116.267 779.742 114.224 779.742 109.184C779.894 106.437 780.694 103.764 782.077 101.385C783.46 99.0059 785.386 96.9882 787.699 95.497Z" fill="white"/>
<path opacity="0.5" d="M207.477 479.568L197.611 485.244L201.377 478.029C201.533 477.759 201.615 477.452 201.615 477.14C201.615 476.828 201.533 476.522 201.377 476.252C201.086 475.907 200.582 476.252 200.263 476.782L194.959 487.074C194.89 487.191 194.837 487.316 194.8 487.446C194.8 487.446 194.8 487.446 194.8 487.578C194.786 487.755 194.786 487.932 194.8 488.109C194.785 488.259 194.785 488.41 194.8 488.56C194.838 488.641 194.892 488.713 194.959 488.772L200.263 492.884C200.342 492.936 200.434 492.964 200.529 492.964C200.623 492.964 200.715 492.936 200.794 492.884C201.06 492.69 201.263 492.423 201.377 492.114C201.669 491.425 201.643 490.682 201.377 490.443L197.611 487.552L207.477 482.22C207.731 482.023 207.934 481.769 208.073 481.479C208.211 481.188 208.279 480.87 208.273 480.549C208.273 479.753 207.928 479.408 207.477 479.568Z" fill="#455A64"/>
<path opacity="0.5" d="M215.729 474.902L225.595 469.225L221.829 466.307C221.672 466.052 221.589 465.758 221.589 465.459C221.589 465.159 221.672 464.865 221.829 464.61C222.121 463.947 222.625 463.602 222.943 463.867L228.248 467.979C228.272 468.047 228.272 468.122 228.248 468.191C228.264 468.35 228.264 468.51 228.248 468.668C228.259 468.845 228.259 469.022 228.248 469.199C228.259 469.331 228.259 469.464 228.248 469.597L222.943 479.889C222.841 480.139 222.665 480.352 222.439 480.499C222.356 480.575 222.247 480.618 222.134 480.618C222.021 480.618 221.912 480.575 221.829 480.499C221.681 480.231 221.603 479.93 221.603 479.624C221.603 479.317 221.681 479.016 221.829 478.748L225.595 471.613L215.729 477.316C215.278 477.555 214.934 477.316 214.934 476.547C214.933 476.23 215.005 475.918 215.143 475.633C215.281 475.348 215.481 475.098 215.729 474.902Z" fill="#455A64"/>
<path opacity="0.5" d="M248.085 446.518C248.085 445.908 247.501 445.988 247.236 446.518L245.883 449.834C243.576 449.569 240.791 451.823 238.908 455.829C236.468 461.001 236.468 467.102 238.908 469.463C239.502 470.012 240.268 470.339 241.075 470.387C241.883 470.436 242.682 470.203 243.337 469.728C245.297 468.427 246.836 466.584 247.766 464.423C247.926 464.164 248.01 463.866 248.01 463.561C248.01 463.257 247.926 462.958 247.766 462.699C247.448 462.407 246.944 462.699 246.653 463.336C244.823 467.208 241.852 468.933 240.022 467.155C238.192 465.378 238.219 460.842 240.022 456.969C241.322 454.317 243.205 452.619 244.822 452.513L243.815 455.006C243.549 455.643 243.815 456.253 244.186 455.988L248.217 453.335C248.378 453.201 248.504 453.029 248.582 452.835C248.661 452.64 248.691 452.43 248.668 452.221L248.085 446.518Z" fill="#455A64"/>
<path opacity="0.5" d="M354.09 364.366L357.671 356.753C357.883 356.396 357.995 355.989 357.995 355.573C357.995 355.157 357.883 354.75 357.671 354.393C357.246 353.968 356.557 354.393 356.132 355.268L352.552 362.854L348.945 359.406C348.521 358.982 347.831 359.406 347.407 360.281C347.194 360.638 347.082 361.046 347.082 361.462C347.082 361.877 347.194 362.285 347.407 362.642L351.014 366.117L347.433 373.757C347.221 374.114 347.109 374.521 347.109 374.937C347.109 375.353 347.221 375.76 347.433 376.117C347.542 376.206 347.678 376.254 347.818 376.254C347.958 376.254 348.094 376.206 348.202 376.117C348.542 375.888 348.809 375.566 348.971 375.189L352.578 367.576L356.159 371.024C356.268 371.113 356.403 371.161 356.543 371.161C356.684 371.161 356.819 371.113 356.928 371.024C357.274 370.802 357.543 370.478 357.697 370.096C357.909 369.734 358.021 369.322 358.021 368.902C358.021 368.483 357.909 368.071 357.697 367.709L354.09 364.366Z" fill="#455A64"/>
<path d="M261.156 455.853V443.147C261.273 440.967 261.903 438.845 262.995 436.955C264.087 435.065 265.611 433.46 267.442 432.271L832.358 106.186C835.832 104.197 838.643 105.815 838.643 109.82V122.526C838.527 124.71 837.897 126.835 836.805 128.73C835.713 130.624 834.189 132.234 832.358 133.429L267.442 459.487C263.968 461.503 261.156 459.858 261.156 455.853Z" fill="white"/>
<g opacity="0.5">
<path d="M846.045 104.652C845.567 104.652 845.101 104.494 844.722 104.202C844.342 103.911 844.069 103.502 843.945 103.04C843.821 102.577 843.853 102.087 844.037 101.645C844.22 101.202 844.543 100.833 844.958 100.593L862.648 90.3809C862.895 90.2321 863.17 90.1342 863.456 90.0928C863.742 90.0514 864.033 90.0673 864.312 90.1396C864.592 90.2119 864.854 90.3392 865.084 90.514C865.314 90.6888 865.507 90.9076 865.651 91.1577C865.796 91.4078 865.889 91.6842 865.925 91.9707C865.962 92.2571 865.941 92.548 865.864 92.8263C865.787 93.1047 865.655 93.3648 865.476 93.5917C865.297 93.8185 865.075 94.0075 864.823 94.1476L847.133 104.36C846.8 104.546 846.426 104.646 846.045 104.652Z" fill="#455A64"/>
<path d="M846.045 114.867C845.567 114.867 845.101 114.709 844.722 114.417C844.342 114.126 844.069 113.717 843.945 113.255C843.821 112.792 843.853 112.302 844.037 111.86C844.22 111.417 844.543 111.048 844.958 110.808L862.648 100.596C862.895 100.447 863.17 100.349 863.456 100.308C863.742 100.266 864.033 100.282 864.312 100.354C864.592 100.427 864.854 100.554 865.084 100.729C865.314 100.904 865.507 101.122 865.651 101.373C865.796 101.623 865.889 101.899 865.925 102.185C865.962 102.472 865.941 102.763 865.864 103.041C865.787 103.319 865.655 103.58 865.476 103.807C865.297 104.033 865.075 104.222 864.823 104.362L847.133 114.575C846.8 114.761 846.426 114.861 846.045 114.867Z" fill="#455A64"/>
<path d="M846.045 125.073C845.567 125.073 845.101 124.915 844.722 124.623C844.342 124.332 844.069 123.923 843.945 123.461C843.821 122.999 843.853 122.508 844.037 122.066C844.22 121.624 844.543 121.254 844.958 121.015L862.701 110.855C863.2 110.578 863.787 110.509 864.337 110.661C864.886 110.813 865.354 111.175 865.639 111.669C865.924 112.163 866.004 112.75 865.861 113.302C865.719 113.854 865.365 114.328 864.876 114.622L847.186 124.834C846.832 125.01 846.44 125.092 846.045 125.073Z" fill="#455A64"/>
</g>
<path d="M178.676 476.732V517.582L166.848 510.765V469.941L178.676 476.732Z" fill="#E0E0E0"/>
<path d="M215.249 523.31L836.126 164.81C840.82 162.157 844.613 164.306 844.613 169.717V295.185C844.459 298.135 843.61 301.006 842.135 303.565C840.66 306.123 838.601 308.297 836.126 309.907L215.249 668.434C210.554 671.086 206.762 668.938 206.762 663.526V538.058C206.92 535.106 207.77 532.233 209.245 529.67C210.719 527.108 212.776 524.929 215.249 523.31Z" fill="#FAFAFA"/>
<path d="M240.116 551.287C251.613 544.556 260.977 549.976 260.977 563.2C260.583 570.478 258.49 577.56 254.865 583.872C251.241 590.185 246.188 595.551 240.116 599.535C228.263 606.206 219.195 600.786 219.195 587.622C219.586 580.337 221.685 573.248 225.321 566.933C228.957 560.619 234.026 555.257 240.116 551.287Z" fill="#002372"/>
<path d="M270.523 630.077C270.376 630.077 270.234 630.019 270.13 629.914C270.025 629.81 269.966 629.668 269.966 629.52V500.604C269.948 500.522 269.949 500.438 269.968 500.357C269.987 500.275 270.023 500.199 270.076 500.134C270.128 500.069 270.194 500.017 270.269 499.981C270.344 499.945 270.427 499.926 270.51 499.926C270.593 499.926 270.676 499.945 270.751 499.981C270.826 500.017 270.892 500.069 270.945 500.134C270.997 500.199 271.034 500.275 271.053 500.357C271.071 500.438 271.072 500.522 271.054 500.604V629.52C271.054 629.664 270.999 629.801 270.9 629.905C270.801 630.009 270.666 630.071 270.523 630.077Z" fill="#E0E0E0"/>
<path d="M299.827 491.45C304.972 488.453 309.163 490.866 309.163 496.755C308.987 499.996 308.05 503.15 306.428 505.961C304.806 508.772 302.544 511.162 299.827 512.936C294.523 515.907 290.465 513.493 290.465 507.631C290.64 504.387 291.579 501.23 293.206 498.418C294.833 495.606 297.102 493.218 299.827 491.45Z" fill="#002372"/>
<path d="M318.258 491.397C318.258 494.05 320.539 494.686 323.377 493.068L488.581 397.574C489.955 396.791 491.129 395.702 492.012 394.391C492.896 393.079 493.464 391.582 493.673 390.014C493.673 387.362 491.393 386.725 488.581 388.343L323.377 483.837C321.994 484.612 320.811 485.699 319.923 487.011C319.034 488.324 318.464 489.825 318.258 491.397Z" fill="#455A64"/>
<path d="M219.195 623.608C219.195 624.281 219.772 624.442 220.49 624.032L262.261 599.818C262.608 599.62 262.905 599.344 263.128 599.011C263.352 598.679 263.495 598.299 263.548 597.901C263.548 597.229 262.972 597.067 262.261 597.478L220.49 621.691C220.14 621.888 219.841 622.163 219.616 622.496C219.392 622.829 219.247 623.21 219.195 623.608Z" fill="#455A64"/>
<path d="M221.121 629.531C221.121 630.06 221.564 630.187 222.115 629.864L254.2 610.839C254.467 610.683 254.695 610.466 254.867 610.205C255.038 609.944 255.149 609.645 255.189 609.333C255.189 608.804 254.746 608.678 254.2 609L222.115 628.025C221.847 628.179 221.617 628.396 221.444 628.657C221.272 628.919 221.161 629.218 221.121 629.531Z" fill="#455A64"/>
<path d="M290.465 539.702C290.465 542.355 292.746 542.992 295.584 541.374L680.151 319.404C681.527 318.624 682.703 317.535 683.587 316.223C684.471 314.911 685.037 313.412 685.243 311.844C685.243 309.191 682.962 308.581 680.151 310.199L295.584 532.143C294.202 532.919 293.021 534.006 292.132 535.319C291.244 536.631 290.673 538.132 290.465 539.702Z" fill="#E0E0E0"/>
<path d="M408.066 471.984C408.066 474.636 410.347 475.273 413.185 473.655L797.752 251.685C799.128 250.905 800.305 249.816 801.188 248.505C802.072 247.193 802.639 245.693 802.844 244.125C802.844 241.472 800.564 240.862 797.752 242.48L413.185 464.424C411.804 465.2 410.622 466.288 409.734 467.6C408.846 468.912 408.275 470.413 408.066 471.984Z" fill="#E0E0E0"/>
<path d="M290.465 558.191C290.465 560.843 292.746 561.48 295.584 559.862L680.151 337.892C681.526 337.118 682.703 336.034 683.587 334.726C684.47 333.419 685.038 331.923 685.243 330.358C685.243 327.706 682.962 327.069 680.151 328.687L295.584 550.657C294.204 551.429 293.024 552.512 292.135 553.82C291.247 555.127 290.675 556.624 290.465 558.191Z" fill="#E0E0E0"/>
<path d="M413.074 487.624C413.074 490.277 415.355 490.913 418.193 489.295L802.76 267.325C804.136 266.551 805.312 265.468 806.196 264.16C807.08 262.852 807.647 261.357 807.852 259.792C807.852 257.139 805.571 256.502 802.76 258.121L418.193 480.091C416.814 480.863 415.633 481.946 414.745 483.253C413.856 484.561 413.284 486.057 413.074 487.624Z" fill="#E0E0E0"/>
<path d="M290.465 576.705C290.465 579.358 292.746 579.995 295.584 578.35L680.151 356.406C681.524 355.624 682.698 354.534 683.582 353.223C684.465 351.911 685.034 350.414 685.243 348.846C685.243 346.194 682.962 345.557 680.151 347.175L295.584 569.145C294.201 569.92 293.018 571.007 292.13 572.32C291.241 573.632 290.671 575.134 290.465 576.705Z" fill="#E0E0E0"/>
<path d="M312.742 590.024C312.742 592.676 315.023 593.286 317.834 591.668L338.574 579.732C339.952 578.95 341.13 577.862 342.018 576.55C342.906 575.239 343.479 573.741 343.693 572.172C343.693 569.519 341.386 568.882 338.574 570.527L317.834 582.464C316.458 583.243 315.282 584.332 314.398 585.644C313.514 586.956 312.948 588.455 312.742 590.024Z" fill="#E0E0E0"/>
<path d="M377.008 552.516C377.008 555.168 379.315 555.805 382.127 554.187L402.867 542.224C404.24 541.447 405.414 540.362 406.297 539.055C407.181 537.748 407.75 536.254 407.959 534.69C407.959 532.038 405.678 531.401 402.867 533.019L382.127 544.956C380.749 545.737 379.571 546.826 378.683 548.137C377.795 549.448 377.222 550.947 377.008 552.516Z" fill="#E0E0E0"/>
<path d="M290.465 606.894V597.133C290.496 596.54 290.669 595.963 290.969 595.451C291.269 594.938 291.687 594.505 292.189 594.188L304.813 586.92C305.741 586.39 306.511 586.92 306.511 587.928V597.663C306.478 598.253 306.308 598.826 306.013 599.338C305.718 599.849 305.307 600.284 304.813 600.608L292.189 607.876C291.234 608.3 290.465 607.849 290.465 606.894Z" fill="#EBEBEB"/>
<path d="M296.434 604.93L300.571 602.543L298.502 608.511L296.434 604.93Z" fill="#EBEBEB"/>
<path d="M360.351 556.757L362.022 558.269C356.426 566.704 358.389 570.63 363.295 572.54C361.678 570.736 362.155 565.404 365.205 561.134L366.876 562.619C367.194 562.911 368.016 562.433 368.202 561.823L371.04 552.91C371.04 552.486 370.907 552.274 370.456 552.406L361.147 555.457C360.511 555.669 360.033 556.491 360.351 556.757Z" fill="#EBEBEB"/>
<path d="M215.197 834.113L836.047 475.587C840.742 472.934 844.561 475.083 844.561 480.494V605.963C844.402 608.914 843.548 611.786 842.069 614.344C840.589 616.903 838.526 619.075 836.047 620.685L215.197 979.211C210.503 981.863 206.684 979.715 206.684 974.304V848.835C206.842 845.884 207.696 843.012 209.176 840.454C210.655 837.895 212.719 835.723 215.197 834.113Z" fill="#FAFAFA"/>
<path d="M238.827 856.025C250.324 849.294 259.688 854.715 259.688 867.938C259.294 875.216 257.201 882.298 253.576 888.61C249.952 894.923 244.899 900.289 238.827 904.273C226.974 910.944 217.906 905.524 217.906 892.36C218.297 885.075 220.396 877.986 224.032 871.672C227.668 865.357 232.737 859.996 238.827 856.025Z" fill="#002372"/>
<path d="M217.906 928.343C217.906 929.015 218.483 929.177 219.2 928.766L260.972 904.553C261.319 904.354 261.616 904.078 261.839 903.745C262.063 903.413 262.206 903.033 262.259 902.636C262.259 901.963 261.683 901.802 260.972 902.212L219.2 926.426C218.851 926.622 218.552 926.898 218.327 927.231C218.103 927.563 217.958 927.944 217.906 928.343Z" fill="#455A64"/>
<path d="M219.836 934.266C219.836 934.794 220.279 934.921 220.83 934.599L252.915 915.573C253.182 915.418 253.41 915.2 253.582 914.939C253.753 914.678 253.864 914.38 253.904 914.067C253.904 913.539 253.461 913.412 252.915 913.734L220.83 932.759C220.562 932.914 220.332 933.13 220.159 933.392C219.987 933.653 219.876 933.952 219.836 934.266Z" fill="#455A64"/>
<path d="M270.52 940.855C270.448 940.855 270.377 940.84 270.311 940.812C270.245 940.784 270.185 940.742 270.135 940.69C270.086 940.638 270.047 940.576 270.022 940.509C269.997 940.441 269.986 940.37 269.99 940.298V811.381C269.972 811.3 269.972 811.215 269.991 811.134C270.01 811.053 270.047 810.977 270.099 810.912C270.151 810.847 270.217 810.794 270.293 810.758C270.368 810.722 270.45 810.703 270.534 810.703C270.617 810.703 270.699 810.722 270.774 810.758C270.85 810.794 270.916 810.847 270.968 810.912C271.02 810.977 271.057 811.053 271.076 811.134C271.095 811.215 271.095 811.3 271.077 811.381V940.298C271.077 940.445 271.019 940.587 270.914 940.692C270.81 940.796 270.668 940.855 270.52 940.855Z" fill="#E0E0E0"/>
<path d="M299.695 802.231C304.999 799.234 309.057 801.648 309.057 807.536C308.882 810.781 307.943 813.938 306.316 816.75C304.689 819.562 302.42 821.949 299.695 823.717C294.55 826.715 290.359 824.274 290.359 818.412C290.536 815.171 291.473 812.017 293.095 809.206C294.716 806.395 296.978 804.005 299.695 802.231Z" fill="#002372"/>
<path d="M318.258 802.178C318.258 804.831 320.539 805.467 323.377 803.849L488.581 708.356C489.955 707.573 491.129 706.483 492.012 705.172C492.896 703.861 493.464 702.363 493.673 700.796C493.673 698.143 491.393 697.506 488.581 699.124L323.377 794.618C321.994 795.393 320.811 796.48 319.923 797.793C319.034 799.105 318.464 800.607 318.258 802.178Z" fill="#455A64"/>
<path d="M290.414 850.484C290.414 853.136 292.695 853.773 295.506 852.155L680.073 630.185C681.45 629.405 682.626 628.317 683.51 627.005C684.393 625.693 684.96 624.193 685.165 622.625C685.165 619.972 682.885 619.362 680.073 620.98L295.506 842.977C294.134 843.748 292.96 844.828 292.076 846.13C291.192 847.433 290.623 848.923 290.414 850.484Z" fill="#E0E0E0"/>
<path d="M422.461 774.285C422.461 776.937 424.742 777.574 427.553 775.956L812.12 553.986C813.496 553.206 814.673 552.117 815.556 550.805C816.44 549.493 817.007 547.994 817.212 546.426C817.212 543.773 814.932 543.163 812.12 544.781L427.553 766.778C426.181 767.549 425.007 768.628 424.123 769.931C423.239 771.234 422.67 772.724 422.461 774.285Z" fill="#E0E0E0"/>
<path d="M290.414 868.972C290.414 871.624 292.695 872.261 295.506 870.643L680.073 648.673C681.449 647.899 682.625 646.815 683.509 645.508C684.393 644.2 684.96 642.704 685.165 641.139C685.165 638.487 682.885 637.85 680.073 639.468L295.506 861.544C294.146 862.311 292.98 863.379 292.097 864.666C291.215 865.954 290.639 867.427 290.414 868.972Z" fill="#E0E0E0"/>
<path d="M427.469 789.925C427.469 792.577 429.75 793.214 432.561 791.596L817.128 569.626C818.504 568.852 819.68 567.768 820.564 566.461C821.448 565.153 822.015 563.658 822.22 562.092C822.22 559.44 819.939 558.803 817.128 560.421L432.561 782.498C431.201 783.264 430.035 784.332 429.152 785.62C428.269 786.907 427.693 788.38 427.469 789.925Z" fill="#E0E0E0"/>
<path d="M290.402 888.079C290.402 890.082 292.124 890.562 294.245 889.321L584.474 721.759C585.511 721.168 586.397 720.346 587.063 719.356C587.73 718.365 588.159 717.235 588.317 716.052C588.317 714.049 586.596 713.568 584.474 714.81L294.245 882.372C293.207 882.96 292.319 883.782 291.652 884.773C290.985 885.763 290.557 886.895 290.402 888.079Z" fill="#E0E0E0"/>
<path d="M312.688 900.801C312.688 903.454 314.968 904.09 317.78 902.446L338.52 890.509C339.896 889.729 341.072 888.641 341.956 887.329C342.84 886.017 343.407 884.517 343.612 882.949C343.612 880.296 341.331 879.66 338.52 881.304L317.78 893.241C316.403 894.021 315.227 895.109 314.343 896.421C313.46 897.733 312.893 899.233 312.688 900.801Z" fill="#E0E0E0"/>
<path d="M376.953 863.293C376.953 865.946 379.234 866.582 382.072 864.964L402.812 853.001C404.188 852.227 405.364 851.143 406.248 849.836C407.132 848.528 407.699 847.033 407.904 845.467C407.904 842.815 405.623 842.178 402.812 843.796L382.072 855.733C380.691 856.51 379.509 857.597 378.621 858.909C377.732 860.221 377.161 861.722 376.953 863.293Z" fill="#E0E0E0"/>
<path d="M290.414 917.566V907.805C290.446 907.215 290.617 906.641 290.912 906.13C291.207 905.619 291.618 905.183 292.111 904.86L304.762 897.592C305.691 897.061 306.46 897.592 306.46 898.6V908.362C306.425 908.947 306.254 909.516 305.959 910.023C305.664 910.53 305.254 910.96 304.762 911.279L292.111 918.548C291.183 919.078 290.414 918.654 290.414 917.566Z" fill="#EBEBEB"/>
<path d="M296.379 915.708L300.516 913.32L298.448 919.289L296.379 915.708Z" fill="#EBEBEB"/>
<path d="M360.297 867.534L361.968 869.046C356.372 877.481 358.334 881.407 363.241 883.317C361.623 881.513 362.1 876.182 365.15 871.911L366.821 873.396C367.139 873.688 367.962 873.211 368.147 872.601L370.959 863.688C370.959 863.263 370.826 863.051 370.402 863.184L361.066 866.234C360.456 866.446 359.979 867.242 360.297 867.534Z" fill="#EBEBEB"/>
<path d="M215.249 689.123L836.126 330.623C840.82 327.97 844.613 330.093 844.613 335.53V440.123C844.455 443.071 843.604 445.941 842.129 448.499C840.655 451.057 838.598 453.231 836.126 454.845L215.249 813.371C210.554 816.023 206.762 813.901 206.762 808.464V703.871C206.916 700.918 207.764 698.043 209.239 695.48C210.714 692.918 212.773 690.739 215.249 689.123Z" fill="#FAFAFA"/>
<path d="M240.116 699.158C251.613 692.427 260.977 697.848 260.977 711.071C260.583 718.349 258.49 725.431 254.865 731.743C251.241 738.056 246.188 743.422 240.116 747.406C228.263 754.077 219.195 748.657 219.195 735.493C219.586 728.208 221.685 721.119 225.321 714.804C228.957 708.49 234.026 703.129 240.116 699.158Z" fill="#002372"/>
<path d="M219.195 771.475C219.195 772.148 219.772 772.309 220.49 771.899L262.261 747.685C262.608 747.487 262.905 747.211 263.128 746.878C263.352 746.546 263.495 746.166 263.548 745.769C263.548 745.096 262.972 744.935 262.261 745.345L220.49 769.559C220.14 769.755 219.841 770.031 219.616 770.363C219.392 770.696 219.247 771.077 219.195 771.475Z" fill="#455A64"/>
<path d="M221.121 777.402C221.121 777.931 221.564 778.058 222.115 777.735L254.2 758.71C254.467 758.554 254.695 758.337 254.867 758.076C255.038 757.815 255.149 757.516 255.189 757.204C255.189 756.676 254.746 756.549 254.2 756.871L222.115 775.896C221.847 776.051 221.617 776.267 221.444 776.529C221.272 776.79 221.161 777.089 221.121 777.402Z" fill="#455A64"/>
<path d="M270.522 775.015C270.45 775.019 270.378 775.007 270.311 774.982C270.243 774.957 270.182 774.919 270.129 774.869C270.077 774.82 270.036 774.76 270.008 774.694C269.979 774.628 269.965 774.556 269.965 774.484V666.444C269.965 666.296 270.024 666.154 270.128 666.05C270.232 665.945 270.374 665.887 270.522 665.887C270.594 665.887 270.665 665.901 270.731 665.93C270.797 665.958 270.857 665.999 270.907 666.051C270.956 666.103 270.995 666.165 271.02 666.233C271.045 666.3 271.056 666.372 271.052 666.444V774.484C271.052 774.625 270.996 774.76 270.897 774.86C270.797 774.959 270.662 775.015 270.522 775.015Z" fill="#E0E0E0"/>
<path d="M299.827 657.293C304.972 654.322 309.163 656.736 309.163 662.598C308.984 665.842 308.047 668.999 306.425 671.814C304.804 674.629 302.544 677.024 299.827 678.805C294.523 681.776 290.465 679.363 290.465 673.5C290.638 670.252 291.576 667.091 293.203 664.274C294.83 661.457 297.1 659.065 299.827 657.293Z" fill="#002372"/>
<path d="M318.258 657.291C318.258 659.943 320.539 660.58 323.377 658.935L559.076 522.671C560.453 521.891 561.629 520.803 562.513 519.491C563.396 518.179 563.963 516.679 564.169 515.111C564.169 512.591 561.888 511.848 559.076 513.466L323.562 649.678C322.14 650.438 320.918 651.524 319.996 652.847C319.074 654.17 318.478 655.693 318.258 657.291Z" fill="#455A64"/>
<path d="M391.793 614.716C391.793 617.369 394.074 618.006 396.912 616.361L632.611 480.097C633.988 479.317 635.164 478.228 636.048 476.916C636.931 475.604 637.498 474.105 637.704 472.537C637.704 470.017 635.423 469.274 632.611 470.892L397.097 607.103C395.675 607.863 394.453 608.949 393.531 610.273C392.609 611.596 392.013 613.119 391.793 614.716Z" fill="#455A64"/>
<path d="M290.465 705.543C290.465 708.063 292.746 708.806 295.584 707.188L812.097 409.114C813.473 408.335 814.649 407.246 815.533 405.934C816.417 404.622 816.984 403.123 817.189 401.555C817.189 398.902 814.908 398.292 812.097 399.91L295.584 697.983C294.201 698.758 293.018 699.845 292.13 701.158C291.241 702.47 290.671 703.972 290.465 705.543Z" fill="#E0E0E0"/>
<path d="M290.465 724.035C290.465 726.688 292.746 727.324 295.584 725.68L812.097 427.606C813.472 426.833 814.649 425.749 815.533 424.441C816.417 423.134 816.984 421.638 817.189 420.073C817.189 417.42 814.908 416.784 812.097 418.402L295.584 716.475C294.202 717.252 293.021 718.339 292.132 719.651C291.244 720.963 290.673 722.464 290.465 724.035Z" fill="#E0E0E0"/>
<path d="M312.742 734.431C312.742 737.083 315.023 737.72 317.834 736.102L338.574 724.165C339.952 723.384 341.13 722.295 342.018 720.984C342.906 719.673 343.479 718.174 343.693 716.605C343.693 713.953 341.386 713.316 338.574 714.961L317.834 726.897C316.461 727.674 315.287 728.759 314.404 730.066C313.52 731.373 312.951 732.867 312.742 734.431Z" fill="#E0E0E0"/>
<path d="M377.008 697.082C377.008 699.735 379.315 700.372 382.127 698.727L402.867 686.79C404.243 686.011 405.419 684.922 406.303 683.61C407.187 682.298 407.753 680.799 407.959 679.23C407.959 676.578 405.678 675.968 402.867 677.586L382.127 689.522C380.749 690.304 379.571 691.392 378.683 692.704C377.795 694.015 377.222 695.513 377.008 697.082Z" fill="#E0E0E0"/>
<path d="M290.465 751.192V741.457C290.496 740.865 290.669 740.288 290.969 739.775C291.269 739.263 291.687 738.83 292.189 738.513L304.813 731.245C305.741 730.714 306.511 731.245 306.511 732.226V741.988C306.478 742.577 306.308 743.151 306.013 743.662C305.718 744.174 305.307 744.609 304.813 744.932L292.189 752.2C291.234 752.784 290.465 752.28 290.465 751.192Z" fill="#EBEBEB"/>
<path d="M296.434 749.364L300.571 746.977L298.502 752.945L296.434 749.364Z" fill="#EBEBEB"/>
<path d="M360.351 701.193L362.022 702.678C356.426 711.14 358.389 715.066 363.295 716.976C361.678 715.172 362.155 709.84 365.205 705.57L366.876 707.055C367.194 707.347 368.016 706.869 368.202 706.259L371.04 697.347C371.04 696.922 370.907 696.683 370.456 696.843L361.147 699.893C360.511 700.105 360.033 700.901 360.351 701.193Z" fill="#EBEBEB"/>
<path d="M540.843 960.923C540.843 943.151 535.353 925.776 517.424 915.431C506.99 910.015 495.331 907.392 483.582 907.818H483.291C468.463 907.841 453.876 911.57 440.856 918.667C430.247 924.768 425.712 933.283 425.738 941.692V959.836C405.104 954.902 376.752 955.565 359.434 965.565C347.287 972.595 340.868 981.481 340.683 990.075V990.235V1014.51C340.697 1014.66 340.697 1014.81 340.683 1014.96V1015.12C340.55 1022.46 344.847 1029.44 353.944 1034.67C382.004 1050.87 439.874 1049.6 483.423 1045.7L529.253 1041.51L536.494 1014.98C539.181 1005.39 540.634 995.498 540.817 985.54V960.817L540.843 960.923Z" fill="#002372"/>
<path opacity="0.15" d="M529.282 1016.71V1041.54L483.479 1045.76C439.904 1049.68 382.033 1051.06 353.999 1034.75C344.929 1029.44 340.738 1022.52 340.738 1015.2V1015.04V1014.59V990.715C340.738 997.877 345.035 1004.75 353.999 1009.87C382.033 1026.07 439.904 1024.8 483.479 1020.87L529.282 1016.71Z" fill="black"/>
<path opacity="0.3" d="M437.384 963.578C433.605 962.009 429.702 960.758 425.715 959.837V941.641C425.888 945.939 427.028 950.143 429.048 953.94C431.068 957.738 433.917 961.032 437.384 963.578Z" fill="black"/>
<path d="M517.429 915.431C506.994 910.015 495.336 907.392 483.587 907.818H483.295C468.467 907.841 453.88 911.57 440.86 918.667C419.988 930.684 422.534 952.064 437.36 963.762C417.309 955.194 380.285 953.735 359.465 965.778C347.318 972.807 340.9 981.693 340.714 990.288V990.447C340.581 997.768 344.878 1004.77 353.975 1010C382.035 1026.2 439.906 1024.93 483.455 1021.03L529.284 1016.84L536.525 990.314C543.288 965.141 545.569 931.639 517.429 915.431Z" fill="#002372"/>
<path d="M655.654 932.809C655.654 919.709 651.617 906.903 638.432 899.277C630.758 895.285 622.184 893.352 613.544 893.666H613.33C602.425 893.682 591.698 896.431 582.123 901.663C574.321 906.16 570.986 912.436 571.005 918.634V932.008C555.831 928.371 534.981 928.86 522.245 936.231C513.312 941.412 508.592 947.962 508.455 954.297V954.415V972.305C508.466 972.416 508.466 972.527 508.455 972.637V972.755C508.358 978.171 511.517 983.313 518.207 987.165C538.843 999.111 581.401 998.173 613.427 995.299L647.131 992.209L652.455 972.657C654.432 965.588 655.5 958.294 655.634 950.954V932.731L655.654 932.809Z" fill="#002372"/>
<path opacity="0.15" d="M647.298 973.861V992.156L613.568 995.263C581.479 998.156 538.863 999.172 518.219 987.152C511.539 983.243 508.453 978.142 508.453 972.747V972.63V972.298V954.707C508.453 959.984 511.617 965.046 518.219 968.819C538.863 980.761 581.479 979.823 613.568 976.93L647.298 973.861Z" fill="black"/>
<path opacity="0.3" d="M579.804 934.78C576.89 933.63 573.879 932.713 570.805 932.039V918.707C570.939 921.856 571.817 924.936 573.375 927.719C574.933 930.501 577.13 932.914 579.804 934.78Z" fill="black"/>
<path d="M638.41 899.247C630.737 895.276 622.163 893.353 613.523 893.666H613.308C602.404 893.682 591.677 896.416 582.102 901.619C566.753 910.429 568.625 926.103 579.528 934.679C564.783 928.398 537.555 927.328 522.245 936.157C513.312 941.31 508.592 947.825 508.455 954.126V954.242C508.358 959.61 511.517 964.744 518.207 968.575C538.842 980.457 581.4 979.523 613.426 976.664L647.128 973.592L652.453 954.145C657.426 935.69 659.104 911.129 638.41 899.247Z" fill="#002372"/>
<path d="M908.273 635.07C908.273 627.585 905.963 620.266 898.421 615.909C894.031 613.628 889.127 612.523 884.184 612.702H884.061C877.823 612.712 871.687 614.283 866.209 617.272C861.746 619.842 859.838 623.428 859.85 626.97V634.612C851.169 632.534 839.242 632.813 831.956 637.025C826.846 639.986 824.146 643.729 824.068 647.349V647.416V657.639C824.074 657.702 824.074 657.766 824.068 657.829V657.896C824.012 660.991 825.819 663.929 829.646 666.13C841.451 672.957 865.797 672.421 884.117 670.778L903.397 669.013L906.443 657.84C907.574 653.801 908.185 649.633 908.262 645.439V635.026L908.273 635.07Z" fill="#002372"/>
<path opacity="0.15" d="M903.773 658.431V668.964L884.41 670.753C865.989 672.418 841.524 673.004 829.672 666.083C825.838 663.832 824.066 660.895 824.066 657.789V657.722V657.53V647.402C824.066 650.441 825.883 653.355 829.672 655.527C841.524 662.403 865.989 661.863 884.41 660.197L903.773 658.431Z" fill="black"/>
<path opacity="0.3" d="M872.275 644.827C870.61 644.137 868.89 643.587 867.133 643.183V635.184C867.209 637.073 867.711 638.921 868.602 640.591C869.492 642.26 870.747 643.708 872.275 644.827Z" fill="black"/>
<path d="M898.409 615.916C894.019 613.63 889.114 612.523 884.172 612.702H884.049C877.811 612.712 871.675 614.286 866.198 617.282C857.417 622.354 858.488 631.378 864.725 636.316C856.29 632.7 840.714 632.084 831.956 637.167C826.846 640.134 824.146 643.885 824.068 647.513V647.58C824.012 650.67 825.819 653.626 829.646 655.832C841.451 662.673 865.796 662.136 884.116 660.49L903.396 658.721L906.442 647.524C909.287 636.898 910.246 622.757 898.409 615.916Z" fill="#002372"/>
</svg>
