<svg width="347" height="900" viewBox="0 0 347 900" fill="none" xmlns="http://www.w3.org/2000/svg">
<path fill-rule="evenodd" clip-rule="evenodd" d="M197.613 0H0.5625V654.968C107.787 722.249 126.444 765.077 147.31 812.977C158.616 838.93 170.571 866.372 197.613 900V0Z" fill="#26256B"/>
<path d="M197.973 149.752C162.56 149.752 128.598 164.241 103.557 190.031C78.5168 215.821 64.4492 250.8 64.4492 287.272C64.4492 323.745 78.5168 358.724 103.557 384.514C128.598 410.304 162.56 424.793 197.973 424.793L197.973 287.272V149.752Z" fill="#223CC3"/>
<path d="M197.973 149.752C233.385 149.752 267.347 164.241 292.388 190.031C317.428 215.821 331.496 250.8 331.496 287.272C331.496 323.745 317.428 358.724 292.388 384.514C267.347 410.304 233.385 424.793 197.973 424.793L197.973 287.272V149.752Z" fill="#EEEEEE"/>
<path fill-rule="evenodd" clip-rule="evenodd" d="M196.894 0H0.552734V203.177L52.2131 150.494L196.894 0Z" fill="#D9D9D9"/>
<path d="M83.9749 720.583C60.2521 696.924 1.09375 665.352 1.09375 665.352V900.001H158.801C158.801 866.542 152.193 834.152 139.354 803.24C126.516 772.329 107.698 744.242 83.9749 720.583Z" fill="#EEEEEF"/>
<path fill-rule="evenodd" clip-rule="evenodd" d="M312.643 731.655C334.908 785.262 346.367 841.977 346.367 900.001H158.801C158.801 866.542 152.193 834.152 139.354 803.24C126.516 772.329 107.698 744.242 83.9749 720.583C60.2521 696.924 1.09375 665.352 1.09375 665.352V469.789C25.5661 475.311 49.5814 482.909 72.8723 492.53C126.624 514.735 175.464 547.281 216.604 588.31C257.744 629.34 290.378 678.048 312.643 731.655Z" fill="#CB294E"/>
</svg>
