<svg width="1050" height="327" viewBox="0 0 1050 327" fill="none" xmlns="http://www.w3.org/2000/svg">
<g filter="url(#filter0_d_1168_525)">
<path d="M35.0777 38.5909C35.0348 28.7636 42.9666 20.7511 52.7939 20.6946L851.409 16.1021C861.236 16.0456 869.238 23.9665 869.281 33.7938L869.922 180.791C869.965 190.618 862.033 198.631 852.206 198.687L53.5909 203.28C43.7636 203.336 35.7622 195.415 35.7193 185.588L35.0777 38.5909Z" fill="white"/>
</g>
<circle cx="74.2793" cy="171.064" r="13.8474" fill="#D9D9D9"/>
<path d="M731.254 48.0923C731.254 44.1613 734.441 40.9746 738.372 40.9746H847.788C848.77 40.9746 849.567 41.7713 849.567 42.754V63.8766C849.567 67.8076 846.38 70.9942 842.449 70.9942H733.034C732.051 70.9942 731.254 70.1976 731.254 69.2148V48.0923Z" fill="#D9D9D9"/>
<rect x="58.8198" y="40.8984" width="311.567" height="30.1874" fill="#D9D9D9"/>
<rect x="58.8198" y="81.0547" width="83.6385" height="16.6169" fill="#D9D9D9"/>
<rect x="159.627" y="81.0547" width="102.194" height="16.6169" fill="#D9D9D9"/>
<rect x="60.4773" y="109.58" width="730.036" height="13.8474" fill="#D9D9D9"/>
<rect x="60.4773" y="127.582" width="730.036" height="13.8474" fill="#D9D9D9"/>
<rect x="94.2668" y="164.141" width="96.1012" height="13.8474" fill="#D9D9D9"/>
<g filter="url(#filter1_d_1168_525)">
<g filter="url(#filter2_d_1168_525)">
<path d="M88.0777 94.2609C88.0348 84.4335 95.9666 76.421 105.794 76.3645L904.409 71.772C914.236 71.7155 922.238 79.6364 922.281 89.4638L922.922 236.461C922.965 246.288 915.033 254.301 905.206 254.357L106.591 258.95C96.7636 259.006 88.7622 251.085 88.7193 241.258L88.0777 94.2609Z" fill="white"/>
</g>
<circle cx="127.279" cy="226.734" r="13.8474" fill="#D9D9D9"/>
<path d="M784.254 103.762C784.254 99.8312 787.441 96.6445 791.372 96.6445H900.788C901.77 96.6445 902.567 97.4412 902.567 98.424V119.546C902.567 123.477 899.38 126.664 895.449 126.664H786.034C785.051 126.664 784.254 125.867 784.254 124.885V103.762Z" fill="#D9D9D9"/>
<rect x="111.82" y="96.5684" width="311.567" height="30.1874" fill="#D9D9D9"/>
<rect x="111.82" y="136.725" width="83.6385" height="16.6169" fill="#D9D9D9"/>
<rect x="212.627" y="136.725" width="102.194" height="16.6169" fill="#D9D9D9"/>
<rect x="113.477" y="165.25" width="730.036" height="13.8474" fill="#D9D9D9"/>
<rect x="113.477" y="183.252" width="730.036" height="13.8474" fill="#D9D9D9"/>
<rect x="147.267" y="219.809" width="96.1012" height="13.8474" fill="#D9D9D9"/>
</g>
<g filter="url(#filter3_d_1168_525)">
<g filter="url(#filter4_d_1168_525)">
<path d="M160.078 150.261C160.035 140.433 167.967 132.421 177.794 132.364L976.409 127.772C986.236 127.716 994.238 135.636 994.281 145.464L994.922 292.461C994.965 302.288 987.033 310.301 977.206 310.357L178.591 314.95C168.764 315.006 160.762 307.085 160.719 297.258L160.078 150.261Z" fill="white"/>
</g>
<circle cx="199.279" cy="282.734" r="13.8474" fill="#D9D9D9"/>
<path d="M856.254 159.762C856.254 155.831 859.441 152.645 863.372 152.645H972.788C973.77 152.645 974.567 153.441 974.567 154.424V175.546C974.567 179.477 971.38 182.664 967.449 182.664H858.034C857.051 182.664 856.254 181.867 856.254 180.885V159.762Z" fill="#D9D9D9"/>
<rect x="183.82" y="152.568" width="311.567" height="30.1874" fill="#D9D9D9"/>
<rect x="183.82" y="192.725" width="83.6385" height="16.6169" fill="#D9D9D9"/>
<rect x="284.627" y="192.725" width="102.194" height="16.6169" fill="#D9D9D9"/>
<rect x="185.477" y="221.25" width="730.036" height="13.8474" fill="#D9D9D9"/>
<rect x="185.477" y="239.252" width="730.036" height="13.8474" fill="#D9D9D9"/>
<rect x="219.267" y="275.809" width="96.1012" height="13.8474" fill="#D9D9D9"/>
</g>
<path d="M975.84 92.3949C976.533 91.0237 978.514 91.0286 979.203 92.4015C992.312 118.526 1003.95 130.5 1028.71 143.305C1030.07 144.007 1030.06 145.977 1028.69 146.663C1002.19 159.979 993.095 169.764 979.179 197.65C978.498 199.015 976.536 199.024 975.845 197.663C962.633 171.657 953.517 159.466 926.521 146.632C925.12 145.966 925.081 143.956 926.461 143.246C949.703 131.291 961.183 121.427 975.84 92.3949Z" fill="#D9D9D9"/>
<path d="M975.84 92.3949C976.533 91.0237 978.514 91.0286 979.203 92.4015C992.312 118.526 1003.95 130.5 1028.71 143.305C1030.07 144.007 1030.06 145.977 1028.69 146.663C1002.19 159.979 993.095 169.764 979.179 197.65C978.498 199.015 976.536 199.024 975.845 197.663C962.633 171.657 953.517 159.466 926.521 146.632C925.12 145.966 925.081 143.956 926.461 143.246C949.703 131.291 961.183 121.427 975.84 92.3949Z" fill="url(#paint0_linear_1168_525)"/>
<path d="M33.4587 23.1497C33.897 22.2814 35.152 22.2845 35.5881 23.1539C43.8884 39.6963 51.2566 47.2781 66.936 55.3864C67.7954 55.8308 67.7895 57.0779 66.9249 57.5124C50.1457 65.944 44.3843 72.14 35.5731 89.7976C35.1417 90.6621 33.8995 90.6675 33.4619 89.806C25.0957 73.3387 19.3233 65.6193 2.22938 57.4928C1.34234 57.0711 1.31797 55.7982 2.19137 55.3489C16.9082 47.7786 24.1774 41.5328 33.4587 23.1497Z" fill="#D9D9D9"/>
<path d="M33.4587 23.1497C33.897 22.2814 35.152 22.2845 35.5881 23.1539C43.8884 39.6963 51.2566 47.2781 66.936 55.3864C67.7954 55.8308 67.7895 57.0779 66.9249 57.5124C50.1457 65.944 44.3843 72.14 35.5731 89.7976C35.1417 90.6621 33.8995 90.6675 33.4619 89.806C25.0957 73.3387 19.3233 65.6193 2.22938 57.4928C1.34234 57.0711 1.31797 55.7982 2.19137 55.3489C16.9082 47.7786 24.1774 41.5328 33.4587 23.1497Z" fill="url(#paint1_linear_1168_525)"/>
<path d="M1021.19 179.683C1021.53 179.003 1022.52 179.006 1022.86 179.686C1029.35 192.635 1035.12 198.57 1047.4 204.917C1048.07 205.265 1048.06 206.241 1047.39 206.581C1034.25 213.181 1029.74 218.031 1022.85 231.853C1022.51 232.53 1021.54 232.534 1021.19 231.86C1014.64 218.969 1010.13 212.927 996.745 206.566C996.051 206.236 996.032 205.239 996.715 204.887C1008.24 198.962 1013.93 194.073 1021.19 179.683Z" fill="#D9D9D9"/>
<path d="M1021.19 179.683C1021.53 179.003 1022.52 179.006 1022.86 179.686C1029.35 192.635 1035.12 198.57 1047.4 204.917C1048.07 205.265 1048.06 206.241 1047.39 206.581C1034.25 213.181 1029.74 218.031 1022.85 231.853C1022.51 232.53 1021.54 232.534 1021.19 231.86C1014.64 218.969 1010.13 212.927 996.745 206.566C996.051 206.236 996.032 205.239 996.715 204.887C1008.24 198.962 1013.93 194.073 1021.19 179.683Z" fill="url(#paint2_linear_1168_525)"/>
<path d="M69.7114 1.24278C69.458 0.740836 68.7325 0.742628 68.4803 1.2452C63.6817 10.8088 59.422 15.192 50.3573 19.8796C49.8605 20.1365 49.8639 20.8575 50.3637 21.1087C60.0642 25.9833 63.395 29.5653 68.489 39.7736C68.7384 40.2734 69.4565 40.2765 69.7095 39.7785C74.5463 30.2583 77.8834 25.7955 87.7658 21.0974C88.2786 20.8536 88.2927 20.1177 87.7878 19.8579C79.2796 15.4814 75.0771 11.8706 69.7114 1.24278Z" fill="#D9D9D9"/>
<path d="M69.7114 1.24278C69.458 0.740836 68.7325 0.742628 68.4803 1.2452C63.6817 10.8088 59.422 15.192 50.3573 19.8796C49.8605 20.1365 49.8639 20.8575 50.3637 21.1087C60.0642 25.9833 63.395 29.5653 68.489 39.7736C68.7384 40.2734 69.4565 40.2765 69.7095 39.7785C74.5463 30.2583 77.8834 25.7955 87.7658 21.0974C88.2786 20.8536 88.2927 20.1177 87.7878 19.8579C79.2796 15.4814 75.0771 11.8706 69.7114 1.24278Z" fill="url(#paint3_linear_1168_525)"/>
<defs>
<filter id="filter0_d_1168_525" x="30.5637" y="11.5879" width="850.99" height="203.323" filterUnits="userSpaceOnUse" color-interpolation-filters="sRGB">
<feFlood flood-opacity="0" result="BackgroundImageFix"/>
<feColorMatrix in="SourceAlpha" type="matrix" values="0 0 0 0 0 0 0 0 0 0 0 0 0 0 0 0 0 0 127 0" result="hardAlpha"/>
<feOffset dx="3.55885" dy="3.55885"/>
<feGaussianBlur stdDeviation="4.03625"/>
<feComposite in2="hardAlpha" operator="out"/>
<feColorMatrix type="matrix" values="0 0 0 0 0 0 0 0 0 0 0 0 0 0 0 0 0 0 0.1 0"/>
<feBlend mode="normal" in2="BackgroundImageFix" result="effect1_dropShadow_1168_525"/>
<feBlend mode="normal" in="SourceGraphic" in2="effect1_dropShadow_1168_525" result="shape"/>
</filter>
<filter id="filter1_d_1168_525" x="77.0774" y="68.7715" width="848.845" height="201.178" filterUnits="userSpaceOnUse" color-interpolation-filters="sRGB">
<feFlood flood-opacity="0" result="BackgroundImageFix"/>
<feColorMatrix in="SourceAlpha" type="matrix" values="0 0 0 0 0 0 0 0 0 0 0 0 0 0 0 0 0 0 127 0" result="hardAlpha"/>
<feOffset dx="-4" dy="4"/>
<feGaussianBlur stdDeviation="3.5"/>
<feComposite in2="hardAlpha" operator="out"/>
<feColorMatrix type="matrix" values="0 0 0 0 0 0 0 0 0 0 0 0 0 0 0 0 0 0 0.08 0"/>
<feBlend mode="normal" in2="BackgroundImageFix" result="effect1_dropShadow_1168_525"/>
<feBlend mode="normal" in="SourceGraphic" in2="effect1_dropShadow_1168_525" result="shape"/>
</filter>
<filter id="filter2_d_1168_525" x="83.5637" y="67.2578" width="850.99" height="203.323" filterUnits="userSpaceOnUse" color-interpolation-filters="sRGB">
<feFlood flood-opacity="0" result="BackgroundImageFix"/>
<feColorMatrix in="SourceAlpha" type="matrix" values="0 0 0 0 0 0 0 0 0 0 0 0 0 0 0 0 0 0 127 0" result="hardAlpha"/>
<feOffset dx="3.55885" dy="3.55885"/>
<feGaussianBlur stdDeviation="4.03625"/>
<feComposite in2="hardAlpha" operator="out"/>
<feColorMatrix type="matrix" values="0 0 0 0 0 0 0 0 0 0 0 0 0 0 0 0 0 0 0.1 0"/>
<feBlend mode="normal" in2="BackgroundImageFix" result="effect1_dropShadow_1168_525"/>
<feBlend mode="normal" in="SourceGraphic" in2="effect1_dropShadow_1168_525" result="shape"/>
</filter>
<filter id="filter3_d_1168_525" x="149.077" y="124.771" width="848.845" height="201.178" filterUnits="userSpaceOnUse" color-interpolation-filters="sRGB">
<feFlood flood-opacity="0" result="BackgroundImageFix"/>
<feColorMatrix in="SourceAlpha" type="matrix" values="0 0 0 0 0 0 0 0 0 0 0 0 0 0 0 0 0 0 127 0" result="hardAlpha"/>
<feOffset dx="-4" dy="4"/>
<feGaussianBlur stdDeviation="3.5"/>
<feComposite in2="hardAlpha" operator="out"/>
<feColorMatrix type="matrix" values="0 0 0 0 0 0 0 0 0 0 0 0 0 0 0 0 0 0 0.08 0"/>
<feBlend mode="normal" in2="BackgroundImageFix" result="effect1_dropShadow_1168_525"/>
<feBlend mode="normal" in="SourceGraphic" in2="effect1_dropShadow_1168_525" result="shape"/>
</filter>
<filter id="filter4_d_1168_525" x="155.564" y="123.258" width="850.99" height="203.323" filterUnits="userSpaceOnUse" color-interpolation-filters="sRGB">
<feFlood flood-opacity="0" result="BackgroundImageFix"/>
<feColorMatrix in="SourceAlpha" type="matrix" values="0 0 0 0 0 0 0 0 0 0 0 0 0 0 0 0 0 0 127 0" result="hardAlpha"/>
<feOffset dx="3.55885" dy="3.55885"/>
<feGaussianBlur stdDeviation="4.03625"/>
<feComposite in2="hardAlpha" operator="out"/>
<feColorMatrix type="matrix" values="0 0 0 0 0 0 0 0 0 0 0 0 0 0 0 0 0 0 0.1 0"/>
<feBlend mode="normal" in2="BackgroundImageFix" result="effect1_dropShadow_1168_525"/>
<feBlend mode="normal" in="SourceGraphic" in2="effect1_dropShadow_1168_525" result="shape"/>
</filter>
<linearGradient id="paint0_linear_1168_525" x1="945.658" y1="111.658" x2="999.568" y2="160.672" gradientUnits="userSpaceOnUse">
<stop stop-color="#26256B"/>
<stop offset="1" stop-color="#002E94"/>
</linearGradient>
<linearGradient id="paint1_linear_1168_525" x1="14.3471" y1="35.3471" x2="48.4834" y2="66.3833" gradientUnits="userSpaceOnUse">
<stop stop-color="#26256B"/>
<stop offset="1" stop-color="#002E94"/>
</linearGradient>
<linearGradient id="paint2_linear_1168_525" x1="1006.23" y1="189.231" x2="1032.95" y2="213.525" gradientUnits="userSpaceOnUse">
<stop stop-color="#26256B"/>
<stop offset="1" stop-color="#002E94"/>
</linearGradient>
<linearGradient id="paint3_linear_1168_525" x1="80.7603" y1="8.29441" x2="61.0252" y2="26.2372" gradientUnits="userSpaceOnUse">
<stop stop-color="#26256B"/>
<stop offset="1" stop-color="#002E94"/>
</linearGradient>
</defs>
</svg>
