<svg width="1027" height="1027" viewBox="0 0 1027 1027" fill="none" xmlns="http://www.w3.org/2000/svg">
<path d="M86.7849 500.035L650.3 825.389C653.693 827.11 657.443 828.007 661.248 828.007C665.052 828.007 668.803 827.11 672.195 825.389L978.96 648.272C984.999 644.78 984.999 639.132 978.96 635.64L415.445 310.286C412.053 308.565 408.302 307.668 404.498 307.668C400.693 307.668 396.943 308.565 393.55 310.286L86.7849 487.403C80.7462 490.895 80.7462 496.543 86.7849 500.035Z" fill="#E0E0E0"/>
<path d="M925.235 599.457L909.81 589.043C909.81 589.043 903.032 548.661 909.337 513.168C918.211 463.277 952.615 446.68 964.795 451.898C976.976 457.115 979.708 471.986 956.805 500.475C943.372 517.276 925.708 552.995 925.235 599.457Z" fill="#26256B"/>
<g opacity="0.15">
<path d="M925.235 599.457L909.81 589.043C909.81 589.043 903.032 548.661 909.337 513.168C918.211 463.277 952.615 446.68 964.795 451.898C976.976 457.115 979.708 471.986 956.805 500.475C943.372 517.276 925.708 552.995 925.235 599.457Z" fill="black"/>
</g>
<path d="M919.935 579.471H920.099C920.245 579.453 920.386 579.406 920.514 579.334C920.642 579.261 920.755 579.163 920.844 579.047C920.934 578.93 921 578.797 921.038 578.654C921.076 578.512 921.085 578.364 921.064 578.218C915.498 531.243 935.34 480.283 956.907 460.01C957.012 459.907 957.095 459.784 957.152 459.648C957.209 459.512 957.238 459.366 957.238 459.219C957.238 459.072 957.209 458.926 957.152 458.791C957.095 458.655 957.012 458.532 956.907 458.428C956.696 458.221 956.412 458.105 956.116 458.105C955.82 458.105 955.536 458.221 955.325 458.428C933.368 479.071 913.157 530.873 918.805 578.526C918.849 578.792 918.988 579.034 919.195 579.208C919.402 579.381 919.665 579.474 919.935 579.471Z" fill="white"/>
<path d="M965.33 626.936C971.083 624.871 975.887 620.782 978.845 615.434C981.865 609.658 983.497 603.259 983.611 596.742C983.919 590.704 982.317 584.418 983.2 578.523C983.898 573.84 988.109 570.636 991.95 567.863C996.202 564.823 1000.66 560.756 1000.74 555.108C1000.52 550.712 998.841 546.515 995.976 543.174C991.868 537.649 987.513 533.294 988.684 525.756C989.734 521.214 991.291 516.805 993.326 512.611C994.143 510.795 994.697 508.873 994.969 506.901C995.131 505.138 994.912 503.362 994.325 501.692C993.739 500.022 992.8 498.498 991.573 497.223C990.345 495.949 988.857 494.953 987.21 494.305C985.563 493.657 983.796 493.371 982.029 493.467C978.816 493.801 975.712 494.824 972.93 496.466C964.18 501.108 958.86 513.227 948.734 514.48C945.427 514.891 942.079 514.747 938.772 515.178C935.419 515.428 932.255 516.828 929.816 519.142C922.093 527.358 931.049 538.265 927.762 547.364C925.462 553.896 919.033 556.279 915.438 562.112C913.926 564.69 913.279 567.684 913.59 570.657C913.804 575.682 914.938 580.625 916.938 585.24C918.662 588.876 920.667 592.371 922.935 595.695C925.298 599.618 926.058 603.911 929.097 607.547C933.094 611.867 937.42 615.871 942.038 619.521C946.413 623.383 951.404 627.06 957.361 627.737C960.043 628.07 962.767 627.796 965.33 626.936Z" fill="#26256B"/>
<g opacity="0.2">
<path d="M965.33 626.936C971.083 624.871 975.887 620.782 978.845 615.434C981.865 609.658 983.497 603.259 983.611 596.742C983.919 590.704 982.317 584.418 983.2 578.523C983.898 573.84 988.109 570.636 991.95 567.863C996.202 564.823 1000.66 560.756 1000.74 555.108C1000.52 550.712 998.841 546.515 995.976 543.174C991.868 537.649 987.513 533.294 988.684 525.756C989.734 521.214 991.291 516.805 993.326 512.611C994.143 510.795 994.697 508.873 994.969 506.901C995.131 505.138 994.912 503.362 994.325 501.692C993.739 500.022 992.8 498.498 991.573 497.223C990.345 495.949 988.857 494.953 987.21 494.305C985.563 493.657 983.796 493.371 982.029 493.467C978.816 493.801 975.712 494.824 972.93 496.466C964.18 501.108 958.86 513.227 948.734 514.48C945.427 514.891 942.079 514.747 938.772 515.178C935.419 515.428 932.255 516.828 929.816 519.142C922.093 527.358 931.049 538.265 927.762 547.364C925.462 553.896 919.033 556.279 915.438 562.112C913.926 564.69 913.279 567.684 913.59 570.657C913.804 575.682 914.938 580.625 916.938 585.24C918.662 588.876 920.667 592.371 922.935 595.695C925.298 599.618 926.058 603.911 929.097 607.547C933.094 611.867 937.42 615.871 942.038 619.521C946.413 623.383 951.404 627.06 957.361 627.737C960.043 628.07 962.767 627.796 965.33 626.936Z" fill="white"/>
</g>
<path d="M941.936 612.176C942.084 612.173 942.23 612.141 942.366 612.082C942.502 612.023 942.625 611.937 942.728 611.83C942.831 611.724 942.912 611.597 942.967 611.459C943.021 611.321 943.047 611.174 943.045 611.025C942.059 566.659 963.893 518.102 979.359 504.217C979.537 504.009 979.633 503.743 979.629 503.469C979.625 503.195 979.522 502.932 979.338 502.729C979.155 502.525 978.904 502.396 978.632 502.363C978.36 502.331 978.086 502.399 977.86 502.554C962.085 516.767 939.799 566.125 940.888 611.108C940.907 611.381 941.022 611.639 941.214 611.835C941.406 612.031 941.662 612.152 941.936 612.176Z" fill="white"/>
<path d="M950.106 558.116H950.434C960.99 555.412 971.811 553.876 982.703 553.536C982.974 553.499 983.222 553.365 983.402 553.159C983.581 552.954 983.681 552.69 983.681 552.416C983.681 552.143 983.581 551.879 983.402 551.673C983.222 551.467 982.974 551.334 982.703 551.297C971.612 551.661 960.593 553.225 949.839 555.959C949.696 555.997 949.563 556.063 949.447 556.153C949.33 556.243 949.233 556.356 949.16 556.484C949.087 556.612 949.041 556.753 949.023 556.899C949.006 557.046 949.018 557.194 949.058 557.336C949.133 557.557 949.273 557.75 949.46 557.889C949.648 558.028 949.873 558.108 950.106 558.116Z" fill="white"/>
<path d="M114.029 457.552L131.878 449.521C131.878 449.521 139.643 413.802 139.725 385.559C139.848 345.855 119.185 296.005 87.8201 304.036C56.4555 312.067 96.5496 356.598 102.999 390.92C109.449 425.242 114.029 457.552 114.029 457.552Z" fill="#26256B"/>
<g opacity="0.15">
<path d="M114.027 457.552L131.876 449.521C131.876 449.521 139.641 413.802 139.723 385.559C139.846 345.855 119.183 296.005 87.8182 304.036C56.4536 312.067 96.5477 356.598 102.997 390.92C109.447 425.242 114.027 457.552 114.027 457.552Z" fill="black"/>
</g>
<path d="M123.313 454.408C123.042 454.367 122.798 454.222 122.633 454.003C122.468 453.784 122.395 453.509 122.43 453.237C134.22 366.209 95.1736 317.878 94.7834 317.406C94.6168 317.19 94.539 316.919 94.5657 316.648C94.5924 316.377 94.7217 316.127 94.9271 315.948C95.1374 315.777 95.4064 315.697 95.6756 315.724C95.9448 315.751 96.1925 315.883 96.3649 316.091C96.7757 316.564 136.377 365.593 124.464 453.525C124.428 453.794 124.287 454.038 124.071 454.204C123.855 454.369 123.583 454.443 123.313 454.408Z" fill="white"/>
<path d="M102.795 462.63L115.51 456.92C115.51 456.92 120.049 432.272 110.95 400.99C103.021 373.713 78.969 349.311 65.2893 352.557C51.6097 355.802 50.9113 365.189 56.4571 375.664C62.0029 386.139 98.7079 413.334 102.795 462.63Z" fill="#26256B"/>
<g opacity="0.2">
<path d="M102.795 462.627L115.51 456.916C115.51 456.916 120.049 432.268 110.95 400.986C103.021 373.709 78.969 349.307 65.2893 352.553C51.6097 355.798 50.9113 365.185 56.4571 375.66C62.0029 386.136 98.7079 413.331 102.795 462.627Z" fill="white"/>
</g>
<path d="M109.41 460.575C109.141 460.544 108.895 460.408 108.725 460.197C108.556 459.985 108.477 459.715 108.506 459.446C114.319 404.255 66.2349 361.675 65.7625 361.264C65.5587 361.083 65.4339 360.828 65.4147 360.556C65.3955 360.284 65.4835 360.015 65.6598 359.806C65.7535 359.71 65.8654 359.634 65.9888 359.583C66.1123 359.531 66.2448 359.504 66.3787 359.504C66.5126 359.504 66.6452 359.531 66.7686 359.583C66.8921 359.634 67.0039 359.71 67.0976 359.806C67.5906 360.217 116.394 403.495 110.54 459.754C110.494 460.01 110.351 460.239 110.141 460.392C109.93 460.546 109.668 460.611 109.41 460.575Z" fill="white"/>
<path d="M943.968 641.655L675.284 796.752C671.037 799.204 666.237 800.54 661.334 800.633C656.431 800.726 651.584 799.575 647.247 797.286L106.326 484.955C97.8018 480.046 90.9004 469.037 90.9004 460.307C90.9004 451.578 97.8018 440.65 106.326 435.659L374.003 281.26C378.781 278.849 384.057 277.594 389.408 277.594C394.759 277.594 400.036 278.849 404.813 281.26L943.968 592.503C952.492 597.432 959.393 608.421 959.393 617.151C959.393 625.88 952.41 636.746 943.968 641.655Z" fill="#26256B"/>
<g opacity="0.5">
<path d="M374.003 281.26L106.326 435.803C97.8018 440.712 90.9004 451.721 90.9004 460.451C90.9004 469.18 97.8018 480.128 106.326 485.099L647.247 797.286C651.402 799.41 655.993 800.541 660.659 800.593V428.942L404.875 281.26C400.089 278.839 394.802 277.578 389.439 277.578C384.076 277.578 378.789 278.839 374.003 281.26Z" fill="black"/>
</g>
<g opacity="0.4">
<path d="M675.284 796.751L943.968 641.654C952.492 636.745 959.394 625.735 959.394 617.006C959.394 608.276 952.492 597.349 943.968 592.358L660.742 428.941V800.592C665.846 800.635 670.867 799.308 675.284 796.751Z" fill="black"/>
</g>
<path d="M668.961 769.105C664.743 771.242 660.081 772.356 655.353 772.356C650.625 772.356 645.963 771.242 641.745 769.105L106.267 459.999C94.7443 453.344 94.7443 442.478 106.267 435.823L373.986 281.26C378.763 278.849 384.039 277.594 389.391 277.594C394.742 277.594 400.018 278.849 404.796 281.26L943.95 592.503C952.433 597.412 952.433 605.422 943.95 610.311L668.961 769.105Z" fill="#26256B"/>
<g opacity="0.3">
<path d="M668.961 769.109C664.743 771.246 660.081 772.359 655.353 772.359C650.625 772.359 645.963 771.246 641.745 769.109L106.267 460.003C94.7443 453.348 94.7443 442.482 106.267 435.827L373.986 281.264C378.763 278.853 384.039 277.598 389.391 277.598C394.742 277.598 400.018 278.853 404.796 281.264L943.95 592.506C952.433 597.415 952.433 605.426 943.95 610.315L668.961 769.109Z" fill="black"/>
</g>
<path d="M642.888 737.992C638.344 740.302 633.32 741.505 628.223 741.505C623.126 741.505 618.101 740.302 613.557 737.992L152.845 471.999C144.752 467.316 144.752 459.676 152.845 455.075L404.706 309.672C409.256 307.383 414.279 306.191 419.372 306.191C424.465 306.191 429.488 307.383 434.038 309.672L894.75 575.603C902.801 580.266 902.801 587.927 894.75 592.549L642.888 737.992Z" fill="#37474F"/>
<path d="M418.468 306.234C413.67 306.241 408.946 307.418 404.706 309.665L152.845 455.067C144.752 459.73 144.752 467.391 152.845 471.992L202.778 500.748L418.448 363.007L418.468 306.234Z" fill="#263238"/>
<path d="M434.205 320.681C429.659 318.382 424.635 317.184 419.54 317.184C414.445 317.184 409.421 318.382 404.874 320.681L153.033 466.084C151.629 466.894 150.366 467.928 149.295 469.145C150.361 470.277 151.594 471.239 152.951 472L613.499 737.993C618.043 740.302 623.068 741.505 628.165 741.505C633.261 741.505 638.286 740.302 642.83 737.993L894.692 592.61C896.111 591.805 897.394 590.778 898.491 589.57C897.435 588.425 896.209 587.448 894.856 586.674L434.205 320.681Z" fill="#455A64"/>
<path d="M244.912 387.063L289.545 361.285C292.215 359.745 292.339 357.341 289.853 355.904C288.394 355.19 286.785 354.832 285.161 354.861C283.536 354.89 281.941 355.303 280.508 356.068L235.874 381.846C233.204 383.386 233.06 385.789 235.566 387.227C237.026 387.941 238.634 388.298 240.259 388.27C241.883 388.241 243.478 387.828 244.912 387.063Z" fill="#37474F"/>
<path d="M321.566 342.879C322.11 342.69 322.581 342.336 322.915 341.867C323.248 341.398 323.428 340.836 323.428 340.26C323.428 339.685 323.248 339.123 322.915 338.654C322.581 338.185 322.11 337.831 321.566 337.642C320.162 336.932 318.61 336.562 317.037 336.562C315.464 336.562 313.912 336.932 312.508 337.642C311.964 337.831 311.493 338.185 311.159 338.654C310.826 339.123 310.646 339.685 310.646 340.26C310.646 340.836 310.826 341.398 311.159 341.867C311.493 342.336 311.964 342.69 312.508 342.879C313.912 343.589 315.464 343.958 317.037 343.958C318.61 343.958 320.162 343.589 321.566 342.879Z" fill="#37474F"/>
<path d="M339.663 332.41C340.209 332.226 340.684 331.875 341.02 331.407C341.357 330.939 341.537 330.377 341.537 329.801C341.537 329.225 341.357 328.663 341.02 328.195C340.684 327.727 340.209 327.376 339.663 327.192C338.259 326.483 336.707 326.113 335.134 326.113C333.561 326.113 332.009 326.483 330.605 327.192C330.059 327.376 329.584 327.727 329.248 328.195C328.911 328.663 328.73 329.225 328.73 329.801C328.73 330.377 328.911 330.939 329.248 331.407C329.584 331.875 330.059 332.226 330.605 332.41C332.006 333.129 333.559 333.504 335.134 333.504C336.709 333.504 338.262 333.129 339.663 332.41Z" fill="#37474F"/>
<path d="M194.892 415.98C195.439 415.796 195.913 415.445 196.25 414.977C196.586 414.509 196.767 413.947 196.767 413.371C196.767 412.795 196.586 412.233 196.25 411.765C195.913 411.297 195.439 410.946 194.892 410.762C193.492 410.053 191.944 409.684 190.374 409.684C188.804 409.684 187.256 410.053 185.855 410.762C185.309 410.946 184.834 411.297 184.498 411.765C184.161 412.233 183.98 412.795 183.98 413.371C183.98 413.947 184.161 414.509 184.498 414.977C184.834 415.445 185.309 415.796 185.855 415.98C187.253 416.699 188.802 417.074 190.374 417.074C191.946 417.074 193.495 416.699 194.892 415.98Z" fill="#37474F"/>
<path d="M212.969 405.523C213.515 405.339 213.99 404.988 214.326 404.52C214.662 404.052 214.843 403.49 214.843 402.914C214.843 402.338 214.662 401.776 214.326 401.308C213.99 400.84 213.515 400.489 212.969 400.305C211.568 399.596 210.02 399.227 208.45 399.227C206.88 399.227 205.332 399.596 203.931 400.305C203.385 400.489 202.91 400.84 202.574 401.308C202.238 401.776 202.057 402.338 202.057 402.914C202.057 403.49 202.238 404.052 202.574 404.52C202.91 404.988 203.385 405.339 203.931 405.523C205.332 406.232 206.88 406.601 208.45 406.601C210.02 406.601 211.568 406.232 212.969 405.523Z" fill="#37474F"/>
<path d="M276.008 565.334C277.389 566.192 278.547 567.365 279.386 568.758C280.225 570.15 280.722 571.722 280.835 573.344C280.887 573.89 280.79 574.44 280.555 574.935C280.32 575.431 279.955 575.853 279.5 576.158C278.925 576.466 276.727 577.781 276.131 578.11C275.566 578.357 274.946 578.451 274.333 578.383C273.72 578.314 273.136 578.085 272.639 577.719L209.91 541.405C208.539 540.537 207.391 539.361 206.556 537.97C205.722 536.579 205.224 535.012 205.104 533.394C205.054 532.87 205.139 532.342 205.351 531.86C205.563 531.378 205.895 530.959 206.316 530.642C206.911 530.272 209.191 528.957 209.787 528.588C210.355 528.351 210.975 528.265 211.586 528.337C212.198 528.409 212.781 528.637 213.279 528.999L276.008 565.334Z" fill="#26256B"/>
<g opacity="0.4">
<path d="M276.006 565.334C277.387 566.192 278.545 567.365 279.384 568.758C280.223 570.15 280.72 571.722 280.833 573.344C280.885 573.89 280.788 574.44 280.553 574.935C280.318 575.431 279.953 575.853 279.498 576.158C278.923 576.466 276.725 577.781 276.129 578.11C275.564 578.357 274.944 578.451 274.331 578.383C273.718 578.314 273.134 578.085 272.637 577.719L209.908 541.405C208.537 540.537 207.389 539.361 206.554 537.97C205.72 536.579 205.222 535.012 205.102 533.394C205.052 532.87 205.137 532.342 205.349 531.86C205.561 531.378 205.893 530.959 206.314 530.642C206.909 530.272 209.189 528.957 209.785 528.588C210.353 528.351 210.973 528.265 211.584 528.337C212.196 528.409 212.779 528.637 213.277 528.999L276.006 565.334Z" fill="black"/>
</g>
<path d="M272.643 567.161L209.914 530.949C207.264 529.409 205.107 530.518 205.107 533.393C205.228 535.011 205.725 536.578 206.56 537.969C207.394 539.36 208.543 540.536 209.914 541.404L272.643 577.657C275.313 579.198 277.47 578.109 277.47 575.213C277.363 573.584 276.87 572.003 276.03 570.603C275.191 569.203 274.03 568.023 272.643 567.161Z" fill="#26256B"/>
<g opacity="0.3">
<path d="M272.639 567.161L209.91 530.949C207.26 529.409 205.104 530.518 205.104 533.393C205.224 535.011 205.721 536.578 206.556 537.969C207.391 539.36 208.539 540.536 209.91 541.404L272.639 577.657C275.309 579.198 277.466 578.109 277.466 575.213C277.359 573.584 276.866 572.003 276.026 570.603C275.187 569.203 274.026 568.023 272.639 567.161Z" fill="black"/>
</g>
<path d="M192.038 516.755C193.417 517.611 194.573 518.781 195.412 520.17C196.251 521.558 196.749 523.126 196.865 524.745C196.921 525.291 196.827 525.842 196.591 526.339C196.356 526.835 195.989 527.257 195.53 527.559L192.161 529.613C191.595 529.854 190.976 529.945 190.364 529.876C189.752 529.808 189.169 529.583 188.669 529.223L159.112 512.154C157.731 511.296 156.573 510.122 155.734 508.73C154.895 507.337 154.399 505.765 154.286 504.143C154.232 503.619 154.315 503.089 154.527 502.607C154.74 502.124 155.074 501.705 155.497 501.391C156.093 501.021 158.373 499.707 158.989 499.337C159.552 499.095 160.168 499.004 160.776 499.073C161.385 499.141 161.965 499.367 162.46 499.727L192.038 516.755Z" fill="#26256B"/>
<g opacity="0.4">
<path d="M192.038 516.755C193.417 517.611 194.573 518.781 195.412 520.17C196.251 521.558 196.749 523.126 196.865 524.745C196.921 525.291 196.827 525.842 196.591 526.339C196.356 526.835 195.989 527.257 195.53 527.559L192.161 529.613C191.595 529.854 190.976 529.945 190.364 529.876C189.752 529.808 189.169 529.583 188.669 529.223L159.112 512.154C157.731 511.296 156.573 510.122 155.734 508.73C154.895 507.337 154.399 505.765 154.286 504.143C154.232 503.619 154.315 503.089 154.527 502.607C154.74 502.124 155.074 501.705 155.497 501.391C156.093 501.021 158.373 499.707 158.989 499.337C159.552 499.095 160.168 499.004 160.776 499.073C161.385 499.141 161.965 499.367 162.46 499.727L192.038 516.755Z" fill="black"/>
</g>
<path d="M188.669 518.684L159.112 501.656C156.442 500.116 154.285 501.204 154.285 504.1C154.398 505.722 154.895 507.294 155.734 508.687C156.573 510.08 157.731 511.253 159.112 512.111L188.669 529.18C191.339 530.72 193.496 529.632 193.496 526.736C193.389 525.106 192.896 523.526 192.056 522.126C191.217 520.726 190.056 519.546 188.669 518.684Z" fill="#26256B"/>
<g opacity="0.3">
<path d="M188.667 518.684L159.11 501.656C156.44 500.116 154.283 501.204 154.283 504.1C154.396 505.722 154.893 507.294 155.732 508.687C156.571 510.08 157.729 511.253 159.11 512.111L188.667 529.18C191.337 530.72 193.494 529.632 193.494 526.736C193.387 525.106 192.894 523.526 192.054 522.126C191.215 520.726 190.054 519.546 188.667 518.684Z" fill="black"/>
</g>
<path d="M892.716 530.886L635.843 679.39C634.052 680.301 632.071 680.776 630.061 680.776C628.052 680.776 626.07 680.301 624.279 679.39L153.4 407.522C151.719 406.424 150.321 404.943 149.322 403.201C148.322 401.459 147.749 399.505 147.648 397.499V393.391C147.752 391.377 148.326 389.416 149.325 387.665C150.324 385.913 151.72 384.42 153.4 383.306L410.478 234.925C412.27 234.014 414.251 233.539 416.26 233.539C418.27 233.539 420.251 234.014 422.042 234.925L892.84 506.69C894.523 507.787 895.924 509.268 896.927 511.009C897.93 512.751 898.507 514.706 898.611 516.713V520.821C898.495 522.845 897.9 524.813 896.875 526.563C895.85 528.312 894.425 529.794 892.716 530.886Z" fill="#E0E0E0"/>
<path d="M421.737 234.635C417.321 232.088 412.72 233.567 408.304 236.135L155.662 381.969C151.349 384.577 151.349 388.685 155.683 391.294L622.167 660.614C624.585 662.017 627.33 662.756 630.126 662.756C632.921 662.756 635.667 662.017 638.085 660.614L890.727 514.78C891.537 514.311 892.21 513.637 892.678 512.826C893.145 512.015 893.391 511.095 893.391 510.159C893.391 509.223 893.145 508.303 892.678 507.491C892.21 506.68 891.537 506.006 890.727 505.537L421.737 234.635Z" fill="#FAFAFA"/>
<path d="M416.849 235.625C418.172 235.618 419.472 235.973 420.608 236.652L889.7 507.472C890.169 507.747 890.557 508.141 890.827 508.613C891.097 509.085 891.239 509.619 891.239 510.162C891.239 510.706 891.097 511.24 890.827 511.712C890.557 512.184 890.169 512.577 889.7 512.853L637.058 658.687C634.974 659.886 632.612 660.516 630.208 660.516C627.804 660.516 625.442 659.886 623.358 658.687L156.792 389.367C155.395 388.566 154.594 387.58 154.594 386.676C154.594 385.772 155.395 384.786 156.792 383.985L409.434 238.151C411.644 236.682 414.201 235.818 416.849 235.645M416.849 233.427C413.803 233.601 410.857 234.571 408.304 236.241L155.662 382.075C151.349 384.581 151.349 388.689 155.683 391.297L622.167 660.618C624.586 662.017 627.331 662.754 630.126 662.754C632.921 662.754 635.666 662.017 638.085 660.618L890.727 514.784C891.537 514.315 892.21 513.641 892.678 512.83C893.145 512.018 893.391 511.099 893.391 510.162C893.391 509.226 893.145 508.306 892.678 507.495C892.21 506.684 891.537 506.01 890.727 505.541L421.737 234.639C420.253 233.774 418.566 233.321 416.849 233.324V233.427Z" fill="#E0E0E0"/>
<path d="M892.84 506.669L890.786 505.539C891.596 506.011 892.268 506.687 892.735 507.5C893.202 508.313 893.447 509.233 893.447 510.171C893.447 511.108 893.202 512.029 892.735 512.842C892.268 513.655 891.596 514.331 890.786 514.803L638.144 660.637C635.724 662.016 632.98 662.725 630.195 662.691H629.928V680.745C631.986 680.791 634.022 680.31 635.843 679.349L892.717 530.844C894.398 529.746 895.8 528.269 896.809 526.532C897.819 524.795 898.408 522.846 898.529 520.841V516.733C898.444 514.725 897.884 512.766 896.895 511.017C895.906 509.267 894.516 507.777 892.84 506.669Z" fill="#EBEBEB"/>
<path d="M185.771 405.907L578.292 632.762L842.36 480.02L447.504 252.23L185.771 405.907Z" fill="#26256B"/>
<path d="M223.627 373.55C223.469 373.517 223.317 373.461 223.175 373.386L221.552 372.441L218.636 374.125C218.551 374.183 218.451 374.213 218.348 374.213C218.246 374.213 218.145 374.183 218.061 374.125L217.485 373.797L217.198 373.612L217.034 373.386L214.363 368.148C214.353 368.08 214.353 368.011 214.363 367.943C214.363 367.943 214.363 367.84 214.507 367.778L214.918 367.553C215.043 367.503 215.183 367.503 215.308 367.553C215.476 367.585 215.636 367.647 215.781 367.737L221.429 370.983L222.066 370.613C222.186 370.575 222.315 370.575 222.436 370.613C222.603 370.645 222.763 370.708 222.908 370.798L223.298 371.024C223.463 371.126 223.565 371.209 223.586 371.27C223.606 371.332 223.586 371.414 223.442 371.496L222.805 371.866L224.407 372.79C224.592 372.79 224.674 372.975 224.695 373.057C224.715 373.139 224.695 373.201 224.551 373.283L224.058 373.55C223.919 373.6 223.766 373.6 223.627 373.55ZM220.382 371.496L216.274 369.175L218.184 372.729L220.382 371.496Z" fill="#455A64"/>
<path d="M226.113 370.975C224.492 370.727 222.935 370.162 221.533 369.311C220.312 368.763 219.302 367.833 218.657 366.661C218.369 365.84 218.657 365.121 219.766 364.607C220.213 364.359 220.689 364.166 221.183 364.032C221.66 363.911 222.15 363.849 222.642 363.847C222.729 363.822 222.822 363.822 222.909 363.847C222.97 363.87 223.021 363.913 223.053 363.971L223.484 364.525C223.484 364.525 223.484 364.648 223.484 364.669H223.237C222.518 364.688 221.814 364.878 221.183 365.224C220.485 365.607 220.239 366.1 220.444 366.702C220.952 367.556 221.713 368.231 222.621 368.633C223.645 369.284 224.792 369.717 225.99 369.907C226.839 370.056 227.713 369.919 228.475 369.516C228.707 369.388 228.921 369.229 229.112 369.044C229.252 368.915 229.358 368.752 229.42 368.572L226.791 367.052L225.579 367.75C225.46 367.798 225.328 367.798 225.209 367.75C225.042 367.718 224.882 367.655 224.737 367.565L224.367 367.36C224.182 367.36 224.08 367.175 224.059 367.093C224.038 367.011 224.059 366.969 224.223 366.887L226.154 365.758C226.3 365.706 226.46 365.706 226.606 365.758C226.796 365.791 226.977 365.86 227.14 365.963L230.878 368.12L231.186 368.325C231.21 368.384 231.21 368.451 231.186 368.51C231.186 369.154 230.693 369.749 229.708 370.297C228.613 370.902 227.353 371.14 226.113 370.975Z" fill="#455A64"/>
<path d="M250.104 356.436C251.336 357.155 251.604 358.182 250.659 358.716C250.02 358.967 249.332 359.068 248.649 359.011C247.965 358.954 247.303 358.741 246.715 358.388C245.462 357.669 245.216 356.662 246.14 356.108C246.782 355.856 247.473 355.755 248.16 355.812C248.847 355.869 249.512 356.083 250.104 356.436Z" fill="#455A64"/>
<path d="M242.439 353.969C242.067 354.14 241.742 354.397 241.49 354.72C241.238 355.042 241.067 355.42 240.99 355.822C240.914 356.224 240.935 356.638 241.051 357.03C241.167 357.422 241.376 357.781 241.658 358.077C241.825 358.251 242.026 358.389 242.249 358.481C242.472 358.573 242.711 358.617 242.953 358.611C243.589 358.611 243.959 358.282 243.651 357.892C243.451 357.683 243.304 357.43 243.222 357.153C243.14 356.877 243.126 356.584 243.18 356.301C243.234 356.017 243.356 355.75 243.534 355.523C243.712 355.296 243.943 355.115 244.205 354.996C245.776 354.288 247.551 354.178 249.197 354.688C249.874 354.852 250.47 354.688 250.45 354.277C250.45 353.969 250.039 353.661 249.525 353.517C247.183 352.836 244.676 352.996 242.439 353.969Z" fill="#455A64"/>
<path d="M238.846 351.9C238.309 352.155 237.834 352.524 237.453 352.98C237.072 353.437 236.795 353.971 236.641 354.545C236.486 355.119 236.459 355.72 236.559 356.306C236.66 356.892 236.886 357.449 237.223 357.939C237.384 358.137 237.588 358.296 237.819 358.402C238.051 358.509 238.303 358.561 238.558 358.555C239.195 358.555 239.544 358.247 239.298 357.857C239.007 357.462 238.808 357.008 238.717 356.526C238.626 356.045 238.644 355.549 238.77 355.076C238.896 354.602 239.127 354.163 239.446 353.791C239.765 353.419 240.164 353.124 240.612 352.927C243.295 351.697 246.32 351.428 249.178 352.167C249.835 352.29 250.389 352.167 250.369 351.736C250.369 351.407 249.896 351.078 249.321 350.976C245.828 350.063 242.126 350.39 238.846 351.9Z" fill="#455A64"/>
<path d="M288.406 329.443C288.282 329.427 288.163 329.385 288.057 329.32C287.954 329.32 287.893 329.176 287.893 329.094L287.77 326.219C287.77 326.219 287.77 326.075 287.77 326.013C287.77 325.952 287.77 325.89 287.893 325.849L288.776 325.335C288.884 325.31 288.997 325.31 289.105 325.335C289.235 325.352 289.361 325.393 289.474 325.459L299.128 331.025C299.212 331.07 299.277 331.143 299.313 331.23C299.313 331.23 299.313 331.374 299.21 331.436L298.307 331.949C298.2 331.984 298.085 331.984 297.978 331.949C297.846 331.939 297.719 331.897 297.608 331.826L290.234 327.574V329.443C290.235 329.486 290.222 329.528 290.195 329.562C290.169 329.595 290.132 329.619 290.091 329.628C289.976 329.661 289.856 329.661 289.741 329.628L288.406 329.443Z" fill="#455A64"/>
<path d="M294.079 326.185C293.95 326.176 293.828 326.126 293.73 326.041C293.688 326.022 293.651 325.994 293.623 325.958C293.594 325.923 293.575 325.881 293.566 325.836L293.442 322.94C293.433 322.871 293.433 322.802 293.442 322.734C293.444 322.698 293.457 322.663 293.479 322.633C293.501 322.604 293.531 322.582 293.566 322.57L294.428 322.077C294.542 322.042 294.664 322.042 294.777 322.077C294.909 322.087 295.036 322.129 295.147 322.2L304.78 327.766C304.904 327.766 304.965 327.89 304.986 327.972C305.006 328.054 304.986 328.116 304.883 328.177L303.979 328.691C303.871 328.716 303.759 328.716 303.651 328.691C303.521 328.675 303.395 328.633 303.281 328.568L295.907 324.316V326.185C295.908 326.228 295.894 326.269 295.868 326.303C295.842 326.337 295.805 326.36 295.763 326.37C295.648 326.392 295.529 326.392 295.414 326.37L294.079 326.185Z" fill="#455A64"/>
<path d="M301.1 321.647C301.207 321.612 301.322 321.612 301.429 321.647C301.55 321.615 301.678 321.615 301.799 321.647L303.257 322.489C303.306 322.509 303.35 322.539 303.386 322.578C303.421 322.618 303.448 322.664 303.463 322.715C303.47 322.753 303.464 322.792 303.445 322.826C303.426 322.86 303.396 322.886 303.36 322.9L302.333 323.496C302.221 323.54 302.096 323.54 301.984 323.496C301.861 323.517 301.736 323.517 301.614 323.496L300.156 322.633C300.068 322.587 299.996 322.515 299.95 322.428C299.946 322.39 299.954 322.352 299.972 322.319C299.991 322.286 300.019 322.259 300.053 322.243L301.1 321.647ZM306.318 324.666C306.425 324.633 306.539 324.633 306.646 324.666C306.783 324.668 306.917 324.704 307.036 324.769L308.495 325.611C308.583 325.66 308.65 325.741 308.68 325.837C308.701 325.863 308.713 325.896 308.713 325.93C308.713 325.963 308.701 325.996 308.68 326.022L307.632 326.618C307.525 326.652 307.41 326.652 307.303 326.618C307.173 326.602 307.048 326.56 306.934 326.494L305.455 325.652C305.412 325.632 305.373 325.604 305.341 325.569C305.309 325.533 305.285 325.492 305.27 325.447C305.27 325.447 305.27 325.303 305.27 325.242L306.318 324.666Z" fill="#455A64"/>
<path d="M314.58 322.524C314.473 322.559 314.358 322.559 314.251 322.524C314.121 322.524 313.993 322.489 313.881 322.422L312.074 321.374L308.582 323.428C308.475 323.463 308.36 323.463 308.253 323.428C308.123 323.426 307.996 323.391 307.884 323.325L306.836 322.709C306.718 322.648 306.613 322.564 306.528 322.463L306.364 322.175L304.104 316.896C304.002 316.67 304.104 316.506 304.104 316.424L304.946 315.931C305.052 315.888 305.17 315.888 305.275 315.931C305.404 315.941 305.529 315.976 305.645 316.034L311.622 319.484L312.587 318.93C312.694 318.897 312.809 318.897 312.916 318.93C313.046 318.93 313.174 318.965 313.286 319.032L314.354 319.649C314.354 319.649 314.539 319.772 314.559 319.854C314.58 319.936 314.559 319.998 314.456 320.059L313.491 320.614L315.299 321.662C315.299 321.662 315.483 321.785 315.504 321.867C315.511 321.905 315.505 321.944 315.486 321.978C315.468 322.012 315.437 322.038 315.401 322.052L314.58 322.524ZM310.205 320.347L307 318.498L308.274 321.456L310.205 320.347Z" fill="#455A64"/>
<path d="M309.033 314.13C308.984 314.11 308.94 314.08 308.904 314.041C308.868 314.001 308.842 313.955 308.827 313.904C308.82 313.866 308.826 313.827 308.845 313.793C308.864 313.759 308.894 313.733 308.93 313.719L313.141 311.295C313.247 311.261 313.362 311.261 313.469 311.295C313.601 311.302 313.729 311.344 313.839 311.419L314.907 312.014C314.996 312.063 315.062 312.144 315.092 312.24C315.114 312.266 315.126 312.299 315.126 312.333C315.126 312.366 315.114 312.399 315.092 312.425L311.929 314.253L313.736 315.424C313.825 315.242 313.96 315.086 314.127 314.972C314.276 314.857 314.434 314.754 314.599 314.664C315.023 314.407 315.489 314.227 315.975 314.13C316.499 314.002 317.038 313.947 317.577 313.966C318.147 313.986 318.713 314.075 319.262 314.233C319.855 314.407 320.427 314.648 320.966 314.952C321.493 315.238 321.971 315.606 322.384 316.04C322.638 316.323 322.809 316.672 322.877 317.047C322.895 317.376 322.785 317.7 322.568 317.95C322.313 318.267 321.999 318.532 321.644 318.731C321.152 319.022 320.619 319.236 320.063 319.368C319.551 319.487 319.026 319.535 318.502 319.511C318.001 319.5 317.504 319.424 317.023 319.285C316.56 319.164 316.112 318.992 315.688 318.772C315.638 318.752 315.594 318.722 315.559 318.683C315.523 318.644 315.497 318.597 315.482 318.546C315.466 318.518 315.457 318.486 315.457 318.454C315.457 318.421 315.466 318.389 315.482 318.361L316.406 317.827C316.501 317.801 316.6 317.801 316.694 317.827H317.084C317.324 317.938 317.581 318.007 317.844 318.033C318.069 318.064 318.297 318.064 318.522 318.033C318.734 318.017 318.942 317.968 319.138 317.889C319.323 317.889 319.487 317.724 319.672 317.642C319.857 317.56 320.289 317.108 320.227 316.78C320.165 316.451 319.898 316.122 319.364 315.814C318.9 315.551 318.377 315.41 317.844 315.403C317.326 315.366 316.807 315.472 316.345 315.712C316.178 315.805 316.025 315.922 315.893 316.061C315.82 316.145 315.764 316.242 315.729 316.348V316.554C315.687 316.64 315.613 316.706 315.523 316.739L314.496 317.334C314.444 317.357 314.389 317.368 314.332 317.368C314.275 317.368 314.219 317.357 314.168 317.334C314.037 317.334 313.91 317.299 313.798 317.231L309.033 314.13Z" fill="#455A64"/>
<path d="M192.592 392.833L189.49 391.046L192.592 389.238L195.714 391.046L192.592 392.833Z" fill="#455A64"/>
<path d="M197.27 390.14L191.047 386.546L194.148 384.738L200.372 388.333L197.27 390.14Z" fill="#455A64"/>
<path d="M201.936 387.451L192.611 382.049L195.713 380.262L205.059 385.643L201.936 387.451Z" fill="#455A64"/>
<path d="M206.6 384.746L194.152 377.557L197.274 375.77L209.722 382.959L206.6 384.746Z" fill="#455A64"/>
<path d="M415.096 252.709C414.412 252.549 413.696 252.599 413.042 252.852L401.396 259.548C400.636 260 401.088 260.945 402.423 261.705L408.092 264.971C408.885 265.427 409.755 265.733 410.659 265.875C411.015 265.903 411.372 265.903 411.727 265.875C412.068 265.868 412.403 265.791 412.713 265.649L424.359 258.953C425.099 258.501 424.647 257.556 423.312 256.899L417.663 253.633C416.868 253.176 415.999 252.864 415.096 252.709ZM410.413 265.443C410.02 265.369 409.644 265.223 409.304 265.012L403.634 261.746C402.649 261.171 402.279 260.432 402.833 260.103L414.5 253.407C414.65 253.321 414.82 253.278 414.993 253.284H415.342C415.734 253.362 416.11 253.508 416.451 253.715L422.1 256.981C423.086 257.536 423.456 258.296 422.901 258.624L411.255 265.32C410.998 265.46 410.699 265.504 410.413 265.443Z" fill="#455A64"/>
<path d="M406.044 259.285L412.74 263.147L410.892 264.194C410.783 264.246 410.663 264.272 410.543 264.272C410.422 264.272 410.303 264.246 410.193 264.194L405.223 261.339C404.504 260.928 404.216 260.374 404.607 260.127L406.044 259.285Z" fill="#455A64"/>
<path d="M406.902 258.848L409.08 257.574L415.776 261.436L413.578 262.689L406.902 258.848Z" fill="#455A64"/>
<path d="M409.941 257.109L412.119 255.836L418.815 259.718L416.637 260.971L409.941 257.109Z" fill="#455A64"/>
<path d="M415.596 254.359L420.423 257.234C421.306 257.748 421.306 258.385 420.423 258.898L419.704 259.329L413.008 255.468L414.733 254.461C414.998 254.32 415.306 254.283 415.596 254.359Z" fill="#455A64"/>
<path d="M418.142 253.383C418.45 253.178 419.641 253.568 420.812 254.246L421.859 254.862C423.03 255.519 423.728 256.238 423.42 256.443L422.886 256.813L417.566 253.712L418.142 253.383Z" fill="#455A64"/>
<path d="M386.162 272.699L394.44 264.422L401.937 272.782L394.173 270.194L386.162 272.699Z" fill="#455A64"/>
<path d="M657.818 628.079C655.405 628.115 653.023 627.535 650.896 626.395L643.81 622.287C642.85 621.913 642.026 621.258 641.445 620.408C640.864 619.557 640.553 618.552 640.553 617.522C640.553 616.492 640.864 615.486 641.445 614.636C642.026 613.785 642.85 613.13 643.81 612.756L802.194 521.045C804.342 519.942 806.722 519.367 809.136 519.367C811.551 519.367 813.931 519.942 816.079 521.045L823.145 525.153C824.104 525.527 824.929 526.182 825.51 527.033C826.091 527.883 826.402 528.889 826.402 529.919C826.402 530.949 826.091 531.954 825.51 532.805C824.929 533.655 824.104 534.31 823.145 534.684L664.843 626.395C662.683 627.545 660.265 628.125 657.818 628.079ZM809.136 522.031C807.179 521.983 805.242 522.436 803.508 523.346L645.124 615.057C644.614 615.271 644.167 615.611 643.826 616.046C643.484 616.481 643.26 616.996 643.173 617.542C643.173 618.405 643.892 619.309 645.124 620.028L652.211 624.136C653.955 625.007 655.878 625.461 657.828 625.461C659.778 625.461 661.702 625.007 663.446 624.136L821.83 532.466C822.34 532.252 822.787 531.911 823.129 531.476C823.47 531.041 823.695 530.526 823.781 529.98C823.781 529.118 823.062 528.214 821.83 527.495L814.764 523.387C813.034 522.465 811.097 521.999 809.136 522.031Z" fill="#E0E0E0"/>
<path d="M836.005 521.58L822.654 513.877C820.929 512.871 821.196 511.597 824.955 511.022L846.892 507.428C849.89 506.832 851.431 507.674 850.24 509.482L840.339 521.333C839.754 521.864 839.005 522.179 838.216 522.223C837.427 522.268 836.647 522.041 836.005 521.58Z" fill="#26256B"/>
<path d="M637.898 640.051L629.189 635.018L637.898 630.007C638.2 629.832 638.421 629.545 638.512 629.208C638.602 628.871 638.555 628.512 638.381 628.209C638.206 627.907 637.919 627.686 637.582 627.596C637.245 627.505 636.886 627.552 636.584 627.727L626.581 633.498L616.557 627.727C616.257 627.554 615.901 627.507 615.566 627.596C615.232 627.684 614.946 627.901 614.77 628.199C614.597 628.502 614.549 628.861 614.637 629.199C614.726 629.537 614.943 629.827 615.242 630.007L623.951 635.018L615.242 640.051C615.093 640.136 614.962 640.25 614.857 640.386C614.752 640.523 614.675 640.679 614.631 640.845C614.587 641.011 614.577 641.185 614.6 641.355C614.624 641.526 614.682 641.69 614.77 641.838C614.886 642.035 615.051 642.199 615.249 642.314C615.447 642.429 615.671 642.491 615.9 642.495C616.132 642.494 616.359 642.43 616.557 642.31L626.581 636.538L636.584 642.31C636.782 642.43 637.009 642.494 637.241 642.495C637.47 642.496 637.696 642.435 637.895 642.319C638.093 642.204 638.257 642.038 638.37 641.838C638.459 641.69 638.516 641.526 638.54 641.355C638.564 641.185 638.554 641.011 638.51 640.845C638.466 640.679 638.389 640.523 638.284 640.386C638.179 640.25 638.048 640.136 637.898 640.051Z" fill="#E0E0E0"/>
<path d="M452.916 351.877L354.324 408.794C352.64 409.759 352.27 411.156 353.667 411.916C354.539 412.273 355.481 412.425 356.421 412.361C357.361 412.297 358.274 412.018 359.09 411.546L457.682 354.63C459.366 353.664 459.736 352.267 458.36 351.507C457.485 351.147 456.539 350.993 455.595 351.057C454.651 351.121 453.734 351.402 452.916 351.877Z" fill="#E6E6E6"/>
<path d="M466.345 516.264C461.919 514.026 457.029 512.859 452.07 512.859C447.11 512.859 442.22 514.026 437.794 516.264C429.907 520.824 429.907 528.197 437.794 532.696C442.217 534.944 447.108 536.115 452.07 536.115C457.031 536.115 461.922 534.944 466.345 532.696C474.212 528.197 474.212 520.824 466.345 516.264Z" fill="#F5F5F5"/>
<path d="M499.64 502.537L531.621 521.023C533.507 521.984 535.594 522.486 537.711 522.486C539.828 522.486 541.915 521.984 543.801 521.023L655.354 456.61C658.723 454.679 658.723 451.536 655.354 449.585L619.943 429.045C618.054 428.093 615.968 427.598 613.853 427.598C611.738 427.598 609.652 428.093 607.763 429.045L471.09 508.021L499.64 502.537Z" fill="#FAFAFA"/>
<path d="M613.104 439.732L514.512 496.648C512.828 497.614 512.458 499.01 513.855 499.77C514.726 500.134 515.671 500.288 516.612 500.22C517.554 500.152 518.467 499.865 519.277 499.38L617.869 442.484C619.554 441.519 619.923 440.102 618.527 439.342C617.653 438.988 616.71 438.839 615.77 438.907C614.83 438.974 613.918 439.257 613.104 439.732Z" fill="#E6E6E6"/>
<path d="M622.637 445.252L524.045 502.169C522.381 503.134 521.991 504.531 523.387 505.291C524.259 505.654 525.203 505.808 526.145 505.74C527.087 505.672 528 505.385 528.81 504.9L627.402 448.005C629.086 447.039 629.456 445.622 628.08 444.882C627.205 444.522 626.259 444.368 625.315 444.432C624.371 444.496 623.455 444.777 622.637 445.252Z" fill="#E6E6E6"/>
<path d="M632.165 450.781L533.573 507.698C531.888 508.663 531.519 510.06 532.895 510.82C533.766 511.183 534.711 511.337 535.653 511.269C536.594 511.202 537.507 510.914 538.317 510.43L636.909 453.534C638.594 452.568 638.963 451.151 637.567 450.412C636.698 450.058 635.759 449.907 634.823 449.971C633.887 450.035 632.978 450.313 632.165 450.781Z" fill="#E6E6E6"/>
<path d="M739.183 435.803C734.757 433.565 729.867 432.398 724.908 432.398C719.948 432.398 715.058 433.565 710.633 435.803C702.766 440.363 702.766 447.737 710.633 452.235C715.058 454.473 719.948 455.639 724.908 455.639C729.867 455.639 734.757 454.473 739.183 452.235C747.009 447.737 747.009 440.363 739.183 435.803Z" fill="#F5F5F5"/>
<path d="M588.206 517.466C584.858 519.417 584.858 522.56 588.206 524.491L614.272 539.423C616.161 540.375 618.246 540.871 620.362 540.871C622.477 540.871 624.563 540.375 626.452 539.423L709.475 491.483C712.843 489.552 712.843 486.409 709.475 484.458L686.881 471.518L696.411 455.086L588.206 517.466Z" fill="#FAFAFA"/>
<path d="M672.67 477.008L601.17 518.088C599.486 519.074 599.116 520.471 600.493 521.231C601.366 521.585 602.309 521.733 603.249 521.666C604.189 521.598 605.101 521.316 605.915 520.84L677.394 479.575C679.078 478.61 679.448 477.213 678.052 476.453C677.173 476.121 676.229 475.998 675.295 476.094C674.361 476.191 673.462 476.503 672.67 477.008Z" fill="#E6E6E6"/>
<path d="M682.224 482.453L610.744 523.717C609.06 524.683 608.69 526.08 610.087 526.84C610.961 527.193 611.904 527.342 612.844 527.275C613.784 527.207 614.696 526.925 615.51 526.449L686.968 485.225C688.653 484.26 689.022 482.863 687.646 482.103C686.778 481.734 685.835 481.573 684.893 481.634C683.952 481.694 683.037 481.975 682.224 482.453Z" fill="#E6E6E6"/>
<path d="M691.749 487.973L620.269 529.237C618.606 530.203 618.215 531.6 619.612 532.36C620.486 532.714 621.429 532.862 622.369 532.795C623.309 532.727 624.221 532.445 625.035 531.969L696.514 490.704C698.198 489.739 698.568 488.342 697.171 487.582C696.3 487.219 695.355 487.065 694.413 487.133C693.472 487.201 692.559 487.488 691.749 487.973Z" fill="#E6E6E6"/>
<path d="M797.222 469.877C792.796 467.639 787.906 466.473 782.947 466.473C777.987 466.473 773.097 467.639 768.671 469.877C760.784 474.437 760.784 481.811 768.671 486.309C773.097 488.547 777.987 489.713 782.947 489.713C787.906 489.713 792.796 488.547 797.222 486.309C805.089 481.811 805.089 474.437 797.222 469.877Z" fill="#F5F5F5"/>
<path d="M689.062 526.834C685.714 528.765 685.714 531.928 689.062 533.859L701.94 541.233C703.826 542.184 705.908 542.68 708.02 542.68C710.132 542.68 712.215 542.184 714.1 541.233L754.317 518.084C757.686 516.154 757.686 513.011 754.317 511.06L744.951 505.596L754.461 489.164L689.062 526.834Z" fill="#FAFAFA"/>
<path d="M713.219 527.412C711.944 526.774 710.537 526.441 709.111 526.441C707.685 526.441 706.278 526.774 705.003 527.412C704.503 527.581 704.068 527.903 703.76 528.332C703.453 528.761 703.287 529.276 703.287 529.805C703.287 530.333 703.453 530.848 703.76 531.277C704.068 531.706 704.503 532.028 705.003 532.197C706.278 532.836 707.685 533.168 709.111 533.168C710.537 533.168 711.944 532.836 713.219 532.197C713.719 532.028 714.154 531.706 714.462 531.277C714.77 530.848 714.935 530.333 714.935 529.805C714.935 529.276 714.77 528.761 714.462 528.332C714.154 527.903 713.719 527.581 713.219 527.412Z" fill="#E6E6E6"/>
<path d="M726.592 519.735C725.32 519.088 723.912 518.75 722.484 518.75C721.056 518.75 719.649 519.088 718.376 519.735C717.873 519.899 717.435 520.218 717.125 520.646C716.814 521.074 716.646 521.589 716.646 522.118C716.646 522.647 716.814 523.162 717.125 523.59C717.435 524.018 717.873 524.337 718.376 524.5C719.652 525.138 721.058 525.471 722.484 525.471C723.91 525.471 725.317 525.138 726.592 524.5C727.095 524.337 727.533 524.018 727.844 523.59C728.155 523.162 728.322 522.647 728.322 522.118C728.322 521.589 728.155 521.074 727.844 520.646C727.533 520.218 727.095 519.899 726.592 519.735Z" fill="#E6E6E6"/>
<path d="M739.942 512.028C738.668 511.386 737.261 511.051 735.834 511.051C734.407 511.051 733 511.386 731.726 512.028C731.223 512.192 730.785 512.511 730.474 512.939C730.163 513.367 729.996 513.882 729.996 514.411C729.996 514.94 730.163 515.455 730.474 515.883C730.785 516.311 731.223 516.63 731.726 516.794C732.998 517.441 734.406 517.779 735.834 517.779C737.262 517.779 738.669 517.441 739.942 516.794C740.445 516.63 740.883 516.311 741.193 515.883C741.504 515.455 741.671 514.94 741.671 514.411C741.671 513.882 741.504 513.367 741.193 512.939C740.883 512.511 740.445 512.192 739.942 512.028Z" fill="#E6E6E6"/>
<path d="M366.214 458.525C361.792 456.277 356.9 455.105 351.939 455.105C346.978 455.105 342.087 456.277 337.664 458.525C329.797 463.064 329.797 470.459 337.664 474.957C342.083 477.204 346.971 478.376 351.929 478.376C356.887 478.376 361.775 477.204 366.194 474.957C374.102 470.397 374.102 463.003 366.214 458.525Z" fill="#F5F5F5"/>
<path d="M399.513 444.718L412.453 452.194C414.339 453.155 416.426 453.656 418.543 453.656C420.66 453.656 422.747 453.155 424.633 452.194L479.043 420.768C482.412 418.837 482.412 415.695 479.043 413.743L462.611 404.295C460.726 403.343 458.643 402.848 456.532 402.848C454.42 402.848 452.337 403.343 450.452 404.295L370.982 450.304L399.513 444.718Z" fill="#FAFAFA"/>
<path d="M454.395 410.087L406.701 437.631C405.017 438.597 404.647 439.993 406.044 440.753C406.916 441.117 407.86 441.271 408.802 441.203C409.744 441.135 410.656 440.848 411.467 440.363L459.14 412.84C460.824 411.874 461.194 410.457 459.818 409.717C458.946 409.36 458.004 409.208 457.064 409.272C456.124 409.336 455.211 409.615 454.395 410.087Z" fill="#E6E6E6"/>
<path d="M463.921 415.614L416.309 443.158C414.625 444.123 414.255 445.52 415.631 446.28C416.503 446.643 417.447 446.797 418.389 446.729C419.331 446.662 420.243 446.374 421.054 445.89L468.748 418.366C470.432 417.401 470.802 415.983 469.405 415.244C468.525 414.877 467.571 414.719 466.619 414.783C465.668 414.848 464.744 415.132 463.921 415.614Z" fill="#E6E6E6"/>
<path d="M416.315 487.275C411.895 485.027 407.008 483.855 402.05 483.855C397.092 483.855 392.204 485.027 387.785 487.275C379.897 491.834 379.897 499.208 387.785 503.707C392.204 505.954 397.092 507.126 402.05 507.126C407.008 507.126 411.895 505.954 416.315 503.707C424.161 499.29 424.161 491.917 416.315 487.275Z" fill="#F5F5F5"/>
<path d="M449.569 473.637L462.509 481.093C464.396 482.054 466.482 482.555 468.599 482.555C470.716 482.555 472.803 482.054 474.69 481.093L529.1 449.666C532.469 447.736 532.469 444.593 529.1 442.642L512.668 433.193C510.783 432.242 508.7 431.746 506.588 431.746C504.476 431.746 502.394 432.242 500.508 433.193L421.039 479.059L449.569 473.637Z" fill="#FAFAFA"/>
<path d="M504.448 438.986L456.754 466.53C455.09 467.495 454.7 468.892 456.096 469.652C456.968 470.009 457.911 470.161 458.851 470.097C459.791 470.033 460.704 469.754 461.519 469.282L509.213 441.738C510.877 440.773 511.267 439.376 509.87 438.616C508.998 438.259 508.056 438.106 507.116 438.171C506.176 438.235 505.263 438.513 504.448 438.986Z" fill="#E6E6E6"/>
<path d="M513.976 444.517L466.303 472.061C464.619 473.026 464.249 474.423 465.625 475.183C466.497 475.54 467.44 475.692 468.38 475.628C469.32 475.564 470.232 475.285 471.048 474.813L518.742 447.269C520.426 446.304 520.796 444.907 519.399 444.147C518.527 443.79 517.585 443.638 516.645 443.702C515.705 443.766 514.792 444.045 513.976 444.517Z" fill="#E6E6E6"/>
<path d="M261.972 191.346L259.178 189.744C258.884 189.549 258.64 189.287 258.465 188.981C258.29 188.674 258.19 188.33 258.172 187.978V133.958C258.19 133.605 258.29 133.262 258.465 132.955C258.64 132.648 258.884 132.387 259.178 132.191L334.355 88.7286C334.672 88.563 335.024 88.4766 335.382 88.4766C335.739 88.4766 336.092 88.563 336.409 88.7286L339.182 90.3307C339.48 90.5238 339.728 90.7843 339.906 91.0912C340.085 91.3981 340.188 91.7428 340.209 92.0972V146.117C340.193 146.473 340.092 146.82 339.913 147.127C339.734 147.435 339.483 147.695 339.182 147.884L264.026 191.346C263.709 191.512 263.356 191.599 262.999 191.599C262.641 191.599 262.289 191.512 261.972 191.346Z" fill="#26256B"/>
<g opacity="0.4">
<path d="M261.972 191.346L259.178 189.744C258.884 189.549 258.64 189.287 258.465 188.981C258.29 188.674 258.19 188.33 258.172 187.978V133.958C258.19 133.605 258.29 133.262 258.465 132.955C258.64 132.648 258.884 132.387 259.178 132.191L334.355 88.7286C334.672 88.563 335.024 88.4766 335.382 88.4766C335.739 88.4766 336.092 88.563 336.409 88.7286L339.182 90.3307C339.48 90.5238 339.728 90.7843 339.906 91.0912C340.085 91.3981 340.188 91.7428 340.209 92.0972V146.117C340.193 146.473 340.092 146.82 339.913 147.127C339.734 147.435 339.483 147.695 339.182 147.884L264.026 191.346C263.709 191.512 263.356 191.599 262.999 191.599C262.641 191.599 262.289 191.512 261.972 191.346Z" fill="white"/>
</g>
<path d="M264.006 134.964L339.161 91.5837C339.736 91.255 340.188 91.5837 340.188 92.1588V146.179C340.173 146.535 340.072 146.881 339.893 147.189C339.714 147.497 339.463 147.756 339.161 147.945L264.006 191.408C263.451 191.737 262.979 191.408 262.979 190.812V136.772C262.997 136.411 263.1 136.06 263.278 135.747C263.457 135.433 263.706 135.165 264.006 134.964Z" fill="#26256B"/>
<path d="M263.779 191.447C263.484 191.559 263.169 191.607 262.854 191.589C262.54 191.572 262.232 191.488 261.951 191.344L259.199 189.742C258.901 189.549 258.653 189.289 258.474 188.982C258.296 188.675 258.192 188.33 258.172 187.976V133.956C258.179 133.601 258.278 133.254 258.459 132.949L263.286 135.722C263.104 136.028 262.998 136.373 262.978 136.729V190.749C262.978 191.303 263.307 191.591 263.779 191.447Z" fill="#26256B"/>
<g opacity="0.15">
<path d="M263.779 191.451C263.484 191.562 263.169 191.611 262.854 191.593C262.54 191.575 262.232 191.492 261.951 191.348L259.199 189.746C258.901 189.553 258.653 189.293 258.474 188.986C258.296 188.679 258.192 188.334 258.172 187.98V133.96C258.179 133.605 258.278 133.258 258.459 132.953L263.286 135.726C263.104 136.032 262.998 136.377 262.978 136.732V190.753C262.978 191.307 263.307 191.595 263.779 191.451Z" fill="black"/>
</g>
<path d="M274.008 144.764L329.157 112.866C330.102 112.311 330.862 112.702 330.862 113.729C330.818 114.301 330.64 114.855 330.345 115.347C330.049 115.839 329.642 116.255 329.157 116.563L274.008 148.462C273.063 149.016 272.303 148.626 272.303 147.599C272.347 147.027 272.525 146.472 272.82 145.98C273.116 145.488 273.523 145.072 274.008 144.764Z" fill="#F5F5F5"/>
<path d="M274.008 156.742L329.157 124.823C330.102 124.268 330.862 124.659 330.862 125.686C330.827 126.266 330.654 126.829 330.358 127.33C330.061 127.83 329.65 128.252 329.157 128.561L274.008 160.419C273.063 160.973 272.303 160.583 272.303 159.556C272.344 158.986 272.52 158.433 272.816 157.944C273.113 157.455 273.521 157.043 274.008 156.742Z" fill="#F5F5F5"/>
<path d="M320.125 157.523L321.254 166.992C321.279 167.208 321.244 167.426 321.152 167.622C321.061 167.819 320.916 167.986 320.735 168.105C320.554 168.224 320.344 168.291 320.127 168.298C319.911 168.304 319.696 168.251 319.508 168.143L310.471 162.967L320.125 157.523Z" fill="#26256B"/>
<path d="M323.495 139.712C323.355 139.646 323.204 139.609 323.049 139.603C322.894 139.596 322.74 139.62 322.595 139.674C322.45 139.727 322.317 139.809 322.203 139.914C322.09 140.019 321.999 140.146 321.934 140.287L317.149 150.742L316.122 149.674C315.896 149.487 315.609 149.389 315.317 149.4C315.024 149.411 314.745 149.53 314.535 149.733C314.324 149.936 314.195 150.21 314.173 150.502C314.151 150.795 314.238 151.084 314.417 151.317L316.635 153.617C316.855 153.836 317.147 153.968 317.457 153.987H317.683C317.875 153.958 318.057 153.881 318.212 153.762C318.366 153.643 318.488 153.488 318.566 153.309L324.071 141.293C324.142 141.153 324.184 140.999 324.194 140.841C324.204 140.684 324.181 140.526 324.127 140.377C324.073 140.229 323.989 140.093 323.88 139.979C323.772 139.864 323.641 139.773 323.495 139.712Z" fill="#455A64"/>
<path d="M333.66 134.225C333.377 134.098 333.054 134.087 332.763 134.195C332.471 134.302 332.233 134.519 332.099 134.8L327.314 145.255L326.287 144.186C326.061 143.968 325.759 143.846 325.444 143.846C325.13 143.846 324.828 143.968 324.602 144.186C324.385 144.409 324.264 144.708 324.264 145.018C324.264 145.329 324.385 145.628 324.602 145.85L326.821 148.171C327.041 148.386 327.334 148.511 327.642 148.52H327.868C328.058 148.492 328.238 148.417 328.392 148.302C328.546 148.187 328.669 148.037 328.751 147.863L334.256 135.827C334.331 135.684 334.374 135.527 334.385 135.366C334.395 135.205 334.371 135.044 334.315 134.893C334.259 134.742 334.171 134.604 334.059 134.489C333.946 134.374 333.81 134.284 333.66 134.225Z" fill="#455A64"/>
<path d="M804.376 223.37L801.583 221.747C801.286 221.554 801.04 221.293 800.865 220.986C800.69 220.679 800.591 220.334 800.576 219.981V165.961C800.597 165.609 800.699 165.266 800.874 164.96C801.048 164.654 801.291 164.392 801.583 164.194L876.759 120.752C877.076 120.586 877.428 120.5 877.786 120.5C878.144 120.5 878.496 120.586 878.813 120.752L881.586 122.354C881.887 122.543 882.138 122.803 882.317 123.111C882.496 123.418 882.598 123.765 882.613 124.121V178.141C882.593 178.495 882.489 178.84 882.31 179.147C882.132 179.454 881.884 179.714 881.586 179.907L806.43 223.37C806.11 223.525 805.759 223.605 805.403 223.605C805.047 223.605 804.696 223.525 804.376 223.37Z" fill="#26256B"/>
<g opacity="0.4">
<path d="M804.376 223.37L801.583 221.747C801.286 221.554 801.04 221.293 800.865 220.986C800.69 220.679 800.591 220.334 800.576 219.981V165.961C800.597 165.609 800.699 165.266 800.874 164.96C801.048 164.654 801.291 164.392 801.583 164.194L876.759 120.752C877.076 120.586 877.428 120.5 877.786 120.5C878.144 120.5 878.496 120.586 878.813 120.752L881.586 122.354C881.887 122.543 882.138 122.803 882.317 123.111C882.496 123.418 882.598 123.765 882.613 124.121V178.141C882.593 178.495 882.489 178.84 882.31 179.147C882.132 179.454 881.884 179.714 881.586 179.907L806.43 223.37C806.11 223.525 805.759 223.605 805.403 223.605C805.047 223.605 804.696 223.525 804.376 223.37Z" fill="white"/>
</g>
<path d="M806.41 166.991L881.566 123.529C882.141 123.2 882.593 123.529 882.593 124.124V178.144C882.572 178.499 882.469 178.843 882.29 179.15C882.112 179.457 881.864 179.718 881.566 179.911L806.41 223.374C805.855 223.682 805.383 223.374 805.383 222.778V168.758C805.405 168.404 805.509 168.06 805.687 167.753C805.866 167.446 806.113 167.185 806.41 166.991Z" fill="#26256B"/>
<path d="M820.066 212.592V222.061C820.069 222.386 820.175 222.702 820.368 222.964C820.561 223.225 820.832 223.419 821.142 223.517C821.452 223.615 821.786 223.612 822.094 223.51C822.403 223.407 822.671 223.209 822.86 222.944L836.683 203L820.066 212.592Z" fill="#26256B"/>
<path d="M806.184 223.479C805.887 223.588 805.571 223.633 805.256 223.611C804.942 223.59 804.635 223.503 804.356 223.356L801.603 221.775C801.303 221.58 801.053 221.316 800.874 221.005C800.695 220.694 800.593 220.346 800.576 219.988V165.988C800.585 165.627 800.683 165.274 800.864 164.961L805.691 167.754C805.502 168.057 805.396 168.404 805.383 168.761V222.781C805.383 223.336 805.691 223.603 806.184 223.479Z" fill="#26256B"/>
<g opacity="0.15">
<path d="M806.184 223.475C805.887 223.584 805.571 223.629 805.256 223.607C804.942 223.586 804.635 223.499 804.356 223.352L801.603 221.771C801.303 221.576 801.053 221.312 800.874 221.001C800.695 220.69 800.593 220.342 800.576 219.984V165.984C800.585 165.623 800.683 165.27 800.864 164.957L805.691 167.75C805.502 168.054 805.396 168.4 805.383 168.757V222.777C805.383 223.332 805.691 223.599 806.184 223.475Z" fill="black"/>
</g>
<path d="M816.412 176.784L871.582 144.864C872.527 144.33 873.287 144.721 873.287 145.727C873.247 146.301 873.072 146.857 872.776 147.349C872.479 147.842 872.07 148.258 871.582 148.562L816.412 180.481C815.467 181.015 814.707 180.625 814.707 179.618C814.747 179.044 814.922 178.488 815.218 177.996C815.515 177.503 815.924 177.088 816.412 176.784Z" fill="#F5F5F5"/>
<path d="M816.412 188.741L871.582 156.821C872.527 156.287 873.287 156.678 873.287 157.684C873.247 158.258 873.072 158.814 872.776 159.307C872.479 159.799 872.07 160.215 871.582 160.519L816.412 192.438C815.467 192.972 814.707 192.602 814.707 191.575C814.748 191.002 814.924 190.447 815.221 189.954C815.517 189.462 815.925 189.046 816.412 188.741Z" fill="#F5F5F5"/>
<path d="M865.895 171.69C865.608 171.564 865.284 171.557 864.992 171.668C864.7 171.78 864.464 172.001 864.334 172.285L859.548 182.74L858.5 181.672C858.391 181.562 858.262 181.475 858.119 181.416C857.976 181.356 857.823 181.325 857.668 181.325C857.514 181.325 857.361 181.356 857.218 181.416C857.075 181.475 856.945 181.562 856.837 181.672C856.62 181.895 856.498 182.193 856.498 182.504C856.498 182.815 856.62 183.113 856.837 183.336L859.055 185.657C859.162 185.767 859.289 185.855 859.43 185.915C859.572 185.975 859.723 186.006 859.877 186.006H860.102C860.292 185.969 860.47 185.888 860.623 185.771C860.777 185.653 860.901 185.502 860.986 185.328L866.49 173.292C866.562 173.149 866.603 172.992 866.612 172.832C866.62 172.672 866.596 172.512 866.54 172.362C866.484 172.212 866.398 172.074 866.287 171.959C866.176 171.843 866.043 171.752 865.895 171.69Z" fill="#455A64"/>
<path d="M876.061 166.242C875.921 166.174 875.769 166.134 875.614 166.127C875.458 166.119 875.303 166.142 875.157 166.196C875.011 166.25 874.878 166.332 874.765 166.439C874.652 166.546 874.562 166.675 874.5 166.817L869.714 177.272L868.666 176.204C868.557 176.094 868.428 176.007 868.285 175.947C868.142 175.888 867.989 175.857 867.834 175.857C867.68 175.857 867.527 175.888 867.384 175.947C867.241 176.007 867.111 176.094 867.003 176.204C866.786 176.427 866.664 176.725 866.664 177.036C866.664 177.347 866.786 177.645 867.003 177.868L869.221 180.168C869.441 180.388 869.733 180.519 870.042 180.538H870.268C870.46 180.506 870.64 180.427 870.794 180.309C870.948 180.191 871.071 180.037 871.152 179.86L876.656 167.844C876.731 167.701 876.775 167.545 876.785 167.384C876.795 167.223 876.771 167.062 876.715 166.911C876.659 166.76 876.572 166.622 876.459 166.507C876.346 166.392 876.211 166.302 876.061 166.242Z" fill="#455A64"/>
<path d="M598.972 302.221L596.199 300.618C595.901 300.425 595.653 300.165 595.474 299.858C595.296 299.551 595.192 299.206 595.172 298.852V272.335C595.189 271.98 595.291 271.634 595.47 271.326C595.649 271.019 595.899 270.759 596.199 270.568L649.439 239.758C649.759 239.604 650.11 239.523 650.466 239.523C650.821 239.523 651.172 239.604 651.493 239.758L654.265 241.36C654.566 241.556 654.816 241.819 654.995 242.13C655.173 242.441 655.275 242.789 655.292 243.147V269.726C655.275 270.084 655.173 270.433 654.995 270.744C654.816 271.054 654.566 271.318 654.265 271.513L601.046 302.323C600.717 302.473 600.358 302.542 599.997 302.524C599.636 302.507 599.284 302.402 598.972 302.221Z" fill="#26256B"/>
<g opacity="0.4">
<path d="M598.972 302.221L596.199 300.618C595.901 300.425 595.653 300.165 595.474 299.858C595.296 299.551 595.192 299.206 595.172 298.852V272.335C595.189 271.98 595.291 271.634 595.47 271.326C595.649 271.019 595.899 270.759 596.199 270.568L649.439 239.758C649.759 239.604 650.11 239.523 650.466 239.523C650.821 239.523 651.172 239.604 651.493 239.758L654.265 241.36C654.566 241.556 654.816 241.819 654.995 242.13C655.173 242.441 655.275 242.789 655.292 243.147V269.726C655.275 270.084 655.173 270.433 654.995 270.744C654.816 271.054 654.566 271.318 654.265 271.513L601.046 302.323C600.717 302.473 600.358 302.542 599.997 302.524C599.636 302.507 599.284 302.402 598.972 302.221Z" fill="white"/>
</g>
<path d="M601.031 273.257L654.25 242.447C654.825 242.118 655.277 242.447 655.277 243.042V269.621C655.26 269.979 655.158 270.328 654.979 270.638C654.801 270.949 654.551 271.213 654.25 271.408L601.031 302.218C600.456 302.547 600.004 302.218 600.004 301.622V275.023C600.024 274.669 600.128 274.324 600.306 274.017C600.485 273.71 600.733 273.45 601.031 273.257Z" fill="#26256B"/>
<path d="M614.664 291.44V300.929C614.657 301.26 614.758 301.584 614.951 301.852C615.144 302.12 615.42 302.318 615.735 302.415C616.051 302.513 616.39 302.505 616.701 302.392C617.012 302.28 617.278 302.069 617.458 301.792L631.281 281.848L614.664 291.44Z" fill="#26256B"/>
<path d="M600.779 302.323C600.494 302.445 600.186 302.508 599.875 302.508C599.565 302.508 599.257 302.445 598.972 302.323L596.199 300.721C595.901 300.528 595.653 300.267 595.474 299.96C595.296 299.653 595.192 299.309 595.172 298.954V272.335C595.178 271.977 595.285 271.628 595.48 271.328L600.286 274.101C600.105 274.406 600.006 274.753 599.999 275.108V301.707C599.999 302.179 600.286 302.467 600.779 302.323Z" fill="#26256B"/>
<g opacity="0.15">
<path d="M600.779 302.323C600.494 302.445 600.186 302.508 599.875 302.508C599.565 302.508 599.257 302.445 598.972 302.323L596.199 300.721C595.901 300.528 595.653 300.267 595.474 299.96C595.296 299.653 595.192 299.309 595.172 298.954V272.335C595.178 271.977 595.285 271.628 595.48 271.328L600.286 274.101C600.105 274.406 600.006 274.753 599.999 275.108V301.707C599.999 302.179 600.286 302.467 600.779 302.323Z" fill="black"/>
</g>
<path d="M614.356 275.977C616.287 274.868 617.827 275.772 617.827 278.031C617.765 279.237 617.419 280.411 616.815 281.457C616.212 282.504 615.369 283.392 614.356 284.049C612.446 285.158 610.885 284.255 610.885 281.995C610.951 280.79 611.3 279.618 611.903 278.573C612.506 277.527 613.346 276.638 614.356 275.977Z" fill="#FAFAFA"/>
<path d="M627.63 268.352C629.561 267.243 631.102 268.147 631.102 270.406C631.04 271.612 630.693 272.786 630.09 273.833C629.486 274.879 628.643 275.767 627.63 276.424C625.72 277.513 624.18 276.63 624.18 274.37C624.242 273.167 624.588 271.995 625.187 270.949C625.786 269.904 626.623 269.014 627.63 268.352Z" fill="#FAFAFA"/>
<path d="M640.913 260.758C642.823 259.649 644.384 260.553 644.384 262.812C644.317 264.017 643.968 265.19 643.365 266.235C642.762 267.28 641.922 268.169 640.913 268.831C638.982 269.94 637.441 269.036 637.441 266.777C637.503 265.57 637.85 264.396 638.453 263.35C639.057 262.304 639.9 261.416 640.913 260.758Z" fill="#FAFAFA"/>
<path d="M570.279 135.865L567.423 134.263C567.123 134.068 566.873 133.804 566.694 133.493C566.516 133.182 566.414 132.834 566.396 132.476V78.476C566.414 78.118 566.516 77.7693 566.694 77.4586C566.873 77.1478 567.123 76.8841 567.423 76.689L642.662 33.2469C642.98 33.0846 643.331 33 643.689 33C644.046 33 644.397 33.0846 644.716 33.2469L647.488 34.849C647.785 35.0433 648.033 35.3041 648.211 35.6107C648.389 35.9174 648.493 36.2614 648.515 36.6155V90.6357C648.493 90.9897 648.389 91.3337 648.211 91.6404C648.033 91.947 647.785 92.2078 647.488 92.4021L572.333 135.865C572.015 136.027 571.663 136.112 571.306 136.112C570.949 136.112 570.597 136.027 570.279 135.865Z" fill="#26256B"/>
<g opacity="0.4">
<path d="M570.279 135.865L567.423 134.263C567.123 134.068 566.873 133.804 566.694 133.493C566.516 133.182 566.414 132.834 566.396 132.476V78.476C566.414 78.118 566.516 77.7693 566.694 77.4586C566.873 77.1478 567.123 76.8841 567.423 76.689L642.662 33.2469C642.98 33.0846 643.331 33 643.689 33C644.046 33 644.397 33.0846 644.716 33.2469L647.488 34.849C647.785 35.0433 648.033 35.3041 648.211 35.6107C648.389 35.9174 648.493 36.2614 648.515 36.6155V90.6357C648.493 90.9897 648.389 91.3337 648.211 91.6404C648.033 91.947 647.785 92.2078 647.488 92.4021L572.333 135.865C572.015 136.027 571.663 136.112 571.306 136.112C570.949 136.112 570.597 136.027 570.279 135.865Z" fill="white"/>
</g>
<path d="M572.334 79.4862L647.531 36.1262C648.085 35.7976 648.558 36.1262 648.558 36.7219V90.7421C648.536 91.0961 648.431 91.4402 648.253 91.7468C648.075 92.0535 647.827 92.3143 647.531 92.5085L572.334 135.868C571.759 136.197 571.307 135.868 571.307 135.273V81.3142C571.314 80.9485 571.411 80.5902 571.591 80.2712C571.77 79.9523 572.025 79.6826 572.334 79.4862Z" fill="#26256B"/>
<path d="M585.91 125.084V134.574C585.911 134.903 586.017 135.223 586.213 135.487C586.409 135.752 586.685 135.946 586.999 136.043C587.314 136.139 587.651 136.132 587.961 136.023C588.272 135.914 588.539 135.709 588.724 135.437L602.548 115.492L585.91 125.084Z" fill="#26256B"/>
<path d="M572.086 135.967C571.8 136.089 571.493 136.152 571.182 136.152C570.872 136.152 570.564 136.089 570.279 135.967L567.423 134.262C567.126 134.069 566.877 133.808 566.699 133.501C566.52 133.194 566.417 132.85 566.396 132.495V78.4752C566.41 78.1187 566.516 77.7718 566.705 77.4688L571.531 80.2416C571.35 80.5467 571.251 80.8934 571.244 81.2481V135.268C571.306 135.823 571.634 136.11 572.086 135.967Z" fill="#26256B"/>
<g opacity="0.15">
<path d="M572.086 135.967C571.8 136.089 571.493 136.152 571.182 136.152C570.872 136.152 570.564 136.089 570.279 135.967L567.423 134.262C567.126 134.069 566.877 133.808 566.699 133.501C566.52 133.194 566.417 132.85 566.396 132.495V78.4752C566.41 78.1187 566.516 77.7718 566.705 77.4688L571.531 80.2416C571.35 80.5467 571.251 80.8934 571.244 81.2481V135.268C571.306 135.823 571.634 136.11 572.086 135.967Z" fill="black"/>
</g>
<path d="M582.318 89.2797L637.488 57.3605C638.433 56.8265 639.193 57.2168 639.193 58.2232C639.154 58.7968 638.978 59.3528 638.682 59.8456C638.386 60.3383 637.977 60.7537 637.488 61.0577L582.318 92.9769C581.373 93.5109 580.613 93.1412 580.613 92.1142C580.655 91.541 580.831 90.9856 581.127 90.4931C581.423 90.0007 581.831 89.5849 582.318 89.2797Z" fill="#F5F5F5"/>
<path d="M582.318 101.237L637.488 69.3385C638.433 68.7839 639.193 69.1742 639.193 70.2012C639.152 70.7716 638.976 71.3242 638.68 71.8133C638.383 72.3025 637.975 72.7144 637.488 73.0151L582.318 104.934C581.373 105.468 580.613 105.099 580.613 104.072C580.655 103.498 580.831 102.943 581.127 102.451C581.423 101.958 581.831 101.542 582.318 101.237Z" fill="#F5F5F5"/>
<path d="M631.815 84.2133C631.529 84.0879 631.205 84.0801 630.913 84.1916C630.621 84.303 630.384 84.5247 630.254 84.8089L625.448 95.2638L624.421 94.1957C624.312 94.0858 624.182 93.9985 624.039 93.939C623.897 93.8794 623.743 93.8488 623.589 93.8488C623.434 93.8488 623.281 93.8794 623.138 93.939C622.995 93.9985 622.866 94.0858 622.757 94.1957C622.534 94.4191 622.408 94.722 622.408 95.0378C622.408 95.3537 622.534 95.6566 622.757 95.88L624.934 98.1394C625.036 98.2508 625.159 98.3395 625.297 98.3997C625.435 98.4598 625.585 98.4901 625.735 98.4886C625.817 98.4989 625.9 98.4989 625.982 98.4886C626.17 98.4546 626.347 98.3751 626.497 98.257C626.648 98.1388 626.767 97.9856 626.844 97.8107L632.37 85.7948C632.499 85.5105 632.513 85.1874 632.41 84.8927C632.306 84.5981 632.093 84.3547 631.815 84.2133Z" fill="#455A64"/>
<path d="M641.985 78.739C641.845 78.6735 641.693 78.6365 641.538 78.6299C641.384 78.6234 641.229 78.6476 641.084 78.7011C640.939 78.7546 640.806 78.8363 640.693 78.9415C640.579 79.0467 640.488 79.1734 640.424 79.3141L635.617 89.769L634.59 88.7009C634.365 88.5139 634.078 88.4166 633.785 88.4276C633.493 88.4385 633.214 88.557 633.003 88.7603C632.792 88.9636 632.664 89.2376 632.642 89.5297C632.62 89.8219 632.707 90.1118 632.885 90.3441L635.207 92.6446C635.415 92.8676 635.703 93.0003 636.008 93.0143H636.254C636.444 92.9839 636.622 92.9058 636.773 92.7872C636.924 92.6686 637.042 92.5135 637.117 92.3365L642.642 80.3206C642.705 80.1739 642.739 80.016 642.74 79.8562C642.741 79.6964 642.71 79.538 642.649 79.3905C642.587 79.2429 642.497 79.1092 642.383 78.9973C642.269 78.8853 642.133 78.7975 641.985 78.739Z" fill="#455A64"/>
</svg>
