<svg width="506" height="351" viewBox="0 0 506 351" fill="none" xmlns="http://www.w3.org/2000/svg">
<path d="M180.264 247.308C172.769 247.308 166.616 241.219 167.275 233.754C167.787 227.959 168.636 222.39 169.824 217.046C171.911 207.655 175.911 198.785 181.824 190.437C188.085 182.089 197.129 174.611 208.955 168.002C213.477 165.22 219.39 162.089 226.694 158.611C234.347 154.785 241.825 150.263 249.129 145.045C256.434 139.828 262.521 133.741 267.39 126.784C272.608 119.828 275.217 112.175 275.217 103.827C275.217 96.1752 273.13 89.7403 268.956 84.5229C265.13 78.9576 260.086 74.7836 253.825 72.001C247.912 68.8705 241.303 67.3053 233.999 67.3053C224.955 67.3053 216.955 69.3922 209.998 73.5662C203.39 77.7402 197.824 82.7837 193.303 88.6969C191.958 90.3516 190.66 91.9911 189.407 93.6151C184.759 99.6432 176.171 101.284 169.932 96.9225L136.5 73.5526C131.28 69.9037 129.213 63.064 132.227 57.4533C137.611 47.429 144.405 38.7129 152.606 31.3048C163.737 21.2177 176.433 13.5654 190.694 8.34796C205.303 2.78265 220.781 0 237.129 0C249.999 0 263.043 1.91307 276.26 5.73922C289.478 9.56536 301.478 15.6524 312.261 24.0003C323.043 32.3483 331.565 43.3049 337.826 56.8703C344.435 70.0879 347.739 85.9142 347.739 104.349C347.739 114.436 346.696 123.654 344.609 132.002C342.87 140.002 339.913 147.48 335.739 154.437C331.565 161.046 326.348 167.307 320.087 173.22C313.826 178.785 306.869 184.176 299.217 189.394C289.478 195.655 279.738 201.394 269.999 206.611C260.26 211.481 252.086 217.046 245.477 223.307C238.868 229.568 235.564 237.568 235.564 247.308H180.264ZM187.893 350.369C176.526 350.369 167.362 341.059 167.54 329.693L167.944 304.017C168.118 292.901 177.18 283.982 188.297 283.982H215.929C227.297 283.982 236.461 293.291 236.282 304.657L235.564 350.369H187.893Z" fill="white"/>
<path d="M180.264 247.308C172.769 247.308 166.616 241.219 167.275 233.754C167.787 227.959 168.636 222.39 169.824 217.046C171.911 207.655 175.911 198.785 181.824 190.437C188.085 182.089 197.129 174.611 208.955 168.002C213.477 165.22 219.39 162.089 226.694 158.611C234.347 154.785 241.825 150.263 249.129 145.045C256.434 139.828 262.521 133.741 267.39 126.784C272.608 119.828 275.217 112.175 275.217 103.827C275.217 96.1752 273.13 89.7403 268.956 84.5229C265.13 78.9576 260.086 74.7836 253.825 72.001C247.912 68.8705 241.303 67.3053 233.999 67.3053C224.955 67.3053 216.955 69.3922 209.998 73.5662C203.39 77.7402 197.824 82.7837 193.303 88.6969C191.958 90.3516 190.66 91.9911 189.407 93.6151C184.759 99.6432 176.171 101.284 169.932 96.9225L136.5 73.5526C131.28 69.9037 129.213 63.064 132.227 57.4533C137.611 47.429 144.405 38.7129 152.606 31.3048C163.737 21.2177 176.433 13.5654 190.694 8.34796C205.303 2.78265 220.781 0 237.129 0C249.999 0 263.043 1.91307 276.26 5.73922C289.478 9.56536 301.478 15.6524 312.261 24.0003C323.043 32.3483 331.565 43.3049 337.826 56.8703C344.435 70.0879 347.739 85.9142 347.739 104.349C347.739 114.436 346.696 123.654 344.609 132.002C342.87 140.002 339.913 147.48 335.739 154.437C331.565 161.046 326.348 167.307 320.087 173.22C313.826 178.785 306.869 184.176 299.217 189.394C289.478 195.655 279.738 201.394 269.999 206.611C260.26 211.481 252.086 217.046 245.477 223.307C238.868 229.568 235.564 237.568 235.564 247.308H180.264ZM187.893 350.369C176.526 350.369 167.362 341.059 167.54 329.693L167.944 304.017C168.118 292.901 177.18 283.982 188.297 283.982H215.929C227.297 283.982 236.461 293.291 236.282 304.657L235.564 350.369H187.893Z" fill="url(#paint0_linear_1168_1009)"/>
<path d="M394.541 202.642C387.401 200.363 383.289 192.608 386.892 186.037C387.151 185.566 387.413 185.101 387.681 184.642C390.095 180.506 393.339 176.908 397.415 173.847C401.656 170.84 407.089 168.667 413.714 167.328C416.285 166.695 419.571 166.108 423.572 165.568C427.79 164.915 432.031 163.907 436.295 162.541C440.558 161.176 444.374 159.214 447.743 156.655C451.277 154.148 453.676 150.916 454.939 146.958C456.097 143.33 456.078 139.962 454.883 136.855C453.905 133.635 452.138 130.89 449.581 128.621C447.243 126.239 444.336 124.494 440.862 123.385C436.561 122.012 432.441 121.787 428.5 122.71C424.726 123.686 421.315 125.233 418.27 127.35C413.653 130.362 407.365 129.603 404.014 125.226L396.885 115.911C393.007 110.843 393.059 103.569 398.109 99.6669C401.059 97.3877 404.223 95.4856 407.6 93.9608C414.42 90.8676 421.616 89.1664 429.188 88.8573C436.978 88.436 444.761 89.4661 452.536 91.9476C458.657 93.9011 464.571 96.7881 470.279 100.609C475.986 104.429 480.772 109.137 484.637 114.731C488.502 120.326 490.897 126.815 491.822 134.197C492.965 141.467 492.142 149.473 489.352 158.214C487.826 162.996 485.935 167.208 483.679 170.85C481.641 174.379 479.103 177.476 476.066 180.141C473.08 182.641 469.651 184.817 465.779 186.671C461.959 188.359 457.835 189.86 453.406 191.172C447.826 192.662 442.326 193.905 436.904 194.9C431.535 195.731 426.805 197.129 422.715 199.095C418.624 201.06 415.842 204.352 414.368 208.969L394.541 202.642ZM382.254 252.563C373.465 249.758 368.676 240.298 371.62 231.554C374.498 223.003 383.705 218.343 392.3 221.086L392.805 221.247C401.881 224.144 406.825 233.912 403.786 242.941L398.772 257.835L382.254 252.563Z" fill="white"/>
<path d="M394.541 202.642C387.401 200.363 383.289 192.608 386.892 186.037C387.151 185.566 387.413 185.101 387.681 184.642C390.095 180.506 393.339 176.908 397.415 173.847C401.656 170.84 407.089 168.667 413.714 167.328C416.285 166.695 419.571 166.108 423.572 165.568C427.79 164.915 432.031 163.907 436.295 162.541C440.558 161.176 444.374 159.214 447.743 156.655C451.277 154.148 453.676 150.916 454.939 146.958C456.097 143.33 456.078 139.962 454.883 136.855C453.905 133.635 452.138 130.89 449.581 128.621C447.243 126.239 444.336 124.494 440.862 123.385C436.561 122.012 432.441 121.787 428.5 122.71C424.726 123.686 421.315 125.233 418.27 127.35C413.653 130.362 407.365 129.603 404.014 125.226L396.885 115.911C393.007 110.843 393.059 103.569 398.109 99.6669C401.059 97.3877 404.223 95.4856 407.6 93.9608C414.42 90.8676 421.616 89.1664 429.188 88.8573C436.978 88.436 444.761 89.4661 452.536 91.9476C458.657 93.9011 464.571 96.7881 470.279 100.609C475.986 104.429 480.772 109.137 484.637 114.731C488.502 120.326 490.897 126.815 491.822 134.197C492.965 141.467 492.142 149.473 489.352 158.214C487.826 162.996 485.935 167.208 483.679 170.85C481.641 174.379 479.103 177.476 476.066 180.141C473.08 182.641 469.651 184.817 465.779 186.671C461.959 188.359 457.835 189.86 453.406 191.172C447.826 192.662 442.326 193.905 436.904 194.9C431.535 195.731 426.805 197.129 422.715 199.095C418.624 201.06 415.842 204.352 414.368 208.969L394.541 202.642ZM382.254 252.563C373.465 249.758 368.676 240.298 371.62 231.554C374.498 223.003 383.705 218.343 392.3 221.086L392.805 221.247C401.881 224.144 406.825 233.912 403.786 242.941L398.772 257.835L382.254 252.563Z" fill="url(#paint1_linear_1168_1009)"/>
<path d="M59.7026 262.832C54.5666 265.086 48.4211 262.767 47.1918 257.295C47.1038 256.903 47.0214 256.512 46.9447 256.122C46.253 252.605 46.294 248.98 47.0675 245.245C47.96 241.458 49.9346 237.549 52.9914 233.52C54.1219 231.892 55.6764 229.936 57.6547 227.653C59.7 225.199 61.5817 222.534 63.2998 219.658C65.0179 216.782 66.1893 213.792 66.814 210.688C67.5578 207.532 67.3049 204.531 66.0555 201.683C64.9101 199.074 63.233 197.192 61.0241 196.039C58.8821 194.716 56.5319 194.049 53.9734 194.04C51.4819 193.86 48.9866 194.319 46.4876 195.415C43.3936 196.773 40.969 198.686 39.2138 201.154C37.5775 203.57 36.4284 206.125 35.7665 208.821C34.665 212.797 30.7592 215.483 26.7121 214.683L18.1002 212.981C13.415 212.055 9.84456 207.946 10.749 203.256C11.2773 200.517 12.1122 197.884 13.2535 195.357C15.5517 190.245 18.7498 185.729 22.8478 181.808C27.0128 177.717 31.8918 174.444 37.4847 171.99C41.8877 170.057 46.6365 168.752 51.7311 168.072C56.8258 167.393 61.8423 167.667 66.7808 168.895C71.7192 170.124 76.2746 172.581 80.447 176.268C84.6863 179.784 88.1856 184.686 90.9449 190.973C92.4546 194.414 93.4773 197.714 94.0128 200.875C94.6152 203.864 94.723 206.859 94.3362 209.858C93.8974 212.739 93.0495 215.658 91.7926 218.614C90.4836 221.452 88.9106 224.336 87.0735 227.264C84.6786 230.862 82.2057 234.281 79.6546 237.523C77.0515 240.646 75.088 243.771 73.7641 246.899C72.4402 250.027 72.5071 253.251 73.9649 256.573L59.7026 262.832ZM77.5084 296.938C71.186 299.713 63.8164 296.772 61.1419 290.406C58.5264 284.181 61.3889 277.009 67.5719 274.296L67.935 274.136C74.4635 271.271 82.0732 274.309 84.8348 280.881L89.3905 291.724L77.5084 296.938Z" fill="white"/>
<path d="M59.7026 262.832C54.5666 265.086 48.4211 262.767 47.1918 257.295C47.1038 256.903 47.0214 256.512 46.9447 256.122C46.253 252.605 46.294 248.98 47.0675 245.245C47.96 241.458 49.9346 237.549 52.9914 233.52C54.1219 231.892 55.6764 229.936 57.6547 227.653C59.7 225.199 61.5817 222.534 63.2998 219.658C65.0179 216.782 66.1893 213.792 66.814 210.688C67.5578 207.532 67.3049 204.531 66.0555 201.683C64.9101 199.074 63.233 197.192 61.0241 196.039C58.8821 194.716 56.5319 194.049 53.9734 194.04C51.4819 193.86 48.9866 194.319 46.4876 195.415C43.3936 196.773 40.969 198.686 39.2138 201.154C37.5775 203.57 36.4284 206.125 35.7665 208.821C34.665 212.797 30.7592 215.483 26.7121 214.683L18.1002 212.981C13.415 212.055 9.84456 207.946 10.749 203.256C11.2773 200.517 12.1122 197.884 13.2535 195.357C15.5517 190.245 18.7498 185.729 22.8478 181.808C27.0128 177.717 31.8918 174.444 37.4847 171.99C41.8877 170.057 46.6365 168.752 51.7311 168.072C56.8258 167.393 61.8423 167.667 66.7808 168.895C71.7192 170.124 76.2746 172.581 80.447 176.268C84.6863 179.784 88.1856 184.686 90.9449 190.973C92.4546 194.414 93.4773 197.714 94.0128 200.875C94.6152 203.864 94.723 206.859 94.3362 209.858C93.8974 212.739 93.0495 215.658 91.7926 218.614C90.4836 221.452 88.9106 224.336 87.0735 227.264C84.6786 230.862 82.2057 234.281 79.6546 237.523C77.0515 240.646 75.088 243.771 73.7641 246.899C72.4402 250.027 72.5071 253.251 73.9649 256.573L59.7026 262.832ZM77.5084 296.938C71.186 299.713 63.8164 296.772 61.1419 290.406C58.5264 284.181 61.3889 277.009 67.5719 274.296L67.935 274.136C74.4635 271.271 82.0732 274.309 84.8348 280.881L89.3905 291.724L77.5084 296.938Z" fill="url(#paint2_linear_1168_1009)"/>
<defs>
<linearGradient id="paint0_linear_1168_1009" x1="173.309" y1="70.8806" x2="384.88" y2="243.441" gradientUnits="userSpaceOnUse">
<stop stop-color="#26256B"/>
<stop offset="1" stop-color="#002E94"/>
</linearGradient>
<linearGradient id="paint1_linear_1168_1009" x1="445.792" y1="116.028" x2="497.954" y2="225.611" gradientUnits="userSpaceOnUse">
<stop stop-color="#26256B"/>
<stop offset="1" stop-color="#002E94"/>
</linearGradient>
<linearGradient id="paint2_linear_1168_1009" x1="26.2596" y1="205.746" x2="89.826" y2="213.312" gradientUnits="userSpaceOnUse">
<stop stop-color="#002E94"/>
<stop offset="1" stop-color="#26256B"/>
</linearGradient>
</defs>
</svg>
