<svg width="601" height="159" viewBox="0 0 601 159" fill="none" xmlns="http://www.w3.org/2000/svg">
<path d="M0.5 80.0924L0.5 8.3281H24.7108L24.7108 80.0924C24.9007 94.8716 30.265 107.472 40.8038 117.893C51.4376 128.22 64.1601 133.383 78.9714 133.383C93.7827 133.383 106.505 128.22 117.139 117.893C127.773 107.472 133.185 94.8716 133.374 80.0924V8.3281H157.585V80.0924C157.395 94.2084 153.74 107.188 146.619 119.03C139.593 130.872 130.099 140.251 118.136 147.167C106.173 153.988 93.1181 157.399 78.9714 157.399C64.8247 157.399 51.7699 153.988 39.8069 147.167C27.8439 140.251 18.3495 130.872 11.3236 119.03C4.29777 107.188 0.689888 94.2084 0.5 80.0924Z" fill="white"/>
<path d="M192.477 155.836V78.9556C192.477 64.7448 195.99 51.6235 203.016 39.5918C210.042 27.56 219.584 18.0862 231.642 11.1703C243.7 4.15962 256.849 0.654297 271.091 0.654297C281.725 0.654297 291.884 2.73854 301.568 6.90703C311.253 10.9808 319.608 16.523 326.633 23.5336C333.659 30.5442 339.214 38.8812 343.296 48.5445C347.474 58.2079 349.562 68.3449 349.562 78.9556V155.836H325.352V78.9556C325.352 63.9869 320.035 51.2446 309.401 40.7286C298.862 30.1179 286.092 24.8126 271.091 24.8126C256.09 24.8126 243.272 30.1179 232.639 40.7286C222.005 51.2446 216.688 63.9869 216.688 78.9556V155.836H192.477Z" fill="white"/>
<path d="M453.811 119.456C446.785 107.424 443.272 94.3032 443.272 80.0924C443.272 65.8817 446.785 52.7604 453.811 40.7286C460.837 28.6968 470.379 19.1757 482.437 12.165C494.495 5.15437 507.645 1.64905 521.886 1.64905C536.128 1.64905 549.278 5.15437 561.336 12.165C573.393 19.1757 582.935 28.6968 589.961 40.7286C596.987 52.7604 600.5 65.8817 600.5 80.0924C600.5 94.3032 596.987 107.424 589.961 119.456C582.935 131.488 573.393 141.009 561.336 148.02C549.278 154.936 536.128 158.394 521.886 158.394C507.645 158.394 494.495 154.936 482.437 148.02C470.379 141.009 460.837 131.488 453.811 119.456ZM468.623 69.4344C467.958 73.0344 467.626 76.5871 467.626 80.0924C467.626 87.1031 469.002 93.9716 471.756 100.698C475.933 110.835 482.579 118.983 491.694 125.141C500.904 131.204 510.968 134.235 521.886 134.235C536.887 134.235 549.657 128.93 560.196 118.319C570.83 107.709 576.147 94.9663 576.147 80.0924C576.147 69.1028 573.061 59.0605 566.89 49.9656C560.813 40.776 552.743 34.0969 542.679 29.9284C535.938 27.181 529.102 25.8073 522.171 25.8073C518.563 25.7126 514.955 26.0442 511.347 26.8021C500.524 28.8863 491.219 33.8127 483.434 41.5813C475.648 49.3498 470.711 58.6342 468.623 69.4344Z" fill="white"/>
<path fill-rule="evenodd" clip-rule="evenodd" d="M386.591 8.3281L386.021 155.836H410.374L410.904 18.7692C410.926 13.078 406.336 8.44332 400.645 8.41011L386.591 8.3281Z" fill="white"/>
</svg>
