<svg width="1586" height="1586" viewBox="0 0 1586 1586" fill="none" xmlns="http://www.w3.org/2000/svg">
<path d="M1292.05 1265.12C1014.75 1424.42 565.187 1424.42 287.89 1265.12C10.5942 1105.82 10.6259 847.59 287.89 688.324C565.155 529.058 1014.79 529.058 1292.05 688.324C1569.32 847.59 1569.35 1105.85 1292.05 1265.12Z" fill="#F5F5F5"/>
<path d="M870.968 976.722C812.698 943.099 718.236 943.099 659.966 976.722C610.578 1005.27 603.092 1048.76 637.414 1081.87C635.473 1082.38 633.608 1083.14 631.863 1084.13L447.887 1190.39C440.083 1194.89 440.083 1202.22 447.887 1206.72L459.433 1213.39C463.766 1215.59 468.583 1216.67 473.443 1216.53C478.302 1216.39 483.05 1215.04 487.251 1212.59L658.539 1100.4C659.239 1099.94 659.897 1099.42 660.506 1098.84C718.807 1132.18 812.762 1132.09 870.936 1098.56C929.111 1065.03 929.396 1010.38 870.968 976.722Z" fill="#E6E6E6"/>
<path d="M1280.54 854.378L1046.06 990.045C1043.14 991.53 1039.9 992.304 1036.62 992.304C1033.35 992.304 1030.11 991.53 1027.19 990.045L619.3 754.524C614.098 751.542 614.098 746.657 619.3 743.644L853.775 607.977C856.699 606.492 859.932 605.718 863.211 605.718C866.491 605.718 869.724 606.492 872.648 607.977L1280.54 843.498C1285.74 846.48 1285.74 851.365 1280.54 854.378Z" fill="#E6E6E6"/>
<path d="M236.409 1110.96L173.699 1074.74C166.117 1070.36 166.117 1063.25 173.699 1058.88L610.071 806.925C614.327 804.766 619.032 803.64 623.805 803.64C628.578 803.64 633.284 804.766 637.54 806.925L700.282 843.149C707.863 847.527 707.863 854.632 700.282 859.009L263.878 1110.96C259.622 1113.12 254.917 1114.25 250.144 1114.25C245.371 1114.25 240.665 1113.12 236.409 1110.96Z" fill="#E6E6E6"/>
<path d="M1281.17 1182.97C1345.16 1182.97 1397.04 1154.62 1397.04 1119.65C1397.04 1084.69 1345.16 1056.34 1281.17 1056.34C1217.17 1056.34 1165.3 1084.69 1165.3 1119.65C1165.3 1154.62 1217.17 1182.97 1281.17 1182.97Z" fill="#E6E6E6"/>
<path d="M1331.89 1056.78C1333 1042.73 1345.5 1014.47 1361.55 997.404C1377.6 980.338 1401.55 968.856 1417.38 975.739C1432.13 982.083 1428.89 1001.91 1409.42 1013.58C1389.94 1025.25 1361.01 1039.62 1351.08 1061.73L1331.89 1088.31V1056.78Z" fill="#26256B"/>
<path opacity="0.1" d="M1331.89 1056.78C1333 1042.73 1345.5 1014.47 1361.55 997.404C1377.6 980.338 1401.55 968.856 1417.38 975.739C1432.13 982.083 1428.89 1001.91 1409.42 1013.58C1389.94 1025.25 1361.01 1039.62 1351.08 1061.73L1331.89 1088.31V1056.78Z" fill="black"/>
<path d="M1329.29 1075.91C1329.52 1075.91 1329.74 1075.84 1329.93 1075.7C1330.11 1075.56 1330.24 1075.37 1330.31 1075.15C1343.56 1027.98 1385.47 992.138 1409.35 985.413C1409.59 985.314 1409.78 985.132 1409.89 984.901C1410 984.67 1410.02 984.407 1409.95 984.161C1409.88 983.915 1409.72 983.704 1409.51 983.566C1409.29 983.429 1409.03 983.375 1408.78 983.415C1384.45 990.298 1341.76 1026.71 1328.31 1074.61C1328.27 1074.74 1328.26 1074.88 1328.27 1075.01C1328.29 1075.15 1328.33 1075.28 1328.4 1075.4C1328.47 1075.52 1328.56 1075.62 1328.67 1075.7C1328.78 1075.79 1328.9 1075.85 1329.04 1075.88L1329.29 1075.91Z" fill="white"/>
<path d="M1333.99 1107.03C1336.87 1099.32 1347.56 1087.08 1364.02 1077.56C1382.23 1067.06 1404.5 1063.35 1410.27 1054.47C1417.22 1043.84 1408.69 1032.58 1390.76 1033.34C1372.84 1034.1 1339.79 1055.77 1331.89 1091.77L1333.99 1107.03Z" fill="#26256B"/>
<path d="M1331.23 1098.59C1331.42 1098.59 1331.61 1098.54 1331.78 1098.43C1331.94 1098.32 1332.07 1098.17 1332.15 1097.99C1350.16 1058.12 1382.64 1046.22 1397.3 1045.49C1397.57 1045.49 1397.83 1045.38 1398.02 1045.19C1398.21 1045 1398.31 1044.75 1398.31 1044.48C1398.31 1044.21 1398.21 1043.95 1398.02 1043.76C1397.83 1043.57 1397.57 1043.46 1397.3 1043.46C1381.09 1044.25 1348.77 1056.43 1330.37 1097.13C1330.31 1097.26 1330.28 1097.39 1330.28 1097.53C1330.27 1097.66 1330.3 1097.8 1330.35 1097.93C1330.4 1098.06 1330.47 1098.17 1330.57 1098.27C1330.67 1098.37 1330.78 1098.44 1330.91 1098.5C1331.01 1098.55 1331.11 1098.58 1331.23 1098.59Z" fill="white"/>
<path d="M178.869 978.467C178.869 978.467 175.697 949.316 161.042 926.668C146.388 904.02 126.594 889.936 108.006 888.445C89.4185 886.955 74.415 904.084 94.3034 915.852C114.192 927.62 149.528 939.578 165.8 983.51L178.869 978.467Z" fill="#26256B"/>
<path opacity="0.1" d="M178.869 978.467C178.869 978.467 175.697 949.316 161.042 926.668C146.388 904.02 126.594 889.936 108.006 888.445C89.4185 886.955 74.415 904.084 94.3034 915.852C114.192 927.62 149.528 939.578 165.8 983.51L178.869 978.467Z" fill="black"/>
<path d="M173.413 970.886H173.603C173.725 970.837 173.836 970.765 173.93 970.672C174.023 970.58 174.097 970.47 174.147 970.349C174.197 970.228 174.223 970.098 174.222 969.967C174.221 969.836 174.194 969.706 174.143 969.585C154.54 921.244 117.047 901.07 100.172 897.137C99.9243 897.111 99.6761 897.176 99.474 897.321C99.2719 897.466 99.13 897.68 99.0752 897.923C99.0205 898.165 99.0566 898.419 99.1769 898.637C99.2971 898.855 99.493 899.021 99.7275 899.103C116.381 902.91 152.985 922.766 172.303 970.315C172.398 970.52 172.559 970.688 172.76 970.791C172.961 970.895 173.191 970.928 173.413 970.886Z" fill="white"/>
<path d="M84.2165 970.632C86.0245 974.692 90.5605 976.786 94.5255 978.435C98.8096 979.593 102.59 982.136 105.279 985.667C109.751 993.375 102.424 1004.22 107.213 1011.71C108.337 1013.23 109.763 1014.49 111.4 1015.43C113.038 1016.37 114.853 1016.96 116.729 1017.17C119.8 1017.61 122.892 1017.9 125.992 1018.02C127.467 1017.99 128.939 1017.87 130.401 1017.67C134.665 1016.71 139.126 1017.19 143.089 1019.04C149.211 1022.46 151.082 1030.2 154.793 1036.17C157.101 1039.68 160.141 1042.66 163.704 1044.89C167.268 1047.13 171.272 1048.56 175.443 1049.11C178.995 1049.83 182.674 1049.58 186.101 1048.41L186.704 1048.03C187.09 1047.62 187.45 1047.18 187.782 1046.73V1046.54C188.861 1042.54 187.084 1038.39 187.021 1034.26V1033.5C187.021 1028.71 187.338 1023.98 187.433 1019.16C187.645 1010.35 187.729 1001.53 187.687 992.709C187.687 986.999 188.322 980.719 185.911 975.327C183.215 969.395 176.553 969.268 174.047 963.432C173.032 961.116 172.493 958.642 171.51 956.295C169.999 952.86 167.572 949.906 164.495 947.758C161.418 945.61 157.809 944.349 154.064 944.114C142.391 943.511 131.86 952.932 120.314 952.076C117.315 951.672 114.34 951.111 111.4 950.395C101.884 948.618 91.068 951.314 85.7707 959.276C84.6023 960.897 83.8496 962.781 83.5786 964.76C83.3076 966.74 83.5266 968.756 84.2165 970.632Z" fill="#26256B"/>
<path d="M188.861 1028.24C188.988 1028.21 189.108 1028.15 189.213 1028.07C189.318 1028 189.406 1027.9 189.472 1027.78C189.537 1027.67 189.579 1027.55 189.594 1027.42C189.609 1027.29 189.597 1027.16 189.559 1027.03C173.54 966.635 109.941 957.944 95.1599 958.991C95.0306 958.999 94.9043 959.032 94.788 959.089C94.6718 959.146 94.568 959.226 94.4825 959.323C94.397 959.42 94.3316 959.533 94.29 959.656C94.2484 959.779 94.2314 959.908 94.24 960.037C94.2221 960.17 94.2324 960.305 94.2701 960.433C94.3079 960.562 94.3722 960.68 94.459 960.782C94.5458 960.884 94.6531 960.966 94.7739 961.024C94.8946 961.081 95.0261 961.113 95.1599 961.116C109.719 960.069 171.954 968.602 187.687 1027.73C187.79 1027.94 187.965 1028.11 188.18 1028.2C188.395 1028.29 188.637 1028.3 188.861 1028.24Z" fill="white"/>
<path d="M118.189 997.657C118.394 997.62 118.583 997.52 118.729 997.372C124.601 992.284 131.523 988.555 139.001 986.449C146.48 984.344 154.331 983.914 161.995 985.191C162.258 985.22 162.522 985.147 162.734 984.988C162.946 984.829 163.09 984.596 163.137 984.335C163.155 984.206 163.146 984.074 163.113 983.948C163.079 983.822 163.021 983.704 162.941 983.6C162.861 983.497 162.762 983.411 162.648 983.346C162.535 983.282 162.41 983.24 162.28 983.225C154.314 981.919 146.158 982.387 138.394 984.597C130.63 986.807 123.449 990.703 117.365 996.008C117.273 996.099 117.2 996.208 117.15 996.328C117.1 996.448 117.074 996.576 117.074 996.706C117.074 996.836 117.1 996.964 117.15 997.084C117.2 997.204 117.273 997.312 117.365 997.404C117.476 997.502 117.608 997.576 117.75 997.619C117.892 997.663 118.042 997.676 118.189 997.657Z" fill="white"/>
<path d="M1271.97 810.446L1045.43 941.545C1042.6 942.967 1039.48 943.708 1036.31 943.708C1033.14 943.708 1030.02 942.967 1027.19 941.545L632.911 713.954C627.867 711.067 627.867 706.341 632.911 703.455L859.613 572.324C862.437 570.902 865.555 570.161 868.717 570.161C871.879 570.161 874.997 570.902 877.821 572.324L1271.97 799.915C1276.86 802.833 1276.86 807.528 1271.97 810.446Z" fill="#37474F"/>
<path d="M1150.77 870.555C1146.84 872.553 1142.49 873.594 1138.08 873.594C1133.67 873.594 1129.33 872.553 1125.39 870.555C1118.42 866.527 1118.42 859.993 1125.39 855.964C1129.32 853.952 1133.67 852.902 1138.08 852.902C1142.49 852.902 1146.84 853.952 1150.77 855.964C1157.78 859.993 1157.78 866.527 1150.77 870.555Z" fill="#263238"/>
<path d="M1045.27 941.545L1271.97 810.446C1276.48 807.845 1276.95 803.785 1273.4 800.93C1275.65 802.712 1277.5 804.95 1278.83 807.497C1280.16 810.045 1280.94 812.844 1281.11 815.712V824.276C1280.95 827.453 1280.03 830.547 1278.45 833.304C1276.86 836.06 1274.64 838.402 1271.97 840.136L1045.43 971.235C1042.63 972.725 1039.5 973.478 1036.32 973.423V943.829C1039.45 943.828 1042.53 943.042 1045.27 941.545Z" fill="#26256B"/>
<path d="M632.909 743.58C630.248 741.842 628.036 739.499 626.454 736.743C624.872 733.986 623.964 730.895 623.806 727.72V719.156C623.973 716.283 624.746 713.477 626.074 710.924C627.403 708.371 629.256 706.128 631.514 704.343C627.961 707.261 628.342 711.289 632.909 713.859L1027.03 941.45C1029.84 942.944 1032.98 943.697 1036.17 943.638V973.233C1032.98 973.292 1029.84 972.539 1027.03 971.044L632.909 743.58Z" fill="#263238"/>
<path d="M1007.43 914.075L1221.13 790.367C1221.8 790.152 1222.38 789.729 1222.8 789.159C1223.22 788.589 1223.44 787.901 1223.44 787.195C1223.44 786.489 1223.22 785.802 1222.8 785.232C1222.38 784.662 1221.8 784.238 1221.13 784.023L905.257 601.316C903.567 600.455 901.698 600.007 899.802 600.007C897.905 600.007 896.036 600.455 894.346 601.316L680.553 725.024C679.881 725.239 679.294 725.662 678.878 726.233C678.462 726.803 678.238 727.49 678.238 728.196C678.238 728.902 678.462 729.589 678.878 730.16C679.294 730.73 679.881 731.153 680.553 731.368L996.484 914.075C998.18 914.936 1000.05 915.385 1001.96 915.385C1003.86 915.385 1005.73 914.936 1007.43 914.075Z" fill="#FAFAFA"/>
<path d="M713.701 730.638L815.776 789.828C817.905 790.907 820.257 791.469 822.643 791.469C825.03 791.469 827.382 790.907 829.511 789.828L1009.05 686.199C1009.87 685.918 1010.59 685.384 1011.1 684.673C1011.61 683.962 1011.89 683.109 1011.89 682.234C1011.89 681.359 1011.61 680.506 1011.1 679.795C1010.59 679.084 1009.87 678.55 1009.05 678.269L906.844 619.206C904.716 618.128 902.363 617.566 899.977 617.566C897.591 617.566 895.238 618.128 893.109 619.206L713.701 722.708C712.872 722.99 712.153 723.523 711.643 724.234C711.134 724.946 710.859 725.799 710.859 726.673C710.859 727.548 711.134 728.401 711.643 729.113C712.153 729.824 712.872 730.357 713.701 730.638Z" fill="#EBEBEB"/>
<path d="M788.654 702.439L814.855 707.546C816.491 707.887 818.192 707.733 819.74 707.102L841.944 697.586C845.465 696.064 850.477 697.586 850.413 700.092L850.064 715.952C850.064 716.967 850.889 717.919 852.316 718.521L874.901 727.752C878.485 729.211 877.629 732.415 873.41 733.176L846.924 737.966C846.23 738.032 845.559 738.248 844.957 738.598C844.354 738.949 843.835 739.425 843.435 739.996L835.219 755.253C833.887 757.664 828.336 758.171 825.703 756.11L809.843 743.073C808.574 742.156 807.03 741.698 805.466 741.772L777.774 741.963C773.365 741.963 770.828 739.108 773.46 737.078L790.018 724.39C790.254 724.255 790.461 724.075 790.627 723.86C790.793 723.645 790.915 723.399 790.986 723.136C791.057 722.874 791.075 722.6 791.039 722.331C791.004 722.062 790.916 721.802 790.78 721.567L781.898 706.436C780.502 703.899 784.467 701.615 788.654 702.439Z" fill="#FAFAFA"/>
<path d="M846.924 669.007L903.132 636.557C904.235 635.907 905.474 635.523 906.751 635.435C908.029 635.346 909.309 635.557 910.491 636.049C912.267 637.096 911.855 638.999 909.603 640.3L853.427 672.749C852.32 673.39 851.082 673.769 849.806 673.857C848.53 673.945 847.252 673.74 846.068 673.257C844.291 672.21 844.704 670.307 846.924 669.007Z" fill="#FAFAFA"/>
<path d="M861.135 677.19L917.311 644.741C918.414 644.091 919.653 643.706 920.93 643.618C922.208 643.53 923.488 643.741 924.67 644.233C926.446 645.28 926.066 647.183 923.782 648.484L867.606 680.933C866.499 681.574 865.261 681.953 863.985 682.041C862.709 682.129 861.431 681.924 860.247 681.441C858.439 680.394 858.851 678.491 861.135 677.19Z" fill="#FAFAFA"/>
<path d="M875.283 685.374L931.459 652.925C932.56 652.267 933.799 651.879 935.078 651.791C936.357 651.703 937.638 651.917 938.818 652.417C940.626 653.464 940.214 655.367 937.93 656.668L881.817 689.117C880.711 689.758 879.472 690.137 878.197 690.225C876.921 690.313 875.642 690.107 874.458 689.625C872.619 688.578 872.999 686.675 875.283 685.374Z" fill="#FAFAFA"/>
<path d="M889.429 693.526L945.637 661.108C946.731 660.451 947.966 660.063 949.24 659.975C950.513 659.887 951.789 660.101 952.964 660.601C954.772 661.616 954.36 663.519 952.108 664.851L895.9 697.269C894.8 697.926 893.56 698.315 892.281 698.403C891.002 698.491 889.721 698.276 888.541 697.777C886.765 696.762 887.177 694.858 889.429 693.526Z" fill="#FAFAFA"/>
<path d="M903.608 701.71L959.784 669.292C960.884 668.635 962.124 668.246 963.403 668.158C964.682 668.07 965.963 668.285 967.143 668.784C968.919 669.799 968.539 671.703 966.255 673.035L910.079 705.453C908.978 706.11 907.739 706.498 906.46 706.586C905.181 706.675 903.9 706.46 902.72 705.96C900.848 704.945 901.324 703.042 903.608 701.71Z" fill="#FAFAFA"/>
<path d="M917.755 709.894L973.804 677.476C974.904 676.819 976.144 676.43 977.423 676.342C978.701 676.254 979.983 676.468 981.163 676.968C982.939 677.983 982.559 679.886 980.275 681.219L924.226 713.7C923.125 714.357 921.885 714.746 920.607 714.834C919.328 714.922 918.047 714.707 916.867 714.208C915.09 713.129 915.471 711.226 917.755 709.894Z" fill="#FAFAFA"/>
<path d="M839.66 803.468L844.291 806.164C845.571 806.806 846.983 807.14 848.415 807.14C849.846 807.14 851.258 806.806 852.538 806.164L960.386 743.961C962.67 742.629 962.67 740.503 960.386 739.203L955.723 736.507C954.444 735.865 953.032 735.531 951.6 735.531C950.168 735.531 948.756 735.865 947.476 736.507L839.628 798.71C839.129 798.878 838.696 799.2 838.39 799.629C838.084 800.059 837.922 800.573 837.925 801.1C837.929 801.627 838.098 802.139 838.41 802.564C838.721 802.989 839.159 803.305 839.66 803.468Z" fill="#E0E0E0"/>
<path d="M1032.93 691.877L1037.56 694.573C1039.85 695.873 1039.85 697.999 1037.56 699.331L994.264 724.326C992.984 724.968 991.572 725.302 990.14 725.302C988.708 725.302 987.296 724.968 986.016 724.326L981.385 721.63C979.101 720.329 979.101 718.204 981.385 716.872L1024.56 691.877C1025.85 691.214 1027.29 690.868 1028.74 690.868C1030.2 690.868 1031.63 691.214 1032.93 691.877Z" fill="#E0E0E0"/>
<path d="M868.304 819.93L970.633 878.961C972.761 880.04 975.114 880.602 977.5 880.602C979.886 880.602 982.239 880.04 984.368 878.961L1163.9 775.332C1164.73 775.051 1165.45 774.517 1165.96 773.806C1166.47 773.095 1166.74 772.242 1166.74 771.367C1166.74 770.492 1166.47 769.639 1165.96 768.928C1165.45 768.217 1164.73 767.683 1163.9 767.402L1061.7 708.339C1059.57 707.261 1057.22 706.699 1054.83 706.699C1052.45 706.699 1050.09 707.261 1047.97 708.339L868.304 812.032C867.487 812.32 866.779 812.855 866.278 813.562C865.777 814.269 865.508 815.115 865.508 815.981C865.508 816.848 865.777 817.693 866.278 818.401C866.779 819.108 867.487 819.642 868.304 819.93Z" fill="#EBEBEB"/>
<path d="M943.354 791.7L969.587 796.838C971.223 797.177 972.923 797.023 974.471 796.394L996.675 786.878C1000.23 785.356 1005.24 786.878 1005.18 789.352L1004.83 805.212C1004.83 806.227 1005.62 807.179 1007.05 807.75L1029.66 816.98C1033.25 818.471 1032.36 821.675 1028.17 822.436L1001.72 827.163C1001.03 827.237 1000.36 827.456 999.758 827.806C999.157 828.155 998.636 828.628 998.23 829.193L990.014 844.45C988.714 846.861 983.163 847.368 980.498 845.306L964.638 832.27C963.356 831.353 961.803 830.895 960.229 830.969L932.538 831.159C928.16 831.159 925.591 828.304 928.224 826.274L944.782 813.586C945.251 813.308 945.595 812.859 945.743 812.334C945.89 811.808 945.83 811.246 945.575 810.763L936.661 795.633C935.234 793.19 939.199 790.907 943.354 791.7Z" fill="#FAFAFA"/>
<path d="M1001.69 758.298L1057.86 725.849C1058.97 725.199 1060.21 724.815 1061.48 724.726C1062.76 724.638 1064.04 724.849 1065.22 725.341C1067.03 726.388 1066.62 728.291 1064.33 729.592L1008.16 762.041C1007.05 762.682 1005.81 763.061 1004.54 763.149C1003.26 763.237 1001.98 763.032 1000.8 762.549C999.181 761.502 999.403 759.599 1001.69 758.298Z" fill="#FAFAFA"/>
<path d="M1015.83 766.482L1072.14 734.033C1073.24 733.383 1074.48 732.998 1075.76 732.91C1077.03 732.822 1078.31 733.033 1079.5 733.525C1081.27 734.572 1080.86 736.475 1078.61 737.776L1022.4 770.225C1021.3 770.883 1020.06 771.277 1018.79 771.376C1017.51 771.475 1016.23 771.277 1015.04 770.796C1013.17 769.686 1013.58 767.783 1015.83 766.482Z" fill="#FAFAFA"/>
<path d="M1030.01 774.634L1086.19 742.248C1087.29 741.591 1088.53 741.202 1089.81 741.114C1091.09 741.026 1092.37 741.241 1093.55 741.741C1095.32 742.756 1094.94 744.659 1092.66 745.991L1036.48 778.409C1035.38 779.05 1034.14 779.429 1032.86 779.517C1031.59 779.604 1030.31 779.399 1029.12 778.916C1027.32 777.87 1027.73 775.966 1030.01 774.634Z" fill="#FAFAFA"/>
<path d="M1044.16 782.818L1100.34 750.4C1101.44 749.743 1102.68 749.355 1103.95 749.266C1105.23 749.178 1106.51 749.393 1107.69 749.893C1109.5 750.908 1109.09 752.811 1106.81 754.143L1050.63 786.656C1049.53 787.313 1048.29 787.702 1047.01 787.79C1045.73 787.878 1044.45 787.663 1043.27 787.164C1041.49 786.053 1041.88 784.15 1044.16 782.818Z" fill="#FAFAFA"/>
<path d="M1058.31 791.002L1114.52 758.584C1115.61 757.927 1116.84 757.539 1118.12 757.45C1119.39 757.362 1120.67 757.577 1121.84 758.076C1123.65 759.091 1123.24 760.995 1120.99 762.327L1064.78 794.745C1063.68 795.402 1062.44 795.79 1061.16 795.878C1059.88 795.967 1058.6 795.752 1057.42 795.252C1055.64 794.237 1056.06 792.334 1058.31 791.002Z" fill="#FAFAFA"/>
<path d="M1072.48 799.344L1128.66 766.926C1129.76 766.269 1131 765.881 1132.28 765.792C1133.56 765.704 1134.84 765.919 1136.02 766.419C1137.8 767.434 1137.42 769.337 1135.13 770.669L1078.96 803.087C1077.86 803.744 1076.62 804.132 1075.34 804.221C1074.06 804.309 1072.78 804.094 1071.6 803.594C1069.79 802.516 1070.2 800.518 1072.48 799.344Z" fill="#FAFAFA"/>
<path d="M994.36 892.759L999.023 895.456C1000.3 896.097 1001.71 896.432 1003.15 896.432C1004.58 896.432 1005.99 896.097 1007.27 895.456L1115.12 833.253C1115.62 833.087 1116.05 832.768 1116.36 832.341C1116.67 831.914 1116.84 831.401 1116.84 830.874C1116.84 830.347 1116.67 829.833 1116.36 829.406C1116.05 828.979 1115.62 828.66 1115.12 828.495L1110.45 825.798C1109.18 825.157 1107.76 824.822 1106.33 824.822C1104.9 824.822 1103.49 825.157 1102.21 825.798L994.36 888.001C993.86 888.167 993.424 888.486 993.116 888.913C992.807 889.34 992.641 889.854 992.641 890.38C992.641 890.907 992.807 891.421 993.116 891.848C993.424 892.275 993.86 892.594 994.36 892.759Z" fill="#E0E0E0"/>
<path d="M1187.63 781.168L1192.29 783.865C1194.58 785.165 1194.58 787.29 1192.29 788.623L1148.99 813.618C1147.71 814.26 1146.3 814.594 1144.87 814.594C1143.44 814.594 1142.03 814.26 1140.75 813.618L1136.08 810.922C1135.58 810.756 1135.15 810.437 1134.84 810.01C1134.53 809.583 1134.37 809.07 1134.37 808.543C1134.37 808.016 1134.53 807.502 1134.84 807.075C1135.15 806.648 1135.58 806.329 1136.08 806.164L1179.41 781.168C1180.69 780.527 1182.09 780.193 1183.52 780.193C1184.95 780.193 1186.35 780.527 1187.63 781.168Z" fill="#E0E0E0"/>
<path d="M765.34 647.691C764.471 648.116 763.516 648.338 762.549 648.338C761.581 648.338 760.626 648.116 759.757 647.691C759.429 647.575 759.144 647.361 758.943 647.077C758.742 646.792 758.634 646.453 758.634 646.105C758.634 645.757 758.742 645.417 758.943 645.133C759.144 644.849 759.429 644.634 759.757 644.519C760.626 644.093 761.581 643.872 762.549 643.872C763.516 643.872 764.471 644.093 765.34 644.519C766.894 645.375 766.894 646.803 765.34 647.691Z" fill="#263238"/>
<path d="M756.428 673.035C754.697 673.91 752.785 674.366 750.845 674.366C748.906 674.366 746.993 673.91 745.263 673.035C744.632 672.778 744.093 672.339 743.713 671.774C743.334 671.209 743.131 670.544 743.131 669.863C743.131 669.182 743.334 668.517 743.713 667.952C744.093 667.387 744.632 666.948 745.263 666.691C746.993 665.816 748.906 665.36 750.845 665.36C752.785 665.36 754.697 665.816 756.428 666.691C757.058 666.948 757.598 667.387 757.977 667.952C758.357 668.517 758.56 669.182 758.56 669.863C758.56 670.544 758.357 671.209 757.977 671.774C757.598 672.339 757.058 672.778 756.428 673.035Z" fill="#263238"/>
<path d="M764.452 661.806C762.39 660.601 762.517 658.634 764.706 657.365L801.438 636.145C802.631 635.535 803.952 635.217 805.292 635.217C806.632 635.217 807.952 635.535 809.146 636.145C811.176 637.318 811.081 639.317 808.892 640.585L772.16 661.774C770.967 662.382 769.649 662.701 768.31 662.706C766.971 662.712 765.65 662.404 764.452 661.806Z" fill="#263238"/>
<path d="M675.352 351.489V358.943L649.595 373.82L610.96 396.024L269.907 593.164C267.886 594.432 266.217 596.188 265.053 598.271C263.8 600.319 263.101 602.659 263.023 605.059V1058.34C263.023 1082.98 245.704 1092.98 224.388 1080.54C203.073 1068.11 185.722 1038.26 185.722 1013.61V560.302C185.854 557.918 186.546 555.598 187.742 553.532C188.937 551.465 190.604 549.709 192.605 548.407L572.262 329.19L609.025 308.001C610.253 310.069 610.931 312.417 610.992 314.821V321.736L205.483 556.464C203.58 557.645 202 559.28 200.884 561.222C199.497 563.351 198.719 565.819 198.632 568.359V1021.04C198.632 1037.47 210.178 1057.42 224.42 1065.63C238.662 1073.85 250.177 1067.19 250.177 1050.76V597.478C250.287 595.103 250.956 592.788 252.13 590.721C253.305 588.654 254.95 586.894 256.933 585.583L673.353 345.145C674.55 347.055 675.238 349.239 675.352 351.489Z" fill="#E0E0E0"/>
<path d="M636.684 329.666V351.489L244.244 578.16C242.227 579.442 240.542 581.182 239.324 583.238C238.105 585.294 237.39 587.608 237.234 589.992V1043.27C237.234 1051.49 231.492 1054.82 224.387 1050.69C220.646 1048.27 217.53 1044.99 215.292 1041.13C213.054 1037.27 211.758 1032.94 211.509 1028.49V575.179C211.591 572.784 212.278 570.448 213.507 568.391C214.69 566.322 216.355 564.57 218.36 563.284L634.749 322.878C635.954 324.942 636.62 327.277 636.684 329.666Z" fill="#E0E0E0"/>
<path d="M277.899 605.598C276.666 607.642 275.978 609.969 275.901 612.355V1061.73C275.907 1065 275.695 1068.26 275.266 1071.5C275.139 1072.35 275.012 1073.17 274.886 1073.98C274.886 1074.74 274.6 1075.47 274.441 1076.23C274.283 1076.99 274.124 1077.56 273.934 1078.19C273.744 1078.83 273.617 1079.43 273.426 1080.03C271.325 1087.75 266.385 1094.39 259.596 1098.62C250.366 1103.92 237.995 1103.29 224.387 1095.45C195.839 1079.02 172.842 1037.28 172.842 1002.26V552.848C172.92 550.462 173.608 548.136 174.841 546.092L187.751 553.514C186.497 555.563 185.798 557.902 185.721 560.302V1013.58C185.721 1038.23 203.04 1068.2 224.387 1080.51C245.735 1092.82 263.022 1082.86 263.022 1058.31V604.932C263.099 602.532 263.799 600.193 265.052 598.144L277.899 605.598Z" fill="#EBEBEB"/>
<path d="M252.143 590.722C250.914 592.767 250.227 595.093 250.145 597.478V1050.76C250.145 1067.19 238.599 1073.85 224.388 1065.63C210.178 1057.42 198.6 1037.47 198.6 1021.04V568.232C198.687 565.692 199.466 563.225 200.852 561.095L213.54 568.391C212.311 570.448 211.624 572.784 211.542 575.179V1028.46C211.791 1032.91 213.087 1037.24 215.325 1041.1C217.563 1044.96 220.679 1048.23 224.42 1050.66C231.525 1054.79 237.267 1051.45 237.267 1043.24V589.992C237.344 587.592 238.044 585.253 239.297 583.204L252.143 590.722Z" fill="#EBEBEB"/>
<path d="M609.024 308.001L572.324 329.19L192.604 548.407C190.576 549.666 188.905 551.425 187.751 553.514L174.841 546.092C175.994 543.993 177.665 542.224 179.694 540.953L559.382 321.736L566.71 317.485L574.132 313.298L580.476 309.619L584.251 307.43L591.261 303.402C593.305 302.315 595.577 301.725 597.892 301.681C600.207 301.637 602.499 302.14 604.583 303.148C606.46 304.353 607.99 306.025 609.024 308.001Z" fill="#FAFAFA"/>
<path d="M699.142 360.054L662.441 381.243L598.018 418.418L282.785 600.459C280.754 601.738 279.075 603.505 277.9 605.598L265.212 598.144C266.348 596.126 267.959 594.417 269.906 593.164L610.928 396.151L649.563 373.947L675.32 359.07L681.315 355.613L681.981 355.264C683.961 354.315 686.129 353.823 688.325 353.823C690.521 353.823 692.689 354.315 694.669 355.264L695.335 355.676C696.905 356.843 698.204 358.337 699.142 360.054Z" fill="#FAFAFA"/>
<path d="M634.749 322.878L218.36 563.284C216.355 564.57 214.69 566.322 213.507 568.391L200.819 561.095C201.935 559.153 203.516 557.518 205.419 556.337L610.927 321.609L616.891 318.152C618.935 317.064 621.207 316.475 623.521 316.431C625.836 316.387 628.129 316.889 630.213 317.898C632.133 319.134 633.697 320.851 634.749 322.878Z" fill="#FAFAFA"/>
<path d="M673.448 345.145L256.933 585.583C254.895 586.853 253.214 588.622 252.048 590.721L239.17 583.267C240.386 581.15 242.136 579.39 244.245 578.16L636.812 351.489L655.844 340.578C657.89 339.495 660.164 338.911 662.478 338.873C664.793 338.834 667.085 339.342 669.166 340.356C670.981 341.558 672.456 343.208 673.448 345.145Z" fill="#FAFAFA"/>
<path d="M701.013 366.873V816.251C701.013 834.68 694.669 847.59 684.424 853.3L258.995 1098.94C262.762 1096.67 266.028 1093.67 268.596 1090.1C271.165 1086.54 272.981 1082.48 273.935 1078.19C274.126 1077.56 274.284 1076.89 274.443 1076.23C274.601 1075.56 274.728 1074.74 274.887 1073.98C275.045 1073.21 275.141 1072.36 275.267 1071.5C275.697 1068.26 275.908 1065 275.902 1061.73V612.354C275.979 609.969 276.667 607.642 277.9 605.598C279.075 603.505 280.754 601.738 282.785 600.459L598.018 418.45L662.442 381.274L699.142 360.085C700.337 362.15 700.981 364.488 701.013 366.873Z" fill="#F5F5F5"/>
<path d="M321.452 607.914L384.892 571.214C388.698 569.025 391.743 570.77 391.743 575.179V663.456C391.62 665.838 390.935 668.157 389.744 670.225C388.553 672.292 386.891 674.048 384.892 675.351L321.452 712.051C317.645 714.239 314.568 712.463 314.568 708.086V619.809C314.698 617.424 315.389 615.104 316.585 613.037C317.781 610.97 319.449 609.214 321.452 607.914Z" fill="#26256B"/>
<path d="M314.568 745.769L662.473 544.918V559.795L314.568 760.646V745.769Z" fill="#26256B"/>
<path opacity="0.4" d="M314.568 745.769L662.473 544.918V559.795L314.568 760.646V745.769Z" fill="white"/>
<path d="M318.692 788.02L387.778 748.148C390.03 746.816 391.87 747.894 391.87 750.527V889.778C391.796 891.205 391.387 892.595 390.676 893.835C389.965 895.075 388.973 896.13 387.778 896.915L318.692 936.787C316.408 938.119 314.568 937.04 314.568 934.408V795.157C314.643 793.726 315.056 792.334 315.773 791.093C316.49 789.853 317.49 788.799 318.692 788.02Z" fill="#F0F0F0"/>
<path d="M318.692 951.6L387.778 911.696C390.03 910.396 391.87 911.474 391.87 914.075V1023.07L314.568 1067.79V958.832C314.628 957.385 315.034 955.973 315.752 954.715C316.469 953.457 317.477 952.389 318.692 951.6Z" fill="#F0F0F0"/>
<path d="M408.904 735.904L477.958 696.032C480.242 694.731 482.082 695.778 482.082 698.411V882.387C482.004 883.817 481.591 885.209 480.874 886.449C480.158 887.689 479.159 888.743 477.958 889.524L408.904 929.396C406.62 930.697 404.78 929.65 404.78 927.017V743.041C404.863 741.612 405.279 740.222 405.995 738.983C406.711 737.744 407.707 736.689 408.904 735.904Z" fill="#F0F0F0"/>
<path d="M499.083 683.883L568.137 643.916C570.421 642.584 572.261 643.662 572.261 646.295V785.546C572.186 786.977 571.773 788.369 571.056 789.61C570.339 790.85 569.339 791.903 568.137 792.683L499.083 832.65C496.799 833.982 494.959 832.904 494.959 830.271V691.02C495.034 689.59 495.447 688.197 496.163 686.956C496.88 685.716 497.881 684.663 499.083 683.883Z" fill="#F0F0F0"/>
<path d="M589.295 631.799L658.35 591.927C660.634 590.595 662.474 591.673 662.474 594.306V778.282C662.391 779.711 661.975 781.101 661.259 782.34C660.543 783.579 659.547 784.634 658.35 785.419L589.295 825.291C587.012 826.591 585.172 825.545 585.172 822.912V638.936C585.247 637.505 585.66 636.113 586.376 634.872C587.093 633.632 588.093 632.578 589.295 631.799Z" fill="#F0F0F0"/>
<path d="M408.904 944.241L477.958 904.369C480.242 903.037 482.082 904.115 482.082 906.748V971.076L404.78 1015.74V951.378C404.855 949.947 405.268 948.555 405.985 947.314C406.701 946.074 407.702 945.02 408.904 944.241Z" fill="#F0F0F0"/>
<path d="M494.832 854.664V963.654L572.134 919.024V810.034C572.134 807.401 570.294 806.354 568.01 807.655L498.956 847.527C497.755 848.308 496.756 849.362 496.04 850.602C495.323 851.842 494.91 853.234 494.832 854.664Z" fill="#F0F0F0"/>
<path d="M589.264 840.104L658.35 800.232C660.634 798.9 662.474 799.978 662.474 802.611V866.939L585.172 911.569V847.241C585.246 845.814 585.655 844.424 586.366 843.184C587.077 841.944 588.069 840.889 589.264 840.104Z" fill="#F0F0F0"/>
<path d="M421.876 951.6L465.174 926.605C467.458 925.272 469.297 926.351 469.297 928.984V964.288C469.222 965.719 468.81 967.111 468.093 968.352C467.376 969.592 466.376 970.645 465.174 971.425L421.876 996.357C419.592 997.657 417.752 996.611 417.752 993.978V958.864C417.808 957.411 418.211 955.993 418.929 954.729C419.646 953.465 420.657 952.392 421.876 951.6Z" fill="#E0E0E0"/>
<path d="M602.172 847.59L645.47 822.595C647.722 821.262 649.594 822.341 649.594 824.974V860.088C649.509 861.516 649.092 862.905 648.376 864.144C647.66 865.383 646.665 866.438 645.47 867.225L602.172 892.22C599.889 893.521 598.049 892.474 598.049 889.841V854.727C598.124 853.296 598.537 851.904 599.253 850.663C599.97 849.423 600.97 848.37 602.172 847.59Z" fill="#E0E0E0"/>
<path d="M331.571 795.474L374.869 770.447C377.152 769.147 378.992 770.225 378.992 772.826V807.972C378.91 809.401 378.494 810.791 377.778 812.03C377.062 813.269 376.065 814.324 374.869 815.109L331.571 840.104C329.319 841.405 327.447 840.358 327.447 837.725V802.516C327.539 801.102 327.96 799.73 328.676 798.507C329.392 797.285 330.383 796.246 331.571 795.474Z" fill="#E0E0E0"/>
<path d="M330.207 848.32L376.264 821.738C377.787 820.882 378.992 821.58 378.992 823.324V824.435C378.944 825.386 378.672 826.313 378.198 827.14C377.724 827.967 377.061 828.67 376.264 829.193L330.207 855.774C328.684 856.662 327.447 855.774 327.447 854.188V853.078C327.502 852.124 327.78 851.196 328.259 850.369C328.739 849.543 329.406 848.841 330.207 848.32Z" fill="#E0E0E0"/>
<path d="M330.207 863.196L376.264 836.615C377.787 835.759 378.992 836.456 378.992 838.201V839.311C378.944 840.263 378.672 841.19 378.198 842.017C377.724 842.843 377.061 843.547 376.264 844.069L330.207 870.651C328.684 871.539 327.447 870.651 327.447 869.065V867.954C327.502 867 327.78 866.073 328.259 865.246C328.739 864.42 329.406 863.717 330.207 863.196Z" fill="#E0E0E0"/>
<path d="M330.207 878.073L376.264 851.492C377.787 850.635 378.992 851.333 378.992 853.078V854.188C378.944 855.14 378.672 856.066 378.198 856.893C377.724 857.72 377.061 858.423 376.264 858.946L330.207 885.527C328.684 886.415 327.447 885.686 327.447 883.941V882.831C327.502 881.877 327.78 880.949 328.259 880.123C328.739 879.296 329.406 878.594 330.207 878.073Z" fill="#E0E0E0"/>
<path d="M330.207 892.95L376.264 866.368C377.787 865.512 378.992 866.21 378.992 867.954V869.128C378.944 870.08 378.672 871.007 378.198 871.833C377.724 872.66 377.061 873.363 376.264 873.886L330.207 900.467C328.684 901.356 327.447 900.626 327.447 898.881V897.676C327.507 896.728 327.787 895.806 328.266 894.985C328.745 894.165 329.41 893.468 330.207 892.95Z" fill="#E0E0E0"/>
<path d="M330.207 907.826L376.264 881.245C377.787 880.389 378.992 881.086 378.992 882.831V883.941C378.944 884.893 378.672 885.82 378.198 886.647C377.724 887.473 377.061 888.177 376.264 888.699L330.207 915.281C328.684 916.169 327.447 915.439 327.447 913.695V912.584C327.502 911.631 327.78 910.703 328.259 909.876C328.739 909.05 329.406 908.347 330.207 907.826Z" fill="#E0E0E0"/>
<path d="M421.876 743.39L465.174 718.395C467.458 717.062 469.297 718.141 469.297 720.774V755.888C469.22 757.318 468.806 758.709 468.09 759.95C467.373 761.19 466.374 762.243 465.174 763.025L421.876 788.02C419.592 789.321 417.752 788.274 417.752 785.641V750.527C417.827 749.096 418.24 747.704 418.957 746.463C419.674 745.223 420.674 744.169 421.876 743.39Z" fill="#E0E0E0"/>
<path d="M420.387 796.172L466.444 769.591C467.967 768.702 469.204 769.4 469.204 771.177V772.255C469.152 773.21 468.875 774.138 468.395 774.965C467.915 775.792 467.247 776.494 466.444 777.013L420.387 803.594C418.896 804.483 417.659 803.594 417.659 802.008V800.93C417.707 799.978 417.979 799.051 418.453 798.225C418.927 797.398 419.59 796.695 420.387 796.172Z" fill="#E0E0E0"/>
<path d="M420.387 811.144L466.444 784.562C467.967 783.674 469.204 784.372 469.204 786.148V787.227C469.152 788.182 468.875 789.11 468.395 789.937C467.915 790.764 467.247 791.466 466.444 791.985L420.387 818.566C418.896 819.454 417.659 818.725 417.659 816.98V815.902C417.707 814.95 417.979 814.023 418.453 813.197C418.927 812.37 419.59 811.667 420.387 811.144Z" fill="#E0E0E0"/>
<path d="M420.387 826.02L466.444 799.344C467.967 798.456 469.204 799.154 469.204 800.93V802.008C469.152 802.963 468.875 803.892 468.395 804.719C467.915 805.546 467.247 806.247 466.444 806.766L420.387 833.348C418.896 834.236 417.659 833.506 417.659 831.762V830.683C417.722 829.748 418.001 828.84 418.474 828.031C418.948 827.222 419.602 826.534 420.387 826.02Z" fill="#E0E0E0"/>
<path d="M420.387 840.897L466.444 814.316C467.967 813.428 469.204 814.126 469.204 815.902V816.98C469.152 817.935 468.875 818.864 468.395 819.691C467.915 820.518 467.247 821.219 466.444 821.738L420.387 848.32C418.896 849.208 417.659 848.478 417.659 846.734V845.655C417.707 844.703 417.979 843.777 418.453 842.95C418.927 842.123 419.59 841.42 420.387 840.897Z" fill="#E0E0E0"/>
<path d="M420.387 855.774L466.444 829.193C467.967 828.304 469.204 829.002 469.204 830.779V831.857C469.152 832.812 468.875 833.74 468.395 834.567C467.915 835.394 467.247 836.096 466.444 836.615L420.387 863.196C418.896 864.085 417.659 863.355 417.659 861.61V860.532C417.707 859.58 417.979 858.653 418.453 857.827C418.927 857 419.59 856.297 420.387 855.774Z" fill="#E0E0E0"/>
<path d="M420.387 870.651L466.444 844.069C467.967 843.181 469.204 843.911 469.204 845.655V846.734C469.157 847.689 468.882 848.62 468.402 849.448C467.922 850.275 467.25 850.976 466.444 851.492L420.387 878.073C418.896 878.961 417.659 878.263 417.659 876.487V875.472C417.705 874.511 417.976 873.574 418.449 872.737C418.923 871.9 419.587 871.185 420.387 870.651Z" fill="#E0E0E0"/>
<path d="M420.387 885.527L466.444 858.946C467.967 858.058 469.204 858.787 469.204 860.532V861.61C469.157 862.566 468.882 863.497 468.402 864.324C467.922 865.152 467.25 865.853 466.444 866.368L420.387 892.95C418.896 893.838 417.659 893.14 417.659 891.364V890.285C417.715 889.335 417.99 888.411 418.463 887.585C418.937 886.76 419.595 886.055 420.387 885.527Z" fill="#E0E0E0"/>
<path d="M420.387 900.404L466.444 873.822C467.967 872.934 469.204 873.664 469.204 875.408V876.487C469.157 877.443 468.882 878.373 468.402 879.201C467.922 880.029 467.25 880.73 466.444 881.245L420.387 907.826C418.896 908.714 417.659 908.017 417.659 906.24V905.162C417.715 904.212 417.99 903.288 418.463 902.462C418.937 901.636 419.595 900.932 420.387 900.404Z" fill="#E0E0E0"/>
<path d="M331.571 959.149L374.869 934.122C377.152 932.822 378.992 933.9 378.992 936.501V971.647C378.915 973.077 378.501 974.469 377.784 975.709C377.068 976.949 376.069 978.003 374.869 978.784L331.571 1003.78C329.319 1005.08 327.447 1004.03 327.447 1001.4V966.286C327.525 964.856 327.939 963.465 328.655 962.224C329.372 960.984 330.371 959.931 331.571 959.149Z" fill="#E0E0E0"/>
<path d="M330.207 1011.87L376.264 985.287C377.787 984.43 378.992 985.128 378.992 986.873V987.983C378.944 988.935 378.672 989.861 378.198 990.688C377.724 991.515 377.061 992.218 376.264 992.741L330.207 1019.32C328.684 1020.21 327.447 1019.48 327.447 1017.74V1016.63C327.502 1015.67 327.78 1014.74 328.259 1013.92C328.739 1013.09 329.406 1012.39 330.207 1011.87Z" fill="#E0E0E0"/>
<path d="M330.207 1026.87L376.264 1000.29C377.787 999.434 378.992 1000.13 378.992 1001.88V1002.99C378.944 1003.94 378.672 1004.86 378.198 1005.69C377.724 1006.52 377.061 1007.22 376.264 1007.74L330.207 1034.33C328.684 1035.21 327.447 1034.48 327.447 1032.74V1031.63C327.502 1030.68 327.78 1029.75 328.259 1028.92C328.739 1028.09 329.406 1027.39 330.207 1026.87Z" fill="#E0E0E0"/>
<path d="M330.207 1041.78L376.264 1015.04C377.787 1014.18 378.992 1014.88 378.992 1016.63V1017.74C378.944 1018.69 378.672 1019.61 378.198 1020.44C377.724 1021.27 377.061 1021.97 376.264 1022.49L330.207 1049.08C328.684 1049.96 327.447 1049.23 327.447 1047.49V1046.41C327.514 1045.48 327.798 1044.57 328.277 1043.77C328.756 1042.96 329.417 1042.28 330.207 1041.78Z" fill="#E0E0E0"/>
<path d="M511.961 691.306L555.259 666.31C557.543 665.01 559.382 666.057 559.382 668.689V703.803C559.307 705.234 558.895 706.627 558.178 707.867C557.461 709.108 556.461 710.161 555.259 710.94L511.961 735.904C509.709 737.205 507.837 736.126 507.837 733.525V698.443C507.925 697.015 508.343 695.627 509.058 694.388C509.774 693.15 510.768 692.094 511.961 691.306Z" fill="#E0E0E0"/>
<path d="M510.693 744.183L556.751 717.602C558.242 716.745 559.479 717.602 559.479 719.188V720.298C559.423 721.248 559.147 722.172 558.674 722.997C558.201 723.823 557.542 724.528 556.751 725.056L510.693 751.764C509.171 752.62 507.934 751.764 507.934 750.178V749.068C507.968 748.092 508.237 747.139 508.717 746.289C509.198 745.438 509.875 744.716 510.693 744.183Z" fill="#E0E0E0"/>
<path d="M510.693 759.06L556.751 732.478C558.242 731.622 559.479 732.478 559.479 734.064V735.174C559.423 736.124 559.147 737.049 558.674 737.874C558.201 738.7 557.542 739.404 556.751 739.932L510.693 766.514C509.171 767.37 507.934 766.514 507.934 764.928V763.818C507.988 762.864 508.266 761.936 508.746 761.109C509.225 760.283 509.892 759.581 510.693 759.06Z" fill="#E0E0E0"/>
<path d="M510.693 773.968L556.751 747.387C558.242 746.53 559.479 747.228 559.479 748.973V750.083C559.423 751.033 559.147 751.957 558.674 752.783C558.201 753.608 557.542 754.313 556.751 754.841L510.693 781.39C509.171 782.247 507.934 781.39 507.934 779.804V778.694C507.993 777.746 508.273 776.824 508.753 776.004C509.232 775.183 509.896 774.486 510.693 773.968Z" fill="#E0E0E0"/>
<path d="M510.693 788.813L556.751 762.232C558.242 761.375 559.479 762.073 559.479 763.818V764.928C559.423 765.878 559.147 766.802 558.674 767.627C558.201 768.453 557.542 769.158 556.751 769.686L510.693 796.172C509.171 797.028 507.934 796.331 507.934 794.586V793.476C508.003 792.538 508.288 791.629 508.766 790.821C509.245 790.012 509.905 789.324 510.693 788.813Z" fill="#E0E0E0"/>
<path d="M510.693 803.69L556.656 777.14C558.146 776.284 559.383 776.981 559.383 778.726V779.836C559.328 780.786 559.052 781.71 558.579 782.536C558.105 783.362 557.447 784.066 556.656 784.594L510.693 811.144C509.171 812 507.934 811.302 507.934 809.558V808.448C507.988 807.494 508.266 806.566 508.746 805.739C509.225 804.913 509.892 804.211 510.693 803.69Z" fill="#E0E0E0"/>
<path d="M602.172 639.253L645.47 614.258C647.722 612.926 649.594 614.004 649.594 616.637V651.751C649.509 653.179 649.092 654.568 648.376 655.807C647.66 657.046 646.665 658.101 645.47 658.888L602.172 683.883C599.889 685.184 598.049 684.137 598.049 681.504V646.39C598.124 644.959 598.537 643.567 599.253 642.326C599.97 641.086 600.97 640.033 602.172 639.253Z" fill="#E0E0E0"/>
<path d="M600.777 692.099L646.834 665.517C648.357 664.661 649.594 665.359 649.594 667.103V668.214C649.539 669.168 649.261 670.095 648.782 670.922C648.302 671.748 647.635 672.451 646.834 672.972L600.777 699.553C599.286 700.441 598.049 699.711 598.049 697.967V696.857C598.105 695.907 598.38 694.983 598.853 694.157C599.327 693.331 599.985 692.627 600.777 692.099Z" fill="#E0E0E0"/>
<path d="M600.777 707.007L646.834 680.394C648.357 679.538 649.594 680.235 649.594 681.98V683.09C649.539 684.044 649.261 684.972 648.782 685.799C648.302 686.625 647.635 687.327 646.834 687.848L600.777 714.43C599.286 715.318 598.049 714.588 598.049 712.844V711.765C598.097 710.813 598.37 709.886 598.844 709.06C599.318 708.233 599.98 707.53 600.777 707.007Z" fill="#E0E0E0"/>
<path d="M600.777 721.884L646.834 695.271C648.357 694.414 649.594 695.112 649.594 696.857V697.84C649.539 698.794 649.261 699.722 648.782 700.548C648.302 701.375 647.635 702.077 646.834 702.598L600.777 729.179C599.286 730.068 598.049 729.338 598.049 727.593V726.515C598.117 725.585 598.398 724.684 598.871 723.88C599.344 723.077 599.996 722.394 600.777 721.884Z" fill="#E0E0E0"/>
<path d="M600.777 736.76L646.834 710.147C648.357 709.291 649.594 710.147 649.594 711.733V712.844C649.539 713.798 649.261 714.725 648.782 715.552C648.302 716.378 647.635 717.081 646.834 717.602L600.777 744.183C599.286 745.071 598.049 744.183 598.049 742.597V741.518C598.097 740.567 598.37 739.64 598.844 738.813C599.318 737.986 599.98 737.283 600.777 736.76Z" fill="#E0E0E0"/>
<path d="M600.777 751.764L646.834 725.151C648.357 724.295 649.594 725.151 649.594 726.737V727.847C649.539 728.801 649.261 729.729 648.782 730.555C648.302 731.382 647.635 732.084 646.834 732.605L600.777 759.06C599.286 759.948 598.049 759.06 598.049 757.474V756.395C598.117 755.465 598.398 754.564 598.871 753.761C599.344 752.957 599.996 752.274 600.777 751.764Z" fill="#E0E0E0"/>
<path d="M600.777 766.514L646.834 739.932C648.357 739.044 649.594 739.742 649.594 741.518V742.597C649.542 743.552 649.265 744.48 648.785 745.307C648.305 746.134 647.637 746.836 646.834 747.355L600.777 773.968C599.286 774.856 598.049 773.968 598.049 772.382V771.304C598.095 770.347 598.366 769.415 598.84 768.582C599.314 767.75 599.977 767.041 600.777 766.514Z" fill="#E0E0E0"/>
<path d="M600.777 781.39L646.834 754.936C648.357 754.048 649.594 754.746 649.594 756.522V757.6C649.542 758.555 649.265 759.484 648.785 760.311C648.305 761.138 647.637 761.839 646.834 762.358L600.777 788.94C599.286 789.828 598.049 788.94 598.049 787.354V786.275C598.08 785.302 598.344 784.351 598.819 783.501C599.293 782.651 599.965 781.927 600.777 781.39Z" fill="#E0E0E0"/>
<path d="M600.777 796.172L646.834 769.591C648.357 768.703 649.594 769.4 649.594 771.177V772.255C649.542 773.21 649.265 774.138 648.785 774.965C648.305 775.792 647.637 776.494 646.834 777.013L600.777 803.595C599.286 804.483 598.049 803.785 598.049 802.009V800.93C598.1 799.979 598.373 799.053 598.847 798.227C599.321 797.4 599.982 796.697 600.777 796.172Z" fill="#E0E0E0"/>
<path d="M511.961 854.981L555.259 829.986C557.543 828.685 559.382 829.732 559.382 832.365V867.479C559.307 868.909 558.895 870.302 558.178 871.542C557.461 872.783 556.461 873.836 555.259 874.616L511.961 899.643C509.709 900.943 507.837 899.865 507.837 897.264V862.118C507.925 860.69 508.343 859.302 509.058 858.064C509.774 856.825 510.768 855.77 511.961 854.981Z" fill="#E0E0E0"/>
<path d="M510.693 907.858L556.751 881.277C558.242 880.42 559.479 881.118 559.479 882.863V883.973C559.423 884.923 559.147 885.847 558.674 886.673C558.201 887.498 557.542 888.203 556.751 888.731L510.693 915.312C509.171 916.169 507.934 915.471 507.934 913.726V912.616C507.988 911.662 508.266 910.734 508.746 909.908C509.225 909.081 509.892 908.379 510.693 907.858Z" fill="#E0E0E0"/>
<path d="M510.693 922.735L556.751 896.153C558.242 895.297 559.479 896.153 559.479 897.739V898.85C559.423 899.8 559.147 900.724 558.674 901.549C558.201 902.375 557.542 903.079 556.751 903.608L510.693 930.189C509.171 931.045 507.934 930.348 507.934 928.603V927.493C507.988 926.539 508.266 925.611 508.746 924.785C509.225 923.958 509.892 923.256 510.693 922.735Z" fill="#E0E0E0"/>
<path d="M510.693 937.611L556.751 911.03C558.242 910.174 559.479 911.03 559.479 912.616V913.726C559.423 914.676 559.147 915.6 558.674 916.426C558.201 917.252 557.542 917.956 556.751 918.484L510.693 945.066C509.171 945.922 507.934 945.224 507.934 943.48V942.369C507.988 941.415 508.266 940.488 508.746 939.661C509.225 938.835 509.892 938.132 510.693 937.611Z" fill="#E0E0E0"/>
<path d="M419.656 647.278C419.021 647.067 418.704 646.464 418.704 645.47C418.742 644.505 418.935 643.552 419.275 642.647L422.701 631.736C422.919 630.75 423.414 629.848 424.128 629.134C424.362 629.007 424.623 628.94 424.889 628.94C425.156 628.94 425.417 629.007 425.651 629.134C427.414 629.873 429.335 630.155 431.237 629.956C433.138 629.756 434.959 629.081 436.531 627.993C439.366 626.339 441.592 623.813 442.875 620.792C444.358 617.084 445.06 613.111 444.937 609.119V545.14C444.878 543.293 445.213 541.455 445.92 539.748C446.681 538.173 447.926 536.883 449.472 536.068L456.514 532.008C458.1 531.088 459.242 530.961 459.908 531.659C460.747 532.919 461.107 534.438 460.923 535.941V600.142C461.037 609.152 459.13 618.073 455.341 626.248C451.888 633.773 446.179 640.037 439.005 644.17C431.371 648.589 424.921 649.626 419.656 647.278Z" fill="#26256B"/>
<path d="M476.785 608.738C471.096 602.902 468.252 591.726 468.252 575.21C467.928 560.31 470.839 545.516 476.785 531.849C481.853 520.16 490.506 510.385 501.494 503.936C512.248 497.592 520.526 497.592 526.141 503.365C531.755 509.138 534.674 520.335 534.674 536.861C534.997 551.762 532.086 566.555 526.141 580.222C521.085 591.892 512.455 601.655 501.494 608.104C490.71 614.321 482.473 614.533 476.785 608.738ZM514.595 574.354C517.822 565.193 519.328 555.514 519.036 545.806C519.036 534.366 517.555 526.584 514.595 522.46C511.645 518.336 507.299 517.956 501.494 521.286C495.341 525.058 490.679 530.84 488.299 537.654C485.078 546.816 483.583 556.495 483.89 566.202C483.89 577.621 485.349 585.424 488.299 589.516C491.249 593.608 495.658 594.02 501.494 590.626C507.622 586.892 512.255 581.137 514.595 574.354Z" fill="#26256B"/>
<path d="M543.49 580.127C542.653 578.902 542.292 577.413 542.475 575.94V488.932C542.423 487.072 542.769 485.223 543.49 483.508C544.148 482.036 545.26 480.813 546.662 480.019L574.576 463.873C581.597 459.834 586.883 459.284 590.436 462.224C593.989 465.163 595.733 470.979 595.67 479.67C595.672 484.268 594.955 488.838 593.544 493.214C592.312 497.274 590.32 501.062 587.676 504.38C594.211 503.936 597.478 509.434 597.478 520.874C597.476 526.488 596.631 532.069 594.972 537.432C593.302 542.844 590.717 547.93 587.327 552.467C583.926 557.036 579.603 560.84 574.639 563.633L546.726 579.778C545.235 580.635 544.156 580.761 543.49 580.127ZM572.038 505.775C574.585 504.285 576.637 502.079 577.938 499.431C579.421 496.404 580.151 493.063 580.063 489.693C580.063 485.697 579.397 483.349 578.097 482.239C576.796 481.129 574.766 481.605 572.038 483.159L558.272 491.152V513.864L572.038 505.775ZM573.561 546.567C576.395 544.97 578.624 542.484 579.905 539.494C581.305 536.273 582.007 532.792 581.967 529.28C581.967 525.093 581.174 522.397 579.588 521.223C578.002 520.049 575.75 520.271 572.895 521.921L558.272 530.327V555.417L573.561 546.567Z" fill="#26256B"/>
<path d="M611.593 542.095C607.975 543.156 604.108 543 600.587 541.651C600.171 541.469 599.816 541.173 599.563 540.796C599.31 540.42 599.17 539.979 599.159 539.525C599.2 538.734 599.36 537.953 599.635 537.21L603.568 525.41C603.728 524.564 604.163 523.794 604.805 523.221C605.025 523.105 605.27 523.044 605.519 523.044C605.768 523.044 606.013 523.105 606.233 523.221C608.872 523.927 611.635 524.036 614.321 523.539C617.577 522.954 620.703 521.794 623.552 520.113C626.855 518.333 629.675 515.774 631.767 512.659C633.603 509.609 634.527 506.098 634.432 502.54C634.592 500.549 634.138 498.556 633.131 496.83C632.204 495.619 630.836 494.821 629.325 494.61C626.749 494.266 624.152 494.097 621.553 494.102C618.067 494.184 614.587 493.778 611.213 492.897C608.298 492.009 605.82 490.063 604.266 487.441C602.187 483.551 601.242 479.155 601.538 474.753C601.422 465.936 603.702 457.253 608.136 449.631C612.265 442.395 618.242 436.385 625.455 432.217C634.971 426.729 642.172 425.302 647.183 427.871C647.582 428.075 647.923 428.377 648.173 428.749C648.422 429.12 648.573 429.55 648.611 429.996C648.57 430.788 648.41 431.569 648.135 432.312L644.233 444.112C644.076 444.95 643.64 445.71 642.996 446.269C642.779 446.394 642.533 446.46 642.283 446.46C642.032 446.46 641.786 446.394 641.569 446.269C637.699 444.598 633.004 445.349 627.485 448.521C624.303 450.16 621.648 452.664 619.824 455.744C618.001 458.825 617.083 462.357 617.176 465.935C617.033 467.853 617.452 469.771 618.381 471.454C619.111 472.577 620.248 473.373 621.553 473.675C623.73 474.068 625.94 474.249 628.151 474.214H630.816C634.527 474.228 638.215 474.795 641.759 475.895C644.47 476.882 646.682 478.9 647.913 481.51C649.564 485.526 650.29 489.862 650.038 494.198C650.044 502.587 647.857 510.831 643.694 518.114C639.444 525.664 633.186 531.889 625.614 536.1C621.283 538.819 616.552 540.842 611.593 542.095Z" fill="#26256B"/>
<path d="M1007.97 236.853L995.088 229.399C994.153 228.964 993.119 228.788 992.092 228.888C991.066 228.989 990.085 229.362 989.252 229.97L825.355 324.813C822.959 326.381 820.965 328.49 819.533 330.969C818.1 333.448 817.27 336.228 817.107 339.087V676.905C816.998 677.927 817.164 678.96 817.588 679.897C818.012 680.834 818.678 681.641 819.518 682.234L832.206 689.656H832.396C833.308 690.024 834.297 690.156 835.273 690.04C836.249 689.923 837.18 689.562 837.979 688.99L881.277 663.995V690.037C881.277 694.636 882.006 697.301 883.212 698.03L895.9 705.421C897.359 706.214 899.484 704.184 901.863 699.077L932.568 634.051L1001.62 593.957C1004.02 592.389 1006.01 590.28 1007.44 587.801C1008.88 585.322 1009.71 582.542 1009.87 579.683V242.151C1010.03 241.179 1009.94 240.182 1009.6 239.256C1009.27 238.329 1008.71 237.502 1007.97 236.853Z" fill="#26256B"/>
<path opacity="0.4" d="M1007.65 236.663C1006.74 236.337 1005.76 236.233 1004.8 236.36C1003.84 236.487 1002.93 236.841 1002.13 237.392L838.201 332.267C835.82 333.749 833.855 335.812 832.492 338.262L819.613 330.808C820.968 328.351 822.935 326.286 825.323 324.813L989.22 229.938C990.321 229.262 991.577 228.88 992.868 228.828C993.632 228.814 994.387 229 995.057 229.367L1007.65 236.663Z" fill="white"/>
<path opacity="0.2" d="M883.434 698.157C882.26 697.428 881.531 694.763 881.531 690.164V664.153L894.504 656.604V697.523C894.504 701.9 895.17 704.565 896.217 705.453L883.434 698.157Z" fill="black"/>
<path opacity="0.1" d="M832.46 689.688L819.582 682.266C818.76 681.665 818.108 680.861 817.691 679.932C817.274 679.003 817.105 677.982 817.203 676.968V339.087C817.318 336.154 818.193 333.302 819.74 330.808L832.618 338.262C831.079 340.758 830.216 343.611 830.113 346.541V684.359C829.993 685.376 830.148 686.406 830.56 687.343C830.973 688.28 831.629 689.09 832.46 689.688Z" fill="black"/>
<path d="M862.595 347.905L977.707 281.293C981.513 279.104 984.59 280.881 984.59 285.258V358.436C984.46 360.825 983.77 363.15 982.574 365.222C981.378 367.294 979.71 369.055 977.707 370.363L862.595 436.975C858.82 439.163 855.743 437.387 855.743 433.01V359.8C855.874 357.419 856.562 355.103 857.752 353.037C858.942 350.97 860.601 349.213 862.595 347.905Z" fill="white"/>
<path d="M984.59 388.856C984.422 391.166 983.712 393.405 982.515 395.389C981.319 397.374 979.672 399.048 977.707 400.275L862.595 466.728C858.82 468.917 855.743 467.363 855.743 463.239C855.915 460.937 856.624 458.708 857.814 456.73C859.004 454.752 860.641 453.081 862.595 451.852L977.707 385.398C981.513 383.209 984.59 384.764 984.59 388.856Z" fill="white"/>
<path d="M984.59 418.704C984.422 421.015 983.712 423.253 982.515 425.238C981.319 427.222 979.672 428.896 977.707 430.123L862.595 496.735C858.82 498.924 855.743 497.37 855.743 493.246C855.915 490.944 856.624 488.715 857.814 486.737C859.004 484.759 860.641 483.088 862.595 481.858L977.707 415.246C981.513 412.963 984.59 414.517 984.59 418.704Z" fill="white"/>
<path d="M984.59 448.362C984.422 450.673 983.712 452.912 982.515 454.896C981.319 456.88 979.672 458.554 977.707 459.781L862.595 526.393C858.82 528.582 855.743 527.028 855.743 522.904C855.915 520.602 856.624 518.373 857.814 516.395C859.004 514.417 860.641 512.746 862.595 511.517L977.707 444.905C981.513 442.716 984.59 444.27 984.59 448.362Z" fill="white"/>
<path d="M984.59 478.116C984.422 480.427 983.712 482.665 982.515 484.649C981.319 486.634 979.672 488.308 977.707 489.535L862.595 555.988C858.82 558.177 855.743 556.623 855.743 552.499C855.915 550.197 856.624 547.968 857.814 545.99C859.004 544.012 860.641 542.341 862.595 541.112L977.707 474.5C981.513 472.628 984.59 474.024 984.59 478.116Z" fill="white"/>
<path d="M855.743 582.284C855.743 586.376 858.915 587.93 862.595 585.742L874.648 578.795C876.602 577.565 878.239 575.894 879.429 573.917C880.619 571.939 881.328 569.709 881.5 567.408C881.5 563.284 878.328 561.73 874.648 563.918L862.595 570.865C860.637 572.098 858.997 573.774 857.807 575.757C856.617 577.741 855.91 579.977 855.743 582.284Z" fill="white"/>
<path d="M898.945 557.384C898.945 561.476 902.117 563.03 905.828 560.841L977.706 519.288C979.671 518.061 981.318 516.387 982.514 514.403C983.711 512.418 984.421 510.18 984.589 507.869C984.589 503.777 981.417 502.223 977.706 504.411L905.828 545.965C903.863 547.192 902.215 548.866 901.019 550.85C899.823 552.834 899.112 555.073 898.945 557.384Z" fill="white"/>
<path d="M855.743 612.196C855.743 616.288 858.915 617.842 862.595 615.653L874.648 608.707C876.602 607.477 878.239 605.806 879.429 603.828C880.619 601.851 881.328 599.621 881.5 597.319C881.5 593.196 878.328 591.641 874.648 593.83L862.595 600.777C860.637 602.01 858.997 603.685 857.807 605.669C856.617 607.653 855.91 609.889 855.743 612.196Z" fill="white"/>
<path d="M898.945 587.137C898.945 591.229 902.117 592.783 905.828 590.595L977.706 549.042C979.671 547.814 981.318 546.14 982.514 544.156C983.711 542.172 984.421 539.933 984.589 537.622C984.589 533.53 981.417 531.976 977.706 534.165L905.828 575.718C903.863 576.945 902.215 578.619 901.019 580.603C899.823 582.588 899.112 584.826 898.945 587.137Z" fill="white"/>
<path d="M855.743 641.791C855.743 645.883 858.915 647.437 862.595 645.248L874.648 638.302C876.602 637.072 878.239 635.401 879.429 633.423C880.619 631.446 881.328 629.216 881.5 626.914C881.5 622.791 878.328 621.236 874.648 623.425L862.595 630.372C860.637 631.604 858.997 633.28 857.807 635.264C856.617 637.248 855.91 639.484 855.743 641.791Z" fill="white"/>
<path d="M898.945 616.891C898.945 620.982 902.117 622.537 905.828 620.348L977.706 578.795C979.667 577.571 981.312 575.902 982.508 573.923C983.703 571.945 984.416 569.713 984.589 567.407C984.589 563.284 981.417 561.729 977.706 563.918L905.828 605.471C903.863 606.699 902.215 608.373 901.019 610.357C899.823 612.341 899.112 614.58 898.945 616.891Z" fill="white"/>
<path d="M1162.66 325.923L1149.98 318.469C1149.04 318.034 1148.01 317.858 1146.98 317.958C1145.95 318.058 1144.97 318.432 1144.14 319.04L980.148 413.851C977.753 415.419 975.759 417.528 974.326 420.007C972.894 422.486 972.063 425.266 971.901 428.125V765.943C971.792 766.965 971.958 767.998 972.381 768.935C972.805 769.872 973.472 770.679 974.312 771.272L987.158 778.694H987.317C988.233 779.065 989.228 779.198 990.209 779.082C991.191 778.966 992.127 778.603 992.931 778.028L1036.23 753.033V779.075C1036.23 783.674 1036.96 786.339 1038.13 787.068L1050.82 794.459H1050.98C1052.44 795.252 1054.56 793.222 1056.91 788.115L1087.65 723.089L1156.7 682.995C1159.1 681.427 1161.09 679.318 1162.52 676.839C1163.96 674.36 1164.79 671.58 1164.95 668.721V331.22C1165.06 330.215 1164.91 329.197 1164.51 328.268C1164.11 327.339 1163.47 326.53 1162.66 325.923Z" fill="#26256B"/>
<path opacity="0.4" d="M1162.32 325.733C1161.4 325.407 1160.43 325.303 1159.47 325.43C1158.51 325.557 1157.59 325.911 1156.8 326.462L992.836 421.337C990.455 422.818 988.49 424.881 987.126 427.332L974.248 419.878C975.612 417.427 977.577 415.364 979.958 413.883L1143.89 319.008C1144.98 318.325 1146.24 317.943 1147.53 317.898C1148.29 317.888 1149.03 318.073 1149.69 318.437L1162.32 325.733Z" fill="white"/>
<path opacity="0.2" d="M1038.1 787.227C1036.93 786.497 1036.2 783.833 1036.2 779.234V753.223L1049.08 745.769V786.656C1049.08 791.033 1049.74 793.698 1050.82 794.586L1038.1 787.227Z" fill="black"/>
<path opacity="0.1" d="M987.126 778.758L974.28 771.335C973.453 770.739 972.798 769.935 972.38 769.006C971.963 768.076 971.797 767.052 971.901 766.038V428.22C972.004 425.29 972.867 422.437 974.407 419.941L987.285 427.395C985.746 429.891 984.882 432.744 984.779 435.674V773.492C984.671 774.499 984.832 775.516 985.244 776.441C985.656 777.366 986.305 778.165 987.126 778.758Z" fill="black"/>
<path d="M1017.29 436.975L1132.4 370.363C1136.18 368.174 1139.26 369.95 1139.26 374.328V447.696C1139.13 450.082 1138.44 452.404 1137.25 454.475C1136.06 456.547 1134.4 458.31 1132.4 459.623L1017.29 526.235C1013.49 528.424 1010.41 526.647 1010.41 522.27V448.87C1010.54 446.485 1011.23 444.165 1012.43 442.098C1013.62 440.031 1015.29 438.275 1017.29 436.975Z" fill="white"/>
<path d="M1139.26 477.925C1139.09 480.233 1138.38 482.468 1137.19 484.452C1136 486.436 1134.36 488.112 1132.4 489.344L1017.29 555.798C1013.49 557.987 1010.41 556.432 1010.41 552.309C1010.58 550.003 1011.29 547.771 1012.49 545.793C1013.69 543.814 1015.33 542.145 1017.29 540.921L1132.4 474.468C1136.18 472.279 1139.26 473.833 1139.26 477.925Z" fill="white"/>
<path d="M1139.26 507.679C1139.09 509.986 1138.38 512.222 1137.19 514.206C1136 516.189 1134.36 517.865 1132.4 519.098L1017.29 585.551C1013.49 587.74 1010.41 586.186 1010.41 582.062C1010.58 579.757 1011.29 577.524 1012.49 575.546C1013.69 573.568 1015.33 571.899 1017.29 570.675L1132.4 504.348C1136.18 502.032 1139.26 503.587 1139.26 507.679Z" fill="white"/>
<path d="M1139.26 537.432C1139.07 539.723 1138.36 541.94 1137.17 543.906C1135.98 545.872 1134.35 547.533 1132.4 548.756L1017.29 615.368C1013.49 617.557 1010.41 616.002 1010.41 611.879C1010.58 609.574 1011.29 607.341 1012.49 605.363C1013.69 603.384 1015.33 601.716 1017.29 600.491L1132.4 533.975C1136.18 531.786 1139.26 533.34 1139.26 537.432Z" fill="white"/>
<path d="M1139.26 567.185C1139.09 569.493 1138.38 571.729 1137.19 573.712C1136 575.696 1134.36 577.372 1132.4 578.605L1017.29 645.217C1013.49 647.405 1010.41 645.851 1010.41 641.727C1010.58 639.422 1011.29 637.19 1012.49 635.211C1013.69 633.233 1015.33 631.564 1017.29 630.34L1132.4 563.728C1136.18 561.444 1139.26 563.093 1139.26 567.185Z" fill="white"/>
<path d="M1010.41 671.354C1010.41 675.446 1013.58 677 1017.29 674.811L1029.31 667.865C1031.27 666.641 1032.92 664.972 1034.12 662.993C1035.31 661.015 1036.02 658.783 1036.2 656.477C1036.2 652.354 1033.03 650.799 1029.31 652.988L1017.29 659.935C1015.33 661.162 1013.68 662.836 1012.48 664.82C1011.29 666.804 1010.58 669.043 1010.41 671.354Z" fill="white"/>
<path d="M1053.64 646.454C1053.64 650.546 1056.82 652.1 1060.53 649.911L1132.4 608.358C1134.36 607.125 1136 605.449 1137.19 603.466C1138.38 601.482 1139.09 599.246 1139.26 596.939C1139.26 592.847 1136.08 591.293 1132.4 593.481L1060.49 635.034C1058.54 636.267 1056.9 637.943 1055.71 639.927C1054.52 641.91 1053.81 644.146 1053.64 646.454Z" fill="white"/>
<path d="M1010.41 701.012C1010.41 705.104 1013.58 706.658 1017.29 704.47L1029.31 697.523C1031.27 696.299 1032.92 694.63 1034.12 692.651C1035.31 690.673 1036.02 688.441 1036.2 686.135C1036.2 682.012 1033.03 680.458 1029.31 682.646L1017.29 689.593C1015.33 690.82 1013.68 692.494 1012.48 694.478C1011.29 696.463 1010.58 698.701 1010.41 701.012Z" fill="white"/>
<path d="M1053.64 676.207C1053.64 680.299 1056.82 681.853 1060.53 679.665L1132.4 638.111C1134.36 636.879 1136 635.203 1137.19 633.219C1138.38 631.235 1139.09 629 1139.26 626.692C1139.26 622.6 1136.08 621.046 1132.4 623.235L1060.49 664.788C1058.54 666.021 1056.9 667.697 1055.71 669.68C1054.52 671.664 1053.81 673.9 1053.64 676.207Z" fill="white"/>
<path d="M1010.41 730.861C1010.41 734.953 1013.58 736.507 1017.29 734.318L1029.31 727.371C1031.27 726.147 1032.92 724.478 1034.12 722.5C1035.31 720.522 1036.02 718.289 1036.2 715.984C1036.2 711.86 1033.03 710.306 1029.31 712.495L1017.29 719.441C1015.33 720.669 1013.68 722.343 1012.48 724.327C1011.29 726.311 1010.58 728.55 1010.41 730.861Z" fill="white"/>
<path d="M1053.64 705.96C1053.64 710.052 1056.82 711.607 1060.53 709.418L1132.4 667.865C1134.36 666.635 1135.99 664.964 1137.18 662.986C1138.37 661.009 1139.08 658.779 1139.26 656.477C1139.26 652.354 1136.08 650.799 1132.4 652.988L1060.49 694.668C1058.55 695.888 1056.92 697.544 1055.73 699.504C1054.54 701.465 1053.83 703.675 1053.64 705.96Z" fill="white"/>
<path d="M1330.27 505.363L1313.21 495.593H1313.05C1305.53 491.343 1295.22 491.977 1283.8 498.575C1260.81 511.834 1242.19 544.125 1242.19 570.674C1242.19 583.933 1246.82 593.227 1254.34 597.605L1269.75 606.391L1273.43 600.237C1277.63 599.302 1281.66 597.741 1285.39 595.606C1308.36 582.316 1327.01 550.025 1327.01 523.475C1326.99 519.894 1326.56 516.328 1325.71 512.849L1330.27 505.363Z" fill="#26256B"/>
<path d="M1242.28 570.611C1242.28 583.87 1246.91 593.164 1254.43 597.541L1269.85 606.328L1273.53 600.174C1277.72 599.227 1281.75 597.655 1285.48 595.511C1298.64 587.226 1309.31 575.544 1316.38 561.698L1256.11 526.806C1247.64 539.894 1242.86 555.03 1242.28 570.611Z" fill="#263238"/>
<path d="M1330.31 505.363L1313.37 495.593H1313.21C1305.69 491.343 1295.38 491.977 1283.96 498.575C1272.55 505.636 1263.02 515.355 1256.18 526.901L1316.44 561.793C1323.06 550.041 1326.73 536.86 1327.13 523.38C1327.12 519.799 1326.68 516.232 1325.83 512.754L1330.31 505.363Z" fill="#26256B"/>
<path d="M1299.98 507.742C1277.02 521.001 1258.36 553.292 1258.36 579.842C1258.36 606.391 1277.02 617.144 1299.98 603.885C1322.95 590.626 1341.76 558.272 1341.76 531.786C1341.76 505.3 1322.98 494.483 1299.98 507.742Z" fill="#37474F"/>
<path d="M1321.17 565.282L1278.82 589.738C1278.32 590.024 1277.93 589.738 1277.93 588.882V551.325C1277.92 550.961 1278 550.599 1278.15 550.269C1278.31 549.938 1278.54 549.649 1278.82 549.422L1321.17 524.966C1321.64 524.68 1322.06 524.966 1322.06 525.822V563.411C1322.06 563.77 1321.98 564.125 1321.83 564.45C1321.68 564.774 1321.45 565.059 1321.17 565.282Z" fill="#FAFAFA"/>
<path d="M1308.32 534.863C1307.85 535.148 1307.43 534.863 1307.43 534.006V528.297L1292.56 536.893V542.602C1292.56 542.969 1292.48 543.333 1292.32 543.663C1292.16 543.994 1291.93 544.282 1291.64 544.505C1291.16 544.791 1290.75 544.505 1290.75 543.649V536.544C1290.75 536.185 1290.82 535.829 1290.98 535.505C1291.13 535.18 1291.36 534.895 1291.64 534.672L1308.32 525.156C1308.83 524.871 1309.21 525.156 1309.21 526.013V532.896C1309.24 533.272 1309.17 533.648 1309.01 533.991C1308.86 534.334 1308.62 534.633 1308.32 534.863Z" fill="#FAFAFA"/>
<path d="M1308.32 527.789L1291.64 537.305C1291.16 537.591 1290.75 537.305 1290.75 536.449V533.277C1290.75 532.913 1290.83 532.554 1290.98 532.225C1291.13 531.895 1291.36 531.605 1291.64 531.373L1308.32 521.857C1308.83 521.572 1309.21 521.857 1309.21 522.714V525.886C1309.22 526.25 1309.15 526.612 1308.99 526.942C1308.84 527.273 1308.61 527.563 1308.32 527.789Z" fill="#FAFAFA"/>
<path d="M1306.04 551.23L1293.92 558.209C1293.57 558.431 1293.29 558.209 1293.29 557.574V555.29C1293.28 555.03 1293.34 554.771 1293.45 554.535C1293.56 554.299 1293.72 554.09 1293.92 553.926L1306.04 546.948C1306.42 546.726 1306.71 546.948 1306.71 547.551V549.834C1306.71 550.103 1306.65 550.369 1306.54 550.612C1306.42 550.854 1306.25 551.066 1306.04 551.23Z" fill="#37474F"/>
<path d="M1330.27 350.189L1313.21 340.387H1313.05C1305.53 336.137 1295.22 336.771 1283.8 343.369C1260.81 356.66 1242.19 388.919 1242.19 415.468C1242.19 428.727 1246.82 438.053 1254.34 442.399L1269.75 451.185L1273.43 445.032C1277.63 444.111 1281.66 442.549 1285.39 440.4C1308.36 427.11 1327.01 394.851 1327.01 368.301C1326.99 364.709 1326.56 361.132 1325.71 357.643L1330.27 350.189Z" fill="#26256B"/>
<path d="M1242.28 415.532C1242.28 428.791 1246.91 438.117 1254.43 442.462L1269.85 451.249L1273.53 445.095C1277.73 444.174 1281.76 442.612 1285.48 440.464C1298.66 432.131 1309.33 420.393 1316.38 406.492L1256.11 371.6C1247.62 384.725 1242.84 399.907 1242.28 415.532Z" fill="#263238"/>
<path d="M1330.31 350.189L1313.37 340.387H1313.21C1305.69 336.169 1295.38 336.771 1283.96 343.369C1272.55 350.43 1263.02 360.149 1256.18 371.695L1316.44 406.587C1323.02 394.889 1326.68 381.777 1327.1 368.364C1327.09 364.773 1326.65 361.195 1325.8 357.706L1330.31 350.189Z" fill="#26256B"/>
<path d="M1299.98 352.536C1277.02 365.827 1258.36 398.086 1258.36 424.636C1258.36 451.185 1277.02 461.97 1299.98 448.679C1322.95 435.389 1341.76 403.129 1341.76 376.58C1341.76 350.03 1322.98 339.404 1299.98 352.536Z" fill="#37474F"/>
<path d="M1284.66 394.787C1284.66 388.76 1287.83 382.099 1291.77 379.752C1295.7 377.405 1298.87 380.545 1298.87 386.603C1298.87 392.662 1295.7 399.291 1291.77 401.639C1287.83 403.986 1284.66 400.846 1284.66 394.787Z" fill="white"/>
<path d="M1304.45 425.238L1278.32 440.337L1279.71 422.954C1280.31 415.564 1284.22 407.983 1288.85 405.318L1293.89 402.4C1298.52 399.735 1302.42 402.781 1303.03 409.505L1304.45 425.238Z" fill="white"/>
<path d="M1301.92 376.675C1301.92 370.648 1305.09 363.987 1309.02 361.64C1312.95 359.292 1316.13 362.433 1316.13 368.491C1316.13 374.55 1312.95 381.179 1309.02 383.526C1305.09 385.874 1301.92 382.733 1301.92 376.675Z" fill="white"/>
<path d="M1321.65 407.126L1305.63 416.388L1304.9 408.078C1304.36 402.241 1301.73 398.562 1298.24 398.562C1299.46 394.014 1302.23 390.034 1306.07 387.301L1311.11 384.415C1315.75 381.718 1319.65 384.764 1320.25 391.488L1321.65 407.126Z" fill="white"/>
<path d="M896.09 998.609C896.09 978.943 883.085 959.276 857.075 944.273C805.086 914.234 720.679 914.234 668.785 944.273C642.774 959.276 629.769 978.943 629.769 998.609V1034.86C629.769 1054.53 642.774 1074.2 668.785 1089.23C720.774 1119.24 805.181 1119.24 857.075 1089.23C883.085 1074.2 896.09 1054.53 896.09 1034.86V998.609ZM675.224 955.406C698.443 941.989 729.592 934.63 762.93 934.63C796.267 934.63 827.416 941.989 850.635 955.406C871.634 967.523 883.212 982.876 883.212 998.609C883.212 1014.34 871.634 1029.69 850.635 1041.81C827.416 1055.23 796.172 1062.62 762.93 1062.62C729.687 1062.62 698.443 1055.23 675.224 1041.81C654.225 1029.69 642.647 1014.34 642.647 998.609C642.647 982.876 654.225 967.46 675.224 955.406Z" fill="#26256B"/>
<path opacity="0.3" d="M668.754 1053.1C720.775 1083.11 805.15 1083.11 857.076 1053.1C909.001 1023.1 909.065 974.407 857.076 944.4C805.087 914.393 720.68 914.361 668.754 944.4C616.829 974.439 616.765 1022.97 668.754 1053.1ZM642.649 998.736C642.649 982.876 654.195 967.65 675.193 955.533C698.412 942.116 729.593 934.757 762.931 934.757C796.269 934.757 827.418 942.116 850.637 955.533C871.635 967.65 883.181 983.003 883.181 998.736C883.181 1014.47 871.635 1029.82 850.637 1041.94C827.418 1055.23 796.173 1062.62 762.931 1062.62C729.688 1062.62 698.412 1055.23 675.193 1041.81C654.195 1029.69 642.649 1014.34 642.649 998.609V998.736Z" fill="white"/>
<path d="M642.647 998.609C642.725 1005.01 644.521 1011.28 647.85 1016.75C653.115 1007.62 662.409 999.021 675.224 991.662C698.411 978.245 729.592 970.854 762.93 970.854C796.267 970.854 827.416 978.245 850.636 991.662C861.777 997.53 871.216 1006.17 878.042 1016.75C881.347 1011.27 883.132 1005.01 883.212 998.609C883.212 982.749 871.634 967.523 850.636 955.406C827.416 942.021 796.267 934.63 762.93 934.63C729.592 934.63 698.411 942.021 675.224 955.406C654.194 967.46 642.647 982.876 642.647 998.609Z" fill="#26256B"/>
<path opacity="0.1" d="M642.647 998.609C642.725 1005.01 644.521 1011.28 647.85 1016.75C653.115 1007.62 662.409 999.021 675.224 991.662C698.411 978.245 729.592 970.854 762.93 970.854C796.267 970.854 827.416 978.245 850.636 991.662C861.777 997.53 871.216 1006.17 878.042 1016.75C881.347 1011.27 883.132 1005.01 883.212 998.609C883.212 982.749 871.634 967.523 850.636 955.406C827.416 942.021 796.267 934.63 762.93 934.63C729.592 934.63 698.411 942.021 675.224 955.406C654.194 967.46 642.647 982.876 642.647 998.609Z" fill="black"/>
<path opacity="0.4" d="M675.193 971.806C698.412 958.42 729.593 951.029 762.931 951.029C796.269 951.029 827.418 958.42 850.637 971.806C867.956 981.829 878.836 994.01 882.135 1006.7C878.963 1019.39 867.956 1031.69 850.637 1041.59C827.418 1055.23 796.173 1062.62 762.931 1062.62C729.688 1062.62 698.412 1055.23 675.193 1041.81C657.874 1031.82 646.994 1019.61 643.727 1006.92C647.089 994.01 657.874 981.829 675.193 971.806Z" fill="white"/>
<path opacity="0.1" d="M731.56 1073.34V1109.57C709.534 1106.84 688.23 1099.94 668.786 1089.23C642.776 1074.2 629.77 1054.53 629.77 1034.87V998.609C629.78 994.603 630.314 990.614 631.356 986.746C625.012 1010.16 637.51 1034.93 668.754 1052.98C688.206 1063.69 709.521 1070.61 731.56 1073.34Z" fill="black"/>
<path d="M672.718 1076.04C672.555 1072.8 671.632 1069.65 670.023 1066.84C668.413 1064.03 666.163 1061.64 663.456 1059.86C662.52 1059.17 661.42 1058.75 660.267 1058.63C659.113 1058.5 657.948 1058.69 656.889 1059.16L612.196 1084.82C611.236 1085.48 610.474 1086.38 609.993 1087.44C609.512 1088.5 609.33 1089.67 609.468 1090.82C609.607 1094.04 610.5 1097.19 612.075 1100C613.651 1102.82 615.865 1105.22 618.54 1107.03C619.48 1107.72 620.588 1108.14 621.748 1108.26C622.908 1108.38 624.079 1108.18 625.138 1107.69L669.958 1082.13C670.919 1081.45 671.681 1080.53 672.167 1079.46C672.652 1078.39 672.842 1077.21 672.718 1076.04Z" fill="#37474F"/>
<path d="M669.96 1082.1C670.915 1081.42 671.675 1080.51 672.16 1079.44C672.644 1078.38 672.838 1077.2 672.719 1076.04C672.68 1073.63 672.151 1071.26 671.165 1069.06L613.339 1102.11C614.727 1104.08 616.496 1105.75 618.541 1107.03C619.482 1107.72 620.589 1108.14 621.75 1108.26C622.91 1108.38 624.08 1108.18 625.139 1107.69L669.96 1082.13V1082.1Z" fill="#263238"/>
<path d="M626.09 1107.03C625.885 1102.81 624.685 1098.7 622.591 1095.04C620.496 1091.37 617.565 1088.25 614.037 1085.93C612.833 1085.06 611.421 1084.51 609.941 1084.35C608.46 1084.19 606.964 1084.42 605.599 1085.01L456.928 1164.31L479.132 1203.52L622.633 1114.7C623.829 1113.84 624.777 1112.67 625.383 1111.33C625.99 1109.98 626.233 1108.5 626.09 1107.03Z" fill="#26256B"/>
<path opacity="0.1" d="M478.973 1203.49L622.475 1114.67C623.718 1113.81 624.707 1112.62 625.338 1111.25C625.968 1109.87 626.217 1108.35 626.059 1106.84C625.878 1102.32 624.487 1097.94 622.031 1094.15L467.554 1183.16L478.973 1203.49Z" fill="black"/>
<path d="M467.775 1202.19C463.142 1199.15 459.291 1195.06 456.535 1190.26C453.779 1185.45 452.196 1180.06 451.915 1174.53C451.915 1164.38 459.084 1160.29 467.775 1165.39C472.408 1168.42 476.259 1172.51 479.015 1177.31C481.771 1182.11 483.354 1187.49 483.635 1193.02C483.698 1203.33 476.561 1207.42 467.775 1202.19Z" fill="#26256B"/>
<g opacity="0.2">
<path d="M467.775 1202.19C463.142 1199.15 459.291 1195.06 456.535 1190.26C453.779 1185.45 452.196 1180.06 451.915 1174.53C451.915 1164.38 459.084 1160.29 467.775 1165.39C472.408 1168.42 476.259 1172.51 479.015 1177.31C481.771 1182.11 483.354 1187.49 483.635 1193.02C483.698 1203.33 476.561 1207.42 467.775 1202.19Z" fill="black"/>
</g>
<path d="M1344.07 851.872C1345.69 791.604 1340.9 777.108 1324.82 766.038L1318.48 800.93C1318.48 800.93 1325.8 842.166 1325.01 855.837C1324.34 867.891 1323.17 882.99 1320.32 892.728C1319.79 894.441 1318.67 895.907 1317.14 896.851C1313.82 899.219 1310.85 902.05 1308.32 905.257C1305.91 907.795 1303.85 908.429 1304.17 909.222C1304.63 910.107 1305.41 910.785 1306.35 911.12C1307.29 911.456 1308.33 911.423 1309.24 911.03C1311.3 910.214 1313.25 909.148 1315.05 907.858C1313.63 911.557 1311.63 915.005 1309.12 918.072C1303.38 925.082 1303.12 929.396 1314.7 929.523C1321.96 929.523 1327.77 925.114 1333.23 909.127C1335.33 903.266 1337.04 897.267 1338.33 891.173C1341.05 878.203 1342.96 865.078 1344.07 851.872Z" fill="#FFA8A7"/>
<path d="M1311.31 761.47C1316.24 760.589 1321.33 761.334 1325.8 763.593C1330.28 765.853 1333.89 769.505 1336.11 774C1342.84 786.022 1344.49 806.735 1345.25 827.321C1345.25 827.321 1331.89 838.518 1315.84 833.031L1311.31 761.47Z" fill="#26256B"/>
<path d="M1333.86 1093.26C1335.06 1093.74 1335.38 1096.05 1335.57 1100.65C1335.57 1104.14 1336.43 1110.17 1332.4 1111.47C1328.37 1112.77 1322.31 1112.04 1319.71 1108.77C1316.54 1104.65 1314.22 1101.06 1309.56 1096.08C1305.5 1091.74 1301.12 1087.68 1299.51 1081.59C1298.01 1076.07 1299.25 1073.69 1303 1072.07C1308.17 1069.88 1316.29 1077.08 1320.35 1078.19C1323.77 1079.15 1332.62 1092.82 1333.86 1093.26Z" fill="#263238"/>
<path d="M1333.86 1089.01V1094.66C1331.74 1096.02 1329.28 1096.77 1326.76 1096.84C1324.24 1096.91 1321.75 1096.29 1319.55 1095.04C1319.3 1094.5 1318.06 1086.95 1318.06 1086.95L1333.86 1089.01Z" fill="#FFA8A7"/>
<path d="M1287.99 1126.06C1288.99 1129.09 1289.83 1132.17 1290.5 1135.29C1291.19 1138.72 1292.21 1144.43 1291 1147C1289.8 1149.56 1285.14 1151.25 1277.87 1151.18C1271.85 1151.92 1266.05 1153.94 1260.87 1157.11C1254.12 1159.98 1246.77 1161.15 1239.46 1160.51C1233.12 1159.78 1226.33 1156.04 1225.28 1153.37C1224.23 1150.71 1225.63 1147.92 1240.82 1141.44C1240.82 1141.44 1261.95 1134.56 1269.37 1126.44L1287.99 1126.06Z" fill="#263238"/>
<path d="M1287.99 1119.72V1126.31C1287.99 1128.72 1285.2 1132.31 1277.84 1132.02C1272.7 1131.83 1269.09 1130.47 1269.31 1126.22V1120.1L1287.99 1119.72Z" fill="#FFA8A7"/>
<path d="M1337.54 1013.9C1336.28 1003.87 1334.04 993.988 1330.85 984.398C1330.85 984.398 1332.88 959.022 1333.83 934.852C1334.87 908.81 1333.83 876.043 1334.27 869.54C1334.27 869.54 1250.21 852.538 1248.63 882.672C1247.04 912.806 1251.8 989.442 1252.94 1002.67C1254.08 1015.9 1256.11 1027.57 1258.94 1049.01C1261.76 1070.45 1269.21 1120.16 1269.21 1120.16C1272.12 1121.64 1275.34 1122.38 1278.6 1122.31C1281.86 1122.25 1285.05 1121.38 1287.9 1119.78C1287.9 1119.78 1293.83 1059.51 1293.19 1044.32C1292.72 1033 1290.78 1021.8 1287.42 1010.98C1287.42 1010.98 1289.01 986.143 1290.4 964.542C1291.8 942.94 1293.32 932.568 1293.57 923.306L1295.38 922.418C1295.38 922.418 1297.22 959.689 1298.24 972.916C1299.25 986.143 1301.41 998.831 1305.15 1023.38C1308.48 1044.7 1318.35 1089.8 1318.35 1089.8C1327.86 1095.01 1333.7 1089.14 1333.7 1089.14C1333.7 1089.14 1340.11 1032.39 1337.54 1013.9Z" fill="#37474F"/>
<path d="M1293.73 923.052C1293.73 923.052 1314.13 912.997 1324.34 904.02C1324.34 904.02 1314.83 917.374 1302.43 923.274C1302.43 923.274 1297.98 969.585 1298.02 968.665L1295.45 923.052H1293.73Z" fill="#263238"/>
<path d="M1275.59 751.923L1280.57 779.297L1305.28 777.489L1300.11 746.467L1275.59 751.923Z" fill="#FFA8A7"/>
<path d="M1331.42 775.491C1328.94 768.036 1319.52 759.948 1310.07 761.692C1296.07 764.092 1282.28 767.549 1268.8 772.033C1260.14 775.205 1252.28 782.596 1251.55 811.049C1251.55 811.049 1248.66 877.407 1248.6 890.349C1266.65 897.433 1286.31 899.376 1305.41 895.963C1331.42 890.285 1334.56 879.501 1334.56 879.501C1334.56 879.501 1334.87 831.921 1334.11 811.176C1333.32 793.571 1333.1 780.598 1331.42 775.491Z" fill="#F5F5F5"/>
<path d="M1256.49 718.617C1256.49 718.617 1250.15 728.609 1251.01 729.56C1251.86 730.512 1256.56 731.273 1256.56 731.273L1256.49 718.617Z" fill="#FFA8A7"/>
<path d="M1273.91 690.957C1260.84 694.129 1257.19 699.902 1256.4 720.774C1255.6 742.629 1257.98 749.322 1260.93 752.303C1262.9 754.238 1273.62 754.365 1279.05 752.747C1285.8 750.717 1301 744.944 1307.94 733.715C1316.09 720.615 1317.93 703.074 1308.7 696.095C1295.76 686.389 1279.24 689.72 1273.91 690.957Z" fill="#FFA8A7"/>
<path d="M1256.56 696.413C1259.56 700.788 1263.8 704.167 1268.74 706.119C1271.24 708.974 1269.85 720.107 1274.26 721.979C1274.26 721.979 1276.16 713.859 1282.98 714.715C1289.8 715.572 1290.94 724.231 1286.75 729.687C1282.57 735.143 1278.51 733.144 1278.51 733.144C1278.51 733.144 1278.98 744.659 1284.25 751.066C1289.72 752.131 1295.36 751.87 1300.71 750.305C1307.25 748.751 1316.35 740.313 1320.06 731.527C1327.93 712.97 1328.12 696.413 1316.25 691.718C1314.79 683.249 1308.04 679.601 1300.39 678.047C1283.93 674.653 1273.34 684.93 1260.68 684.01C1253.42 683.407 1252.05 688.705 1256.56 696.413Z" fill="#263238"/>
<path d="M1316.54 694.446L1324.28 689.625C1323.98 689.077 1323.58 688.595 1323.09 688.21C1322.6 687.825 1322.03 687.544 1321.43 687.385C1320.83 687.225 1320.2 687.191 1319.58 687.284C1318.97 687.376 1318.38 687.594 1317.85 687.924C1317.32 688.253 1316.86 688.687 1316.51 689.199C1316.15 689.712 1315.91 690.291 1315.79 690.902C1315.66 691.513 1315.67 692.143 1315.8 692.752C1315.93 693.361 1316.18 693.938 1316.54 694.446Z" fill="#263238"/>
<path d="M1164.12 821.326C1168.18 823.134 1216.08 858.533 1223.57 854.41C1231.05 850.286 1269.34 805.498 1269.34 805.498C1272.58 800.494 1274.3 794.661 1274.3 788.702C1274.3 782.743 1272.58 776.91 1269.34 771.906C1261.86 773.523 1255.21 777.793 1250.63 783.928C1244.28 793.634 1216.43 828.336 1216.43 828.336C1209.58 824.91 1202.73 821.421 1195.94 817.9C1190.33 814.982 1184.68 812.095 1179.19 808.955C1177.64 808.258 1176.19 807.362 1174.88 806.291C1172.15 803.626 1172.63 797.124 1172.69 793.603C1172.67 791.961 1172.74 790.319 1172.91 788.686C1173.16 786.656 1173.55 781.739 1169.9 783.294C1169.22 783.635 1168.63 784.136 1168.18 784.753C1167.61 785.495 1167.17 786.332 1166.88 787.227C1166.19 789.352 1166.41 791.699 1165.81 793.825C1165.73 794.149 1165.57 794.446 1165.33 794.681C1165.18 794.817 1164.99 794.918 1164.8 794.978C1164.6 795.038 1164.39 795.056 1164.19 795.03C1158.92 794.871 1153.91 787.481 1151.5 783.547C1150.62 781.68 1149.24 780.098 1147.5 778.98C1145.98 778.519 1144.34 778.581 1142.85 779.155C1141.36 779.73 1140.11 780.784 1139.29 782.152C1137.01 785.576 1136.07 789.721 1136.66 793.793C1137.13 799.325 1139.57 804.503 1143.54 808.384C1149.6 813.854 1156.57 818.232 1164.12 821.326Z" fill="#FFA8A7"/>
<path d="M1273.62 770.479C1268.36 771.081 1260.93 770.098 1250.59 781.232C1242.25 790.761 1234.46 800.77 1227.28 811.207C1228.64 816.685 1231.56 821.655 1235.67 825.525C1239.78 829.394 1244.92 832 1250.47 833.031C1250.47 833.031 1268.58 814.443 1273.62 804.229C1278.67 794.015 1279.87 777.394 1273.62 770.479Z" fill="#26256B"/>
</svg>
