<svg width="1586" height="1586" viewBox="0 0 1586 1586" fill="none" xmlns="http://www.w3.org/2000/svg">
<path d="M789.986 1541.75C1202.74 1541.75 1537.34 1348.57 1537.34 1110.26C1537.34 871.96 1202.74 678.776 789.986 678.776C377.234 678.776 42.6313 871.96 42.6313 1110.26C42.6313 1348.57 377.234 1541.75 789.986 1541.75Z" fill="#F0F0F0"/>
<path d="M1219.19 1259.98C1170.18 1231.69 1170.18 1185.82 1219.19 1157.53C1268.2 1129.23 1347.66 1129.23 1396.66 1157.53C1445.67 1185.82 1445.67 1231.69 1396.66 1259.98C1347.66 1288.28 1268.2 1288.28 1219.19 1259.98Z" fill="#E0E0E0"/>
<path d="M222.421 1263.92L93.5109 1189.5C86.247 1185.31 86.247 1178.49 93.5109 1174.31L843.34 741.392C847.415 739.327 851.919 738.25 856.488 738.25C861.057 738.25 865.561 739.327 869.636 741.392L998.578 815.807C1005.84 819.994 1005.84 826.814 998.578 831.001L248.749 1263.92C244.668 1265.98 240.158 1267.06 235.585 1267.06C231.011 1267.06 226.502 1265.98 222.421 1263.92Z" fill="#E0E0E0"/>
<path d="M685.786 1131.26L796.615 1067.19C808.034 1060.59 813.744 1051.96 813.744 1043.3C813.744 1034.64 813.744 1027.89 813.744 1027.89L698.791 963.051C695.58 960.974 692.906 958.168 690.987 954.86C689.069 951.552 687.96 947.837 687.752 944.019V807.337L494.26 919.182V1055.8C494.483 1059.61 495.598 1063.32 497.515 1066.63C499.432 1069.93 502.098 1072.74 505.299 1074.83L603.123 1131.17C625.898 1144.46 662.947 1144.46 685.786 1131.26Z" fill="#26256B"/>
<g opacity="0.6">
<path d="M685.786 1131.26L796.615 1067.19C808.034 1060.59 813.744 1051.96 813.744 1043.3C813.744 1034.64 813.744 1027.89 813.744 1027.89L698.791 963.051C695.58 960.974 692.906 958.168 690.987 954.86C689.069 951.552 687.96 947.837 687.752 944.019V807.337L494.26 919.182V1055.8C494.483 1059.61 495.598 1063.32 497.515 1066.63C499.432 1069.93 502.098 1072.74 505.299 1074.83L603.123 1131.17C625.898 1144.46 662.947 1144.46 685.786 1131.26Z" fill="#002E94"/>
</g>
<path opacity="0.3" d="M540.667 1080V1095.35L505.204 1074.9C502.004 1072.81 499.34 1070 497.428 1066.69C495.516 1063.39 494.409 1059.68 494.197 1055.86V919.182L531.055 897.897C531.817 907.255 532.641 916.929 533.434 926.445L507.519 941.354V1048.09C507.725 1051.91 508.832 1055.63 510.751 1058.93C512.67 1062.24 515.345 1065.05 518.558 1067.12L540.667 1080Z" fill="#002E94"/>
<path d="M507.52 1048.12C507.738 1051.94 508.851 1055.65 510.768 1058.96C512.686 1062.26 515.355 1065.07 518.559 1067.16L602.997 1115.81C625.836 1128.98 662.885 1129.01 685.755 1115.81L796.775 1051.74C819.645 1038.54 819.645 1017.17 796.775 1003.97L712.273 955.311C709.076 953.222 706.415 950.411 704.503 947.106C702.592 943.8 701.483 940.092 701.266 936.279V829.51L507.774 941.354L507.52 1048.12Z" fill="#26256B"/>
<path opacity="0.3" d="M507.52 1048.12C507.738 1051.94 508.851 1055.65 510.768 1058.96C512.686 1062.26 515.355 1065.07 518.559 1067.16L602.997 1115.81C625.836 1128.98 662.885 1129.01 685.755 1115.81L796.775 1051.74C819.645 1038.54 819.645 1017.17 796.775 1003.97L712.273 955.311C709.076 953.222 706.415 950.411 704.503 947.106C702.592 943.8 701.483 940.092 701.266 936.279V829.51L507.774 941.354L507.52 1048.12Z" fill="#002E94"/>
<path opacity="0.5" d="M734.635 968.348L712.146 955.375C708.949 953.285 706.288 950.475 704.377 947.169C702.465 943.863 701.356 940.155 701.139 936.343V829.51L507.647 941.354V1048.12C507.865 1051.94 508.978 1055.65 510.895 1058.96C512.813 1062.26 515.482 1065.07 518.686 1067.16L540.89 1079.84L734.635 968.348Z" fill="#002E94"/>
<path d="M813.777 1027.92V1043.33C813.777 1051.99 808.036 1060.59 796.649 1067.22L685.629 1131.26C673.479 1137.75 659.909 1141.11 646.137 1141.06V1125.71C659.909 1125.76 673.479 1122.39 685.629 1115.91L796.649 1051.8C808.036 1045.24 813.777 1036.58 813.777 1027.92Z" fill="#26256B"/>
<path opacity="0.5" d="M813.777 1027.92V1043.33C813.777 1051.99 808.036 1060.59 796.649 1067.22L685.629 1131.26C673.479 1137.75 659.909 1141.11 646.137 1141.06V1125.71C659.909 1125.76 673.479 1122.39 685.629 1115.91L796.649 1051.8C808.036 1045.24 813.777 1036.58 813.777 1027.92Z" fill="#002E94"/>
<path d="M196.664 1180.81C200.847 1182.83 205.446 1183.84 210.091 1183.76C214.735 1183.67 219.296 1182.5 223.404 1180.33L971.996 748.148C976.01 745.53 979.351 742.003 981.748 737.853C984.145 733.704 985.531 729.048 985.794 724.263V118.664C985.651 114.009 984.41 109.453 982.172 105.369C979.934 101.284 976.762 97.7862 972.916 95.1598C968.738 93.1372 964.142 92.1291 959.501 92.2172C954.86 92.3054 950.306 93.4875 946.208 95.6674L197.616 527.979C193.616 530.614 190.295 534.156 187.925 538.318C185.554 542.48 184.201 547.144 183.976 551.928V1157.43C184.118 1162.05 185.339 1166.57 187.542 1170.63C189.746 1174.69 192.87 1178.17 196.664 1180.81Z" fill="#26256B"/>
<path d="M223.499 1180.3L972.091 748.116C976.11 745.504 979.455 741.978 981.853 737.827C984.251 733.677 985.634 729.018 985.889 724.231V118.664C985.889 109.878 979.704 106.294 972.091 110.703L223.499 542.888C219.483 545.504 216.141 549.03 213.744 553.18C211.346 557.33 209.961 561.987 209.701 566.773V1172.34C209.701 1181.13 215.886 1184.71 223.499 1180.3Z" fill="#26256B"/>
<path opacity="0.5" d="M223.499 1180.3L972.091 748.116C976.11 745.504 979.455 741.978 981.853 737.827C984.251 733.677 985.634 729.018 985.889 724.231V118.664C985.889 109.878 979.704 106.294 972.091 110.703L223.499 542.888C219.483 545.504 216.141 549.03 213.744 553.18C211.346 557.33 209.961 561.987 209.701 566.773V1172.34C209.701 1181.13 215.886 1184.71 223.499 1180.3Z" fill="#002E94"/>
<path d="M221.469 1196.03C217.544 1197.75 213.293 1198.59 209.011 1198.5C204.729 1198.41 200.516 1197.4 196.664 1195.53C192.861 1192.89 189.732 1189.39 187.528 1185.32C185.324 1181.25 184.108 1176.71 183.976 1172.09V1116.96L209.828 1131.93V1187.06C209.669 1195.08 214.776 1198.73 221.469 1196.03Z" fill="#26256B"/>
<path opacity="0.5" d="M221.469 1196.03C217.544 1197.75 213.293 1198.59 209.011 1198.5C204.729 1198.41 200.516 1197.4 196.664 1195.53C192.861 1192.89 189.732 1189.39 187.528 1185.32C185.324 1181.25 184.108 1176.71 183.976 1172.09V1116.96L209.828 1131.93V1187.06C209.669 1195.08 214.776 1198.73 221.469 1196.03Z" fill="#002E94"/>
<path d="M209.669 1131.93V1187.06C209.669 1195.84 216.013 1199.4 223.467 1195.02L972.059 762.834C976.057 760.229 979.387 756.722 981.783 752.596C984.18 748.47 985.575 743.839 985.857 739.076V683.693L209.669 1131.93Z" fill="#26256B"/>
<path opacity="0.3" d="M209.701 1131.8V1187.06C209.701 1195.84 216.045 1199.4 223.499 1195.02L972.091 762.834C976.082 760.225 979.407 756.717 981.797 752.591C984.188 748.465 985.579 743.836 985.857 739.076V683.693L209.701 1131.8Z" fill="#002E94"/>
<path d="M235.552 1062.62V575.369C235.699 572.498 236.523 569.703 237.957 567.212C239.39 564.72 241.392 562.603 243.799 561.032L951.599 152.256C956.167 149.623 959.878 151.748 959.878 157.014V644.519C959.724 647.392 958.894 650.187 957.456 652.679C956.017 655.17 954.01 657.287 951.599 658.856L243.831 1067.54C239.263 1070.17 235.552 1068.01 235.552 1062.62Z" fill="#26256B"/>
<path d="M235.552 1062.62V575.369C235.699 572.498 236.523 569.703 237.957 567.212C239.39 564.72 241.392 562.603 243.799 561.032L951.599 152.256C956.167 149.623 959.878 151.748 959.878 157.014V644.519C959.724 647.392 958.894 650.187 957.456 652.679C956.017 655.17 954.01 657.287 951.599 658.856L243.831 1067.54C239.263 1070.17 235.552 1068.01 235.552 1062.62Z" fill="#CEDEE6"/>
<path d="M597.764 925.367C593.996 927.818 590.86 931.123 588.611 935.015C586.362 938.906 585.064 943.274 584.822 947.762C584.822 956.009 590.627 959.371 597.764 955.248C601.535 952.794 604.674 949.484 606.923 945.586C609.172 941.689 610.468 937.315 610.705 932.822C610.705 924.574 604.901 921.244 597.764 925.367Z" fill="#26256B"/>
<path opacity="0.7" d="M213.761 553.133C211.303 557.265 209.898 561.938 209.669 566.741V1131.93L183.976 1116.96V551.928C184.143 547.109 185.54 542.413 188.036 538.288L213.761 553.133Z" fill="#002E94"/>
<path opacity="0.3" d="M985.731 116.38C984.748 109.275 979.006 106.864 972.06 110.702L223.468 542.887C219.409 545.426 216.059 548.95 213.73 553.133L187.846 538.193C190.191 534.011 193.551 530.488 197.616 527.947L946.208 95.7937C950.312 93.6135 954.871 92.4314 959.517 92.3432C964.163 92.255 968.765 93.2633 972.948 95.2862C976.464 97.6822 979.425 100.805 981.631 104.444C983.836 108.084 985.234 112.154 985.731 116.38Z" fill="#002E94"/>
<path d="M1026.11 190.923C1025 190.365 1023.75 190.12 1022.51 190.215C1021.27 190.31 1020.08 190.741 1019.07 191.462L312.727 599.508C309.94 601.352 307.626 603.826 305.973 606.73C304.32 609.634 303.374 612.887 303.211 616.225V1100.49C303.112 1102.13 303.437 1103.76 304.154 1105.23C304.871 1106.71 305.955 1107.97 307.303 1108.9C308.857 1109.76 317.168 1114.58 319.642 1115.91C320.518 1116.36 321.496 1116.56 322.476 1116.51C323.457 1116.45 324.406 1116.13 325.225 1115.59L1031.41 707.547C1034.19 705.703 1036.51 703.229 1038.16 700.325C1039.81 697.42 1040.76 694.168 1040.92 690.83V204.055C1041.07 202.825 1040.86 201.58 1040.33 200.459C1039.81 199.338 1038.98 198.387 1037.94 197.711C1036.36 196.664 1027.89 191.97 1026.11 190.923Z" fill="#26256B"/>
<path d="M325.067 606.36L1031.44 198.472C1036.77 195.3 1040.96 197.901 1040.96 204.055V690.83C1040.79 694.168 1039.85 697.42 1038.19 700.324C1036.54 703.229 1034.23 705.703 1031.44 707.546L325.067 1115.59C319.738 1118.76 315.551 1113.66 315.551 1107.5V623.076C315.718 619.739 316.667 616.489 318.319 613.585C319.972 610.682 322.283 608.207 325.067 606.36Z" fill="#FAFAFA"/>
<path d="M1035.75 200.312C1037.62 200.312 1037.91 202.659 1037.91 204.055V690.83C1037.74 693.625 1036.92 696.342 1035.52 698.764C1034.11 701.187 1032.16 703.249 1029.82 704.787L323.544 1112.83C323.07 1113.14 322.523 1113.32 321.958 1113.34C320.182 1113.34 318.786 1110.61 318.786 1107.5V623.076C318.939 620.282 319.734 617.561 321.11 615.124C322.485 612.687 324.403 610.6 326.716 609.024L1033.03 201.2C1033.84 200.673 1034.78 200.367 1035.75 200.312ZM1035.75 197.14C1034.22 197.205 1032.74 197.664 1031.44 198.472L325.067 606.36C322.283 608.207 319.972 610.682 318.319 613.586C316.667 616.489 315.718 619.74 315.551 623.076V1107.5C315.551 1112.39 318.279 1116.51 321.895 1116.51C323.015 1116.49 324.109 1116.17 325.067 1115.59L1031.41 707.547C1034.19 705.703 1036.51 703.229 1038.16 700.325C1039.82 697.421 1040.76 694.168 1040.92 690.83V204.055C1040.92 199.678 1038.77 197.14 1035.59 197.14H1035.75Z" fill="#E0E0E0"/>
<path d="M307.114 1108.9C308.16 1109.44 315.678 1113.72 318.977 1115.62C317.792 1114.64 316.854 1113.4 316.237 1111.99C315.62 1110.58 315.342 1109.04 315.424 1107.5V654.701L303.053 647.469V1100.49C302.951 1102.13 303.271 1103.76 303.982 1105.23C304.693 1106.7 305.772 1107.97 307.114 1108.9Z" fill="#F0F0F0"/>
<path d="M1041.08 203.96C1041.08 197.869 1036.74 195.395 1031.57 198.472L325.067 606.36C322.283 608.207 319.972 610.682 318.319 613.585C316.667 616.489 315.718 619.739 315.551 623.076V654.796L1041.08 235.68V203.96Z" fill="#26256B"/>
<g opacity="0.4">
<path d="M1031.44 198.472L325.067 606.328C322.232 608.116 319.897 610.593 318.279 613.529L306.003 606.392C307.618 603.559 309.934 601.189 312.728 599.508L1019.07 191.462C1020.08 190.736 1021.27 190.3 1022.51 190.199C1023.75 190.099 1025 190.338 1026.11 190.891C1027.82 191.97 1035.85 196.506 1037.91 197.616C1036.84 197.22 1035.7 197.092 1034.57 197.241C1033.44 197.39 1032.37 197.813 1031.44 198.472Z" fill="white"/>
</g>
<path opacity="0.15" d="M303.053 647.501V616.066C303.184 612.641 304.2 609.307 306.003 606.392L318.311 613.497C316.533 616.362 315.538 619.643 315.424 623.013V654.733L303.053 647.501Z" fill="#002E94"/>
<path d="M892.125 569.121L469.075 813.365C467.018 814.7 465.305 816.502 464.076 818.624C462.846 820.746 462.136 823.128 462.001 825.577V946.874C462.136 949.323 462.846 951.705 464.076 953.828C465.305 955.95 467.018 957.752 469.075 959.086L481.414 966.192C483.607 967.301 486.03 967.879 488.488 967.879C490.945 967.879 493.368 967.301 495.561 966.192L918.547 721.948C920.605 720.606 922.318 718.798 923.547 716.671C924.776 714.544 925.487 712.157 925.621 709.704V588.375C925.487 585.926 924.776 583.544 923.547 581.422C922.318 579.299 920.605 577.498 918.547 576.163L906.177 569.057C903.993 567.966 901.584 567.403 899.143 567.414C896.702 567.425 894.298 568.01 892.125 569.121Z" fill="#26256B"/>
<path opacity="0.5" d="M925.622 587.296C925.114 583.648 922.164 582.316 918.612 584.378L495.562 828.622C493.476 829.918 491.76 831.732 490.582 833.887L464.096 818.598C465.283 816.477 466.984 814.688 469.044 813.396L892.125 569.152C894.312 568.041 896.73 567.461 899.183 567.461C901.636 567.461 904.054 568.041 906.241 569.152L918.612 576.257C920.498 577.493 922.098 579.117 923.307 581.021C924.516 582.924 925.305 585.063 925.622 587.296Z" fill="white"/>
<path d="M494.356 966.794C492.284 967.61 490.064 967.981 487.84 967.883C485.616 967.785 483.437 967.219 481.446 966.223L469.075 959.118C467.021 957.779 465.311 955.976 464.082 953.855C462.854 951.734 462.141 949.353 462.001 946.905V825.608C462.097 823.132 462.817 820.721 464.095 818.598L490.581 833.887C489.294 835.983 488.573 838.376 488.488 840.834V962.163C488.488 966.191 491.025 968.063 494.356 966.794Z" fill="#CEDEE6"/>
<path d="M495.562 828.621L918.612 584.377C922.513 582.125 925.685 583.933 925.685 588.438V709.767C925.551 712.22 924.84 714.607 923.611 716.734C922.382 718.861 920.669 720.669 918.612 722.011L495.625 966.255C491.724 968.507 488.552 966.667 488.552 962.163V840.865C488.679 838.418 489.38 836.035 490.598 833.908C491.815 831.781 493.516 829.97 495.562 828.621Z" fill="#26256B"/>
<path d="M779.963 633.893L469.107 813.396C467.048 814.688 465.346 816.477 464.159 818.598L490.645 833.887C491.824 831.732 493.539 829.918 495.625 828.622L806.481 649.15L779.963 633.893Z" fill="#455A64"/>
<path d="M806.418 649.15L495.562 828.622C493.504 829.964 491.791 831.772 490.562 833.899C489.333 836.026 488.623 838.413 488.488 840.866V962.132C488.488 966.636 491.66 968.476 495.562 966.223L806.418 786.752V649.15Z" fill="#37474F"/>
<path d="M567.25 813.84L727.658 721.249C734.287 717.411 739.68 720.139 739.68 727.339C739.383 731.383 738.137 735.301 736.043 738.773C733.949 742.245 731.065 745.174 727.626 747.323L567.25 839.945C560.62 843.784 555.196 841.056 555.196 833.855C555.495 829.808 556.742 825.887 558.836 822.41C560.93 818.933 563.812 815.997 567.25 813.84Z" fill="#26256B"/>
<path d="M600.111 844.514C600.141 844.48 600.177 844.453 600.218 844.435C600.259 844.416 600.304 844.406 600.349 844.406C600.394 844.406 600.438 844.416 600.479 844.435C600.52 844.453 600.557 844.48 600.587 844.514C600.728 844.729 600.795 844.986 600.777 845.243V863.292C600.779 865.036 600.63 866.776 600.333 868.494C600.071 870.064 599.624 871.597 599.001 873.062C598.432 874.404 597.685 875.663 596.78 876.805C595.888 877.864 594.814 878.756 593.608 879.438C592.664 880.053 591.563 880.383 590.436 880.389C590.006 880.355 589.587 880.233 589.205 880.031C588.823 879.83 588.486 879.552 588.216 879.216C587.52 878.283 587.062 877.194 586.884 876.044C586.58 874.508 586.442 872.945 586.471 871.381V853.3C586.47 852.984 586.535 852.671 586.661 852.38C586.739 852.119 586.908 851.894 587.137 851.746L589.136 850.572C589.2 850.512 589.285 850.479 589.374 850.479C589.462 850.479 589.547 850.512 589.611 850.572C589.758 850.786 589.825 851.044 589.802 851.302V869.129C589.777 870.109 589.873 871.089 590.087 872.047C590.175 872.659 590.439 873.232 590.849 873.696C590.991 873.866 591.172 874.001 591.375 874.089C591.579 874.177 591.801 874.216 592.022 874.204C592.565 874.168 593.089 873.993 593.545 873.696C594.109 873.359 594.622 872.942 595.067 872.459C595.562 871.889 595.969 871.247 596.273 870.556C596.63 869.742 596.896 868.891 597.066 868.018C597.251 866.971 597.336 865.909 597.319 864.846V846.988C597.329 846.669 597.405 846.356 597.541 846.068C597.619 845.807 597.788 845.582 598.017 845.434L600.111 844.514Z" fill="#FAFAFA"/>
<path d="M612.544 861.579C612.561 861.346 612.505 861.113 612.386 860.913C612.31 860.83 612.216 860.767 612.111 860.728C612.007 860.69 611.894 860.677 611.783 860.691C611.394 860.638 610.999 860.638 610.609 860.691L608.77 861.04C608.176 861.187 607.555 861.187 606.962 861.04C606.496 860.89 606.094 860.588 605.82 860.183C605.509 859.668 605.304 859.097 605.217 858.502C604.908 856.803 604.908 855.062 605.217 853.363C605.455 852.389 605.795 851.443 606.232 850.54C606.666 849.639 607.198 848.788 607.818 848.003C608.418 847.254 609.149 846.62 609.975 846.131C610.642 845.725 611.388 845.465 612.164 845.37C612.726 845.312 613.293 845.434 613.781 845.719C614.247 846.003 614.612 846.424 614.828 846.924C615.084 847.516 615.224 848.151 615.241 848.796C615.273 849.115 615.207 849.436 615.05 849.716C614.972 849.977 614.804 850.202 614.574 850.35L612.671 851.46C612.584 851.51 612.486 851.537 612.386 851.537C612.285 851.537 612.187 851.51 612.1 851.46L611.688 851.143C611.524 851.014 611.325 850.936 611.117 850.921C610.709 850.966 610.318 851.108 609.975 851.333C609.477 851.634 609.037 852.02 608.674 852.475C608.291 852.975 608.089 853.59 608.104 854.22C608.059 854.461 608.059 854.708 608.104 854.949C608.164 855.039 608.244 855.114 608.337 855.169C608.431 855.224 608.535 855.257 608.643 855.267C608.989 855.325 609.343 855.325 609.69 855.267L611.466 854.949C612.957 854.664 613.972 854.949 614.638 855.774C615.338 856.949 615.659 858.311 615.558 859.676C615.55 860.618 615.422 861.556 615.177 862.467C614.926 863.456 614.564 864.414 614.099 865.322C613.633 866.261 613.046 867.135 612.354 867.923C611.697 868.694 610.914 869.348 610.038 869.858C609.341 870.304 608.547 870.576 607.723 870.651C607.126 870.672 606.539 870.505 606.042 870.175C605.552 869.84 605.176 869.365 604.963 868.811C604.707 868.209 604.577 867.562 604.583 866.908C604.553 866.579 604.619 866.248 604.773 865.956C604.851 865.695 605.019 865.47 605.249 865.322L607.152 864.212C607.406 864.212 607.596 864.053 607.723 864.212L608.135 864.656C608.22 864.75 608.322 864.827 608.436 864.881C608.551 864.936 608.675 864.967 608.801 864.973C609.248 864.975 609.683 864.83 610.038 864.56C610.611 864.236 611.126 863.817 611.561 863.323C611.777 863.062 611.958 862.774 612.1 862.467C612.324 862.215 612.477 861.909 612.544 861.579Z" fill="#FAFAFA"/>
<path d="M619.017 852.983C619.011 851.335 619.149 849.69 619.429 848.066C619.694 846.538 620.108 845.04 620.666 843.594C621.132 842.297 621.773 841.07 622.569 839.946C623.234 838.979 624.1 838.168 625.107 837.567C625.842 837.073 626.739 836.88 627.613 837.028C628.388 837.207 629.067 837.671 629.516 838.328C630.113 839.189 630.533 840.159 630.753 841.183C631.057 842.515 631.206 843.877 631.197 845.243V847.21C631.207 847.541 631.131 847.869 630.975 848.161C630.897 848.423 630.729 848.648 630.499 848.796L622.252 853.585C622.232 854.144 622.308 854.701 622.474 855.235C622.597 855.594 622.816 855.912 623.109 856.155C623.369 856.361 623.697 856.463 624.028 856.44C624.412 856.395 624.78 856.265 625.107 856.06C625.587 855.799 626.016 855.455 626.376 855.045C626.7 854.679 626.977 854.274 627.2 853.839C627.336 853.589 627.484 853.345 627.644 853.11C627.781 852.948 627.941 852.809 628.12 852.697L630.087 851.555C630.154 851.501 630.238 851.472 630.325 851.472C630.411 851.472 630.495 851.501 630.563 851.555C630.646 851.655 630.706 851.773 630.739 851.899C630.772 852.025 630.777 852.157 630.753 852.285C630.718 852.903 630.59 853.513 630.372 854.093C630.099 854.973 629.737 855.823 629.294 856.631C628.798 857.559 628.202 858.431 627.518 859.232C626.835 860.049 626.02 860.746 625.107 861.293C624.357 861.784 623.46 861.998 622.569 861.896C621.789 861.709 621.109 861.233 620.666 860.564C620.042 859.602 619.621 858.522 619.429 857.392C619.141 855.94 619.002 854.463 619.017 852.983ZM625.107 842.864C624.619 843.127 624.196 843.495 623.87 843.943C623.518 844.387 623.23 844.878 623.013 845.402C622.791 845.926 622.611 846.467 622.474 847.019C622.363 847.521 622.288 848.03 622.252 848.542L627.835 845.37C627.802 844.932 627.739 844.498 627.644 844.069C627.596 843.686 627.442 843.324 627.2 843.023C627.105 842.886 626.983 842.77 626.841 842.682C626.699 842.595 626.541 842.538 626.376 842.515C625.925 842.477 625.475 842.601 625.107 842.864Z" fill="#FAFAFA"/>
<path d="M641.156 834.014C640.195 834.563 639.438 835.409 638.999 836.425C638.505 837.764 638.279 839.187 638.333 840.612V852.063C638.337 852.39 638.272 852.715 638.142 853.015C638.065 853.276 637.896 853.501 637.667 853.649L635.795 854.728C635.765 854.761 635.729 854.788 635.688 854.807C635.647 854.825 635.602 854.835 635.557 854.835C635.512 854.835 635.468 854.825 635.427 854.807C635.386 854.788 635.349 854.761 635.319 854.728C635.177 854.512 635.11 854.256 635.129 853.998V833.475C635.131 833.149 635.195 832.826 635.319 832.524C635.408 832.268 635.574 832.046 635.795 831.889L637.667 830.811C637.731 830.751 637.816 830.717 637.905 830.717C637.993 830.717 638.078 830.751 638.142 830.811C638.289 831.012 638.357 831.261 638.333 831.509V832.524C638.711 831.673 639.179 830.865 639.728 830.113C640.23 829.418 640.88 828.844 641.632 828.432L642.774 827.766C642.833 827.708 642.913 827.675 642.996 827.675C643.079 827.675 643.158 827.708 643.218 827.766C643.371 827.977 643.449 828.234 643.44 828.495V831.382C643.434 831.711 643.358 832.036 643.218 832.333C643.137 832.585 642.983 832.806 642.774 832.968L641.156 834.014Z" fill="#FAFAFA"/>
<path d="M664.819 832.492C664.849 832.458 664.886 832.431 664.927 832.412C664.968 832.394 665.012 832.384 665.057 832.384C665.102 832.384 665.147 832.394 665.188 832.412C665.229 832.431 665.265 832.458 665.295 832.492C665.437 832.707 665.504 832.964 665.485 833.221V836.393C665.484 836.72 665.419 837.043 665.295 837.345C665.186 837.58 665.023 837.787 664.819 837.947L653.971 844.291C653.906 844.352 653.821 844.385 653.733 844.385C653.645 844.385 653.56 844.352 653.495 844.291C653.353 844.088 653.286 843.841 653.305 843.594V815.046C653.306 814.719 653.371 814.396 653.495 814.094C653.584 813.847 653.751 813.635 653.971 813.491L655.969 812.318C656.034 812.257 656.119 812.224 656.207 812.224C656.296 812.224 656.381 812.257 656.445 812.318C656.587 812.521 656.654 812.768 656.635 813.015V837.154L664.819 832.492Z" fill="#FAFAFA"/>
<path d="M674.558 809.019C675.272 808.525 676.134 808.289 677 808.353C677.743 808.411 678.435 808.752 678.935 809.304C679.527 809.983 679.96 810.785 680.204 811.652C680.543 812.774 680.735 813.937 680.775 815.109C680.775 815.363 680.775 815.712 680.775 816.124V818.566C680.775 818.947 680.775 819.296 680.775 819.582C680.712 820.96 680.521 822.33 680.204 823.673C679.911 824.982 679.486 826.257 678.935 827.48C678.433 828.618 677.782 829.684 677 830.652C676.331 831.529 675.503 832.271 674.558 832.84C673.824 833.318 672.958 833.551 672.084 833.507C671.351 833.443 670.671 833.103 670.181 832.555C669.572 831.9 669.136 831.104 668.912 830.239C668.573 829.116 668.381 827.954 668.341 826.782C668.341 826.528 668.341 826.211 668.341 825.799V823.356C668.341 822.944 668.341 822.595 668.341 822.341C668.378 820.952 668.559 819.57 668.88 818.218C669.189 816.899 669.624 815.614 670.181 814.379C670.685 813.249 671.324 812.184 672.084 811.207C672.756 810.322 673.597 809.578 674.558 809.019ZM677.54 817.203C677.538 816.501 677.42 815.804 677.191 815.141C677.073 814.736 676.828 814.381 676.493 814.126C676.223 813.944 675.896 813.865 675.573 813.904C675.21 813.972 674.865 814.112 674.558 814.316C674.185 814.52 673.843 814.777 673.543 815.077C673.179 815.456 672.87 815.883 672.623 816.346C672.304 816.923 672.069 817.543 671.925 818.186C671.717 818.996 671.59 819.825 671.545 820.66C671.545 820.914 671.545 821.199 671.545 821.548V823.8C671.545 824.149 671.545 824.435 671.545 824.625C671.574 825.327 671.702 826.021 671.925 826.687C672.041 827.092 672.286 827.449 672.623 827.702C672.755 827.795 672.905 827.86 673.063 827.893C673.221 827.926 673.385 827.925 673.543 827.892C673.902 827.831 674.247 827.702 674.558 827.512C674.926 827.299 675.266 827.044 675.573 826.75C675.927 826.364 676.236 825.938 676.493 825.481C676.798 824.898 677.032 824.281 677.191 823.642C677.398 822.832 677.515 822.003 677.54 821.168C677.559 820.872 677.559 820.575 677.54 820.279V818.059C677.558 817.774 677.558 817.488 677.54 817.203Z" fill="#FAFAFA"/>
<path d="M690.481 827.575C690.887 827.327 691.251 827.016 691.559 826.655C691.941 826.207 692.271 825.718 692.543 825.196C692.858 824.558 693.102 823.888 693.272 823.197C693.467 822.419 693.563 821.62 693.558 820.818V819.201C693.558 819.518 693.24 819.898 693.018 820.342C692.801 820.806 692.546 821.252 692.257 821.675C691.926 822.121 691.566 822.545 691.179 822.944C690.781 823.361 690.321 823.714 689.815 823.99C689.489 824.213 689.121 824.367 688.734 824.443C688.347 824.519 687.948 824.516 687.563 824.434C686.858 824.214 686.252 823.754 685.85 823.134C685.333 822.314 684.957 821.414 684.739 820.469C684.469 819.271 684.32 818.049 684.295 816.822C684.295 816.409 684.295 815.902 684.295 815.299C684.295 814.696 684.295 814.189 684.295 813.745C684.335 812.35 684.484 810.961 684.739 809.589C685 808.239 685.371 806.913 685.85 805.624C686.298 804.505 686.873 803.441 687.563 802.452C688.147 801.578 688.916 800.842 689.815 800.295C690.237 800.042 690.697 799.86 691.179 799.756C691.535 799.69 691.901 799.69 692.257 799.756C692.538 799.835 692.798 799.976 693.018 800.169C693.221 800.324 693.403 800.505 693.558 800.708V799.693C693.559 799.366 693.624 799.043 693.748 798.741C693.837 798.494 694.004 798.282 694.224 798.138L696.095 797.028C696.16 796.968 696.245 796.935 696.333 796.935C696.421 796.935 696.506 796.968 696.571 797.028C696.724 797.24 696.802 797.497 696.793 797.758V818.376C696.879 821.464 696.305 824.535 695.112 827.384C694.176 829.625 692.555 831.513 690.481 832.777C689.773 833.216 688.965 833.467 688.134 833.506C687.475 833.546 686.821 833.38 686.262 833.03C685.726 832.629 685.291 832.108 684.993 831.508C684.684 830.785 684.512 830.01 684.486 829.224C684.456 828.895 684.522 828.565 684.676 828.272C684.754 828.011 684.923 827.786 685.152 827.638L686.833 826.686C686.872 826.645 686.918 826.612 686.97 826.59C687.022 826.567 687.078 826.556 687.134 826.556C687.191 826.556 687.247 826.567 687.299 826.59C687.35 826.612 687.397 826.645 687.436 826.686C687.592 826.851 687.73 827.032 687.848 827.226C688.041 827.566 688.36 827.816 688.736 827.924C689.117 828.209 689.688 827.892 690.481 827.575ZM687.499 812.19C687.499 813.036 687.499 813.861 687.499 814.665C687.409 815.931 687.768 817.19 688.514 818.217C688.796 818.461 689.157 818.594 689.529 818.594C689.902 818.594 690.262 818.461 690.544 818.217C691.465 817.619 692.183 816.757 692.606 815.743C693.184 814.42 693.507 812.999 693.558 811.556C693.558 811.08 693.558 810.509 693.558 809.843C693.558 809.177 693.558 808.606 693.558 808.194C693.622 807.057 693.285 805.935 692.606 805.022C692.325 804.763 691.957 804.62 691.575 804.62C691.193 804.62 690.825 804.763 690.544 805.022C689.642 805.618 688.935 806.468 688.514 807.464C687.863 808.956 687.517 810.563 687.499 812.19Z" fill="#FAFAFA"/>
<path d="M704.183 784.024C704.246 783.972 704.324 783.944 704.405 783.944C704.486 783.944 704.565 783.972 704.627 784.024C704.793 784.229 704.873 784.49 704.849 784.753V788.211C704.851 788.541 704.775 788.867 704.627 789.162C704.538 789.401 704.385 789.609 704.183 789.765L702.058 791.002C702.028 791.036 701.992 791.063 701.951 791.081C701.91 791.1 701.865 791.109 701.82 791.109C701.775 791.109 701.731 791.1 701.69 791.081C701.649 791.063 701.612 791.036 701.582 791.002C701.499 790.907 701.437 790.796 701.399 790.676C701.361 790.556 701.347 790.429 701.36 790.304V786.847C701.358 786.516 701.434 786.19 701.582 785.895C701.671 785.648 701.838 785.436 702.058 785.292L704.183 784.024ZM704.723 813.809C704.723 814.125 704.659 814.438 704.532 814.729C704.431 814.978 704.267 815.196 704.056 815.363L702.153 816.442C702.126 816.475 702.093 816.501 702.054 816.52C702.016 816.538 701.974 816.548 701.931 816.548C701.889 816.548 701.847 816.538 701.808 816.52C701.77 816.501 701.736 816.475 701.709 816.442C701.543 816.236 701.463 815.975 701.487 815.712V795.189C701.485 794.859 701.561 794.533 701.709 794.237C701.799 793.991 701.952 793.772 702.153 793.603L704.056 792.525C704.121 792.464 704.206 792.431 704.294 792.431C704.383 792.431 704.468 792.464 704.532 792.525C704.674 792.728 704.741 792.975 704.723 793.222V813.809Z" fill="#FAFAFA"/>
<path d="M721.409 804.134C721.407 804.46 721.342 804.783 721.218 805.085C721.13 805.333 720.963 805.544 720.742 805.688L718.839 806.798C718.78 806.856 718.7 806.889 718.617 806.889C718.534 806.889 718.454 806.856 718.395 806.798C718.229 806.593 718.15 806.331 718.173 806.069V794.903C718.271 793.585 718.03 792.264 717.475 791.065C717.031 790.272 716.333 790.145 715.35 790.716C714.369 791.375 713.642 792.348 713.288 793.476C712.759 794.972 712.501 796.551 712.527 798.139V809.336C712.525 809.662 712.461 809.985 712.337 810.287C712.259 810.549 712.09 810.774 711.861 810.922L709.989 812C709.96 812.034 709.923 812.061 709.882 812.08C709.841 812.098 709.796 812.108 709.751 812.108C709.706 812.108 709.662 812.098 709.621 812.08C709.58 812.061 709.543 812.034 709.514 812C709.367 811.799 709.299 811.551 709.323 811.302V790.78C709.319 790.453 709.384 790.128 709.514 789.828C709.591 789.567 709.76 789.341 709.989 789.194L711.861 788.115C711.891 788.081 711.927 788.054 711.968 788.036C712.009 788.017 712.054 788.008 712.099 788.008C712.144 788.008 712.188 788.017 712.229 788.036C712.27 788.054 712.307 788.081 712.337 788.115C712.479 788.331 712.546 788.587 712.527 788.845V789.828C712.944 788.861 713.454 787.937 714.05 787.068C714.572 786.267 715.279 785.604 716.111 785.133C716.833 784.606 717.731 784.379 718.617 784.499C718.968 784.587 719.297 784.749 719.581 784.973C719.865 785.197 720.099 785.479 720.267 785.8C720.727 786.658 721.028 787.593 721.155 788.559C721.324 789.821 721.409 791.093 721.409 792.366V804.134Z" fill="#FAFAFA"/>
<path d="M881.405 711.797L850.605 729.56L855.394 686.358C851.683 684.391 849.336 679.601 849.336 672.718C849.336 660.443 856.822 646.2 866.021 640.998C875.219 635.796 882.674 641.315 882.674 653.686C882.483 660.965 880.406 668.069 876.647 674.304L881.405 711.797Z" fill="#455A64"/>
<path d="M881.436 711.798L854.315 696.16L850.604 729.593L881.436 711.798Z" fill="#37474F"/>
<path d="M865.956 640.903C859.248 645.435 854.247 652.077 851.746 659.776L876.582 674.114C880.342 667.879 882.419 660.774 882.609 653.496C882.673 641.22 875.218 635.606 865.956 640.903Z" fill="#37474F"/>
<path d="M716.238 497.052C705.675 490.962 691.115 491.819 675.002 501.113C642.838 519.7 616.764 564.838 616.764 601.982C616.764 620.633 623.361 633.702 633.956 639.729L654.479 651.656C665.01 657.746 679.569 656.858 695.715 647.564C727.879 629.008 753.953 583.838 753.953 546.694C753.953 528.138 747.418 514.974 736.887 509.043" fill="#26256B"/>
<path d="M695.683 513.071C663.519 531.659 637.445 576.828 637.445 613.941C637.445 651.053 663.519 666.152 695.683 647.564C727.847 628.976 753.952 583.839 753.921 546.694C753.889 509.55 727.815 494.515 695.683 513.071Z" fill="#26256B"/>
<path d="M727.816 595.48V599.73C720.111 613.484 709.059 625.071 695.684 633.417C683.155 640.617 671.831 641.41 663.52 636.811V628.056C663.945 618.948 666.546 610.074 671.104 602.177C675.663 594.279 682.046 587.589 689.721 582.665L698.19 577.78C705.676 573.466 712.972 572.895 718.681 576.226C724.391 579.556 727.816 586.566 727.816 595.48Z" fill="#26256B"/>
<path opacity="0.4" d="M716.238 497.053L736.856 509.043C726.325 502.921 711.765 503.777 695.62 513.071C674.558 525.252 656.096 548.82 645.883 574.069L625.233 562.11C635.478 536.734 653.781 513.293 674.97 501.113C691.147 491.851 705.707 490.962 716.238 497.053Z" fill="white"/>
<path opacity="0.2" d="M653.75 651.18L633.988 639.729C623.394 633.702 616.796 620.697 616.796 601.982L637.446 613.972C637.573 632.053 643.663 644.931 653.75 651.18Z" fill="#002E94"/>
<path opacity="0.1" d="M625.297 562.111L645.947 574.069C640.656 586.709 637.814 600.24 637.573 613.941L616.923 601.951C617.177 588.262 620.019 574.744 625.297 562.111Z" fill="#002E94"/>
<path d="M688.324 575.781C686.356 575.803 684.418 575.299 682.709 574.322C680.65 572.949 679 571.046 677.933 568.812C676.867 566.579 676.424 564.099 676.651 561.634C676.92 555.855 678.569 550.224 681.461 545.213C684.353 540.202 688.403 535.957 693.272 532.832C695.228 531.271 697.61 530.336 700.105 530.15C702.601 529.964 705.095 530.536 707.261 531.79C709.427 533.044 711.164 534.923 712.244 537.18C713.325 539.437 713.7 541.968 713.319 544.442C713.045 550.22 711.393 555.849 708.502 560.859C705.61 565.869 701.563 570.115 696.698 573.244C694.18 574.815 691.29 575.691 688.324 575.781Z" fill="white"/>
<path d="M718.681 576.194C712.972 572.863 705.676 573.434 698.19 577.748L689.721 582.633C682.042 587.56 675.656 594.256 671.097 602.159C666.539 610.062 663.94 618.942 663.52 628.056V636.843C671.831 641.442 683.155 640.649 695.684 633.449C709.059 625.103 720.111 613.516 727.816 599.762V595.511C727.816 586.566 724.518 579.556 718.681 576.194Z" fill="white"/>
<path d="M1370.78 1124.95C1370.78 1124.95 1375 1087.9 1393.43 1059.13C1411.86 1030.36 1437.17 1012.44 1460.8 1010.57C1484.43 1008.7 1503.53 1030.46 1478.25 1045.46C1452.97 1060.46 1408.05 1075.62 1387.37 1131.45L1370.78 1124.95Z" fill="#26256B"/>
<path opacity="0.1" d="M1370.78 1124.95C1370.78 1124.95 1375 1087.9 1393.43 1059.13C1411.86 1030.36 1437.17 1012.44 1460.8 1010.57C1484.43 1008.7 1503.53 1030.46 1478.25 1045.46C1452.97 1060.46 1408.05 1075.62 1387.37 1131.45L1370.78 1124.95Z" fill="#002E94"/>
<path d="M1377.73 1115.31H1377.47C1377.16 1115.18 1376.91 1114.94 1376.78 1114.63C1376.65 1114.32 1376.65 1113.97 1376.77 1113.66C1401.71 1052.28 1449.16 1026.62 1470.79 1021.67C1470.95 1021.63 1471.12 1021.63 1471.29 1021.65C1471.45 1021.68 1471.61 1021.74 1471.75 1021.83C1471.89 1021.92 1472.01 1022.03 1472.11 1022.17C1472.21 1022.3 1472.28 1022.46 1472.31 1022.62C1472.35 1022.78 1472.36 1022.95 1472.33 1023.12C1472.3 1023.28 1472.24 1023.44 1472.15 1023.58C1472.07 1023.72 1471.95 1023.84 1471.81 1023.94C1471.68 1024.04 1471.53 1024.11 1471.36 1024.14C1450.17 1029.03 1403.64 1054.21 1379.12 1114.64C1379 1114.89 1378.79 1115.1 1378.54 1115.22C1378.29 1115.34 1378 1115.37 1377.73 1115.31Z" fill="white"/>
<path d="M1503.91 1116.04C1501.78 1120.86 1496.52 1123.4 1491.63 1125.36C1486.75 1127.33 1481.42 1129.45 1478.75 1134.02C1473.43 1143.22 1482.18 1156.23 1476.47 1165.14C1475.13 1166.93 1473.43 1168.44 1471.49 1169.56C1469.55 1170.68 1467.4 1171.4 1465.18 1171.67C1461.53 1172.34 1457.82 1172.34 1454.14 1172.66C1452.38 1172.63 1450.62 1172.5 1448.87 1172.24C1443.75 1171.1 1438.39 1171.67 1433.62 1173.86C1426.29 1177.99 1424.1 1187.22 1419.6 1194.35C1416.84 1198.55 1413.22 1202.11 1408.96 1204.78C1404.71 1207.46 1399.93 1209.18 1394.95 1209.83C1391.78 1210.24 1385.43 1210.85 1382.26 1208.98C1382.01 1208.85 1381.78 1208.7 1381.56 1208.53C1381.09 1208.02 1380.52 1207.36 1380.26 1207.01C1380.25 1206.94 1380.25 1206.86 1380.26 1206.79C1378.96 1202 1381.09 1197.05 1381.18 1192.1V1191.21C1380.96 1185.47 1380.8 1179.76 1380.68 1174.05C1380.4 1163.48 1380.3 1152.91 1380.36 1142.33C1380.36 1135.48 1379.6 1127.99 1382.52 1121.56C1385.69 1114.45 1393.68 1114.29 1396.69 1107.34C1397.9 1104.55 1398.53 1101.6 1399.71 1098.78C1401.52 1094.68 1404.43 1091.15 1408.11 1088.58C1411.79 1086.01 1416.1 1084.51 1420.58 1084.22C1434.51 1083.52 1446.97 1094.78 1460.9 1093.74C1464.48 1093.45 1468 1092.34 1471.55 1091.71C1482.81 1089.58 1495.85 1092.79 1502.2 1102.33C1503.59 1104.3 1504.47 1106.58 1504.77 1108.97C1505.07 1111.36 1504.77 1113.79 1503.91 1116.04Z" fill="#26256B"/>
<path d="M1378.87 1184.81C1378.57 1184.72 1378.31 1184.51 1378.16 1184.24C1378.01 1183.97 1377.96 1183.65 1378.04 1183.35C1397.27 1111.21 1473.2 1100.87 1491.06 1102.08C1491.22 1102.09 1491.37 1102.13 1491.51 1102.2C1491.66 1102.26 1491.78 1102.36 1491.89 1102.48C1491.99 1102.6 1492.07 1102.74 1492.12 1102.88C1492.17 1103.03 1492.19 1103.19 1492.17 1103.35C1492.14 1103.66 1491.99 1103.94 1491.75 1104.14C1491.52 1104.34 1491.21 1104.44 1490.9 1104.43C1473.49 1103.19 1399.14 1113.37 1380.33 1183.98C1380.24 1184.28 1380.04 1184.53 1379.76 1184.69C1379.49 1184.84 1379.17 1184.88 1378.87 1184.81Z" fill="white"/>
<path d="M1463.34 1148.26C1463.1 1148.23 1462.88 1148.12 1462.7 1147.95C1455.68 1141.86 1447.41 1137.4 1438.46 1134.89C1429.52 1132.37 1420.13 1131.86 1410.97 1133.39C1410.66 1133.42 1410.35 1133.33 1410.1 1133.14C1409.86 1132.95 1409.69 1132.68 1409.64 1132.37C1409.59 1132.06 1409.67 1131.74 1409.85 1131.49C1410.03 1131.24 1410.31 1131.06 1410.62 1131.01C1420.18 1129.42 1429.97 1129.96 1439.29 1132.6C1448.61 1135.24 1457.24 1139.9 1464.54 1146.27C1464.66 1146.37 1464.75 1146.51 1464.81 1146.65C1464.87 1146.79 1464.9 1146.95 1464.9 1147.11C1464.9 1147.26 1464.87 1147.42 1464.81 1147.56C1464.75 1147.71 1464.66 1147.84 1464.54 1147.95C1464.4 1148.12 1464.21 1148.24 1463.99 1148.3C1463.78 1148.35 1463.55 1148.34 1463.34 1148.26Z" fill="white"/>
<path d="M1196.22 253.76L1206.31 257.63V235.426C1206.31 217.79 1220.36 213.571 1235.62 222.389C1250.91 231.207 1263.28 252.618 1263.28 270.254V273.426C1265.41 272.777 1267.65 272.616 1269.85 272.957C1272.05 273.297 1274.14 274.13 1275.97 275.393C1281.76 279.171 1286.58 284.262 1290.04 290.253C1293.49 296.244 1295.49 302.966 1295.86 309.873V311.332L1309.94 319.452C1313.75 321.939 1316.92 325.288 1319.2 329.228C1321.47 333.168 1322.79 337.589 1323.04 342.132C1323.04 350.506 1317.17 353.9 1309.94 349.713L1196.22 284.021C1192.41 281.54 1189.24 278.191 1186.97 274.25C1184.7 270.308 1183.39 265.884 1183.16 261.341C1183.16 252.999 1188.96 249.605 1196.22 253.76Z" fill="#E6E6E6"/>
<path d="M1331.32 236.187L1349.62 246.75C1349.52 245.95 1349.47 245.145 1349.46 244.339V239.042C1349.46 229.526 1356.06 225.783 1364.25 230.51C1367.76 232.663 1370.77 235.552 1373.06 238.979C1374.4 227.116 1383.72 222.706 1395.01 229.209C1401.47 233.408 1406.84 239.068 1410.7 245.731C1414.56 252.394 1416.79 259.871 1417.22 267.559V275.489C1417.3 278.657 1416.66 281.803 1415.35 284.687L1430.57 293.442C1432.95 295.016 1434.92 297.124 1436.33 299.598C1437.74 302.071 1438.55 304.841 1438.69 307.684C1438.69 312.918 1435.01 315.043 1430.48 312.442L1331.32 255.346C1328.92 253.784 1326.93 251.676 1325.5 249.195C1324.07 246.714 1323.25 243.931 1323.1 241.072C1323.1 235.712 1326.78 233.586 1331.32 236.187Z" fill="#E6E6E6"/>
<path d="M1260.46 717.602C1247.14 740.123 1234.32 759.694 1225.31 769.083C1208.22 777.013 1168.06 789.257 1152.36 791.287C1149.6 791.638 1146.81 790.985 1144.49 789.447C1138.3 785.387 1133.51 784.721 1127.01 782.469C1121.91 780.724 1119.75 778.282 1118.8 779.297C1117.81 780.449 1117.32 781.94 1117.42 783.451C1117.52 784.962 1118.21 786.374 1119.34 787.386C1121.78 789.704 1124.48 791.727 1127.39 793.412C1120.43 795.14 1113.16 795.27 1106.14 793.793C1092.53 790.209 1086.13 796.743 1095.32 811.524C1098.5 816.79 1111.56 825.259 1137.83 822.975C1147.2 822.47 1156.53 821.411 1165.77 819.803C1190.96 814.411 1218.97 809.209 1236.19 803.943C1242.6 801.424 1248.33 797.45 1252.94 792.334C1281.9 759.313 1291.51 735.777 1304.2 714.398L1303.12 679.506C1282.57 678.808 1271.59 698.76 1260.46 717.602Z" fill="#FFA8A7"/>
<path d="M1306.64 678.807C1300.68 677.969 1294.61 678.776 1289.07 681.141C1283.54 683.506 1278.75 687.339 1275.24 692.225C1261.16 710.273 1236.22 753.603 1236.22 753.603C1236.22 753.603 1244.38 775.331 1266.39 778.979L1301.76 731.209C1301.76 731.209 1318.51 698.029 1306.64 678.807Z" fill="#093A51"/>
<path d="M1383.12 1165.84H1360.06V1206.95H1383.12V1165.84Z" fill="#FFA8A7"/>
<path d="M1303.18 1163.65L1280.16 1164.47L1278.98 1120.95L1303.18 1120.13V1163.65Z" fill="#FFA8A7"/>
<path d="M1386.36 809.97C1386.36 832.871 1382.99 1017.39 1382.99 1017.39C1383.5 1023.98 1389.34 1036.16 1388.16 1061.51C1386.42 1095.93 1384.1 1186.39 1384.1 1186.39C1380.14 1188.42 1375.78 1189.52 1371.33 1189.6C1366.88 1189.69 1362.48 1188.77 1358.44 1186.9C1358.44 1186.9 1339.73 1060.02 1335.6 1026.05C1331.99 996.261 1322.72 897.675 1322.72 897.675L1310.26 1014.21C1312.9 1026.72 1313.86 1039.52 1313.11 1052.28C1312.04 1068.14 1304.61 1150.23 1304.61 1150.23C1300.63 1152.58 1296.16 1153.99 1291.55 1154.36C1286.94 1154.73 1282.31 1154.04 1278 1152.36C1278 1152.36 1264.87 1028.65 1264.61 1014.12C1264.3 997.625 1272.29 809.779 1272.29 809.779L1386.36 809.97Z" fill="#093A51"/>
<path d="M1360.06 1195.08V1191.66C1357.84 1192.64 1352.73 1213 1343.56 1221.7C1336.3 1228.61 1326.4 1236.57 1323.87 1244.28C1321.33 1251.99 1337.66 1256.71 1344.48 1255.48C1352.35 1254.02 1366.05 1248.21 1369.48 1242.79C1372.9 1237.36 1374.52 1229.5 1377.31 1225.57C1380.11 1221.63 1386.54 1217.25 1388.04 1212.69C1388.5 1208.41 1388.06 1204.09 1386.73 1200C1385.66 1195.75 1384.51 1191.09 1383.12 1191.5V1194.1C1379.87 1196.77 1375.78 1198.21 1371.57 1198.16C1368.21 1198.44 1360.03 1197.75 1360.06 1195.08Z" fill="#26256B"/>
<path d="M1279.9 1157.05C1278.7 1157.05 1277.71 1158.86 1275.08 1161.84C1271.17 1165.96 1266.59 1169.39 1261.54 1171.99C1252.91 1176.5 1236.16 1183.41 1228.52 1186.99C1223.76 1189.21 1223.98 1195.18 1228.9 1198.57C1233.81 1201.97 1245.65 1204.41 1259.86 1201.11C1267.6 1199.3 1277.68 1191.85 1284.09 1192.26C1290.5 1192.67 1302.39 1192.55 1307.12 1189.09C1311.84 1185.63 1309.94 1178.46 1308.61 1172.28C1307.15 1165.49 1305.44 1154.93 1303.19 1155.4V1157.78C1300.43 1162.16 1286.12 1163.93 1280.03 1160.73L1279.9 1157.05Z" fill="#26256B"/>
<path d="M1322.72 897.676C1310.73 893.749 1299.76 887.193 1290.62 878.485C1290.62 878.485 1296.97 890.571 1315.24 901.831L1311.3 1005.9L1322.72 897.676Z" fill="#26256B"/>
<path d="M1373.48 682.17C1373.48 682.17 1392.51 686.548 1391.14 720.932L1387.18 775.649V857.804C1370.24 877.026 1295.19 875.631 1269.34 856.282C1269.34 856.282 1272.26 759.06 1274 721.63C1275.24 695.049 1281.36 681.663 1307.5 678.745L1339.63 680.14L1373.48 682.17Z" fill="#26256B"/>
<path d="M1349.24 610.737C1349.35 615.34 1348.55 619.92 1346.88 624.211C1345.21 628.503 1342.71 632.422 1339.52 635.742C1336.33 639.062 1332.51 641.718 1328.29 643.557C1324.07 645.395 1319.52 646.38 1314.92 646.454C1295.89 646.454 1284.72 630.023 1280.6 610.737C1272.99 575.433 1295.95 574.989 1314.92 574.989C1324.21 575.18 1333.05 579.053 1339.48 585.757C1345.92 592.461 1349.43 601.446 1349.24 610.737Z" fill="#26256B"/>
<path d="M1366.75 625.169C1366.75 625.169 1361.48 650.926 1359.36 655.176C1358.02 657.734 1355.75 659.677 1353.02 660.6L1353.4 642.488L1366.75 625.169Z" fill="#26256B"/>
<path d="M1360.12 588.279C1360.12 588.279 1363.9 587.327 1367.92 593.607C1371.35 598.968 1372.14 611.022 1366.75 625.327L1356.82 626.533L1360.12 588.279Z" fill="#26256B"/>
<path d="M1363.77 593.513L1375.95 593.735C1376.03 592.947 1375.95 592.151 1375.71 591.397C1375.48 590.642 1375.08 589.945 1374.56 589.349C1374.04 588.753 1373.4 588.272 1372.68 587.935C1371.97 587.598 1371.19 587.412 1370.4 587.391C1368.73 587.415 1367.14 588.053 1365.91 589.183C1364.69 590.313 1363.93 591.855 1363.77 593.513Z" fill="#26256B"/>
<path d="M1365.26 590.626L1374.27 581.966C1373.75 581.354 1373.11 580.856 1372.39 580.504C1371.67 580.152 1370.88 579.954 1370.08 579.921C1369.28 579.888 1368.48 580.022 1367.73 580.314C1366.98 580.606 1366.3 581.05 1365.74 581.617C1364.54 582.785 1363.83 584.36 1363.74 586.029C1363.65 587.697 1364.2 589.338 1365.26 590.626Z" fill="#26256B"/>
<path d="M1353.84 626.374C1355.84 627.611 1358.66 623.646 1361.14 620.95C1363.61 618.254 1371.29 615.78 1375.28 624.535C1379.28 633.289 1372.46 641.949 1366.75 644.804C1356.51 649.879 1353.27 642.488 1353.27 642.488L1352.41 683.28C1338.01 705.484 1305.34 704.786 1317.11 682.202V669.799C1312.27 670.604 1307.35 670.859 1302.45 670.56C1294.46 669.292 1289.45 662.726 1287.01 653.717C1283.14 639.253 1281.65 627.58 1284.95 599.127C1288.56 567.978 1323.39 567.629 1342.04 580.095C1360.69 592.561 1353.84 626.374 1353.84 626.374Z" fill="#FFA8A7"/>
<path d="M1310.45 594.274C1318.76 593.449 1326.98 591.737 1335.32 591.102C1337.12 590.884 1338.94 590.97 1340.71 591.356C1347.05 593.1 1346.29 600.523 1347.31 605.693C1349.05 614.638 1350.48 629.769 1353.84 629.832C1354.86 629.832 1358.66 623.266 1361.14 620.919C1362.5 618.896 1363.27 616.535 1363.36 614.099C1363.99 610.42 1364.31 606.645 1364.6 602.902C1364.85 599.73 1365.17 596.558 1365.17 593.386C1365.31 589.801 1365.02 586.212 1364.31 582.696C1363.51 579.705 1361.99 576.958 1359.87 574.703L1359.23 574.005C1355.05 569.634 1349.98 566.215 1344.36 563.982C1336.27 560.952 1327.79 559.103 1319.17 558.494C1310.57 557.885 1302 556.826 1293.51 555.322C1293.02 555.18 1292.51 555.18 1292.02 555.322C1291.68 555.513 1291.38 555.787 1291.17 556.119C1290.96 556.452 1290.84 556.832 1290.81 557.225C1290.47 559.196 1290.68 561.226 1291.44 563.078C1292.2 564.931 1293.47 566.531 1295.1 567.693C1289.36 568.137 1282.76 565.155 1277.24 563.633C1276.79 563.443 1276.31 563.346 1275.83 563.346C1275.34 563.346 1274.86 563.443 1274.42 563.633C1273.86 564.02 1273.47 564.594 1273.31 565.25C1272.9 566.741 1272.85 568.303 1273.15 569.818C1273.65 574.409 1275.36 578.785 1278.09 582.506C1282.37 588.072 1288.41 592.02 1295.22 593.703C1300.24 594.67 1305.37 594.863 1310.45 594.274Z" fill="#26256B"/>
<path d="M1317.14 669.799C1317.14 669.799 1334.97 666.056 1341.18 662.599C1344.89 660.573 1347.89 657.477 1349.81 653.717C1348.88 657.495 1347.21 661.052 1344.9 664.185C1340.36 670.275 1317.14 674.716 1317.14 674.716V669.799Z" fill="#F28F8F"/>
<path d="M1321.42 621.711C1321.39 622.69 1321.74 623.643 1322.41 624.362C1323.08 625.081 1324 625.508 1324.98 625.549C1325.75 625.613 1326.53 625.441 1327.21 625.055C1327.89 624.669 1328.43 624.087 1328.77 623.386C1329.11 622.685 1329.24 621.898 1329.12 621.126C1329.01 620.355 1328.66 619.636 1328.13 619.064C1327.6 618.492 1326.91 618.093 1326.15 617.92C1325.39 617.746 1324.6 617.807 1323.87 618.093C1323.15 618.379 1322.53 618.878 1322.09 619.523C1321.65 620.169 1321.42 620.932 1321.42 621.711Z" fill="#26256B"/>
<path d="M1327.13 606.328L1334.78 610.737C1335.33 609.65 1335.46 608.393 1335.13 607.217C1334.8 606.041 1334.04 605.033 1333 604.393C1332.49 604.108 1331.93 603.933 1331.36 603.877C1330.78 603.821 1330.19 603.886 1329.64 604.068C1329.09 604.25 1328.58 604.545 1328.15 604.934C1327.72 605.323 1327.37 605.798 1327.13 606.328Z" fill="#26256B"/>
<path d="M1318.73 647.437L1310.58 650.609C1310.74 651.168 1311.02 651.687 1311.39 652.135C1311.76 652.582 1312.22 652.948 1312.74 653.21C1313.26 653.472 1313.83 653.624 1314.42 653.656C1315 653.689 1315.58 653.602 1316.13 653.4C1317.24 652.922 1318.12 652.04 1318.61 650.932C1319.09 649.825 1319.13 648.575 1318.73 647.437Z" fill="#F28F8F"/>
<path d="M1288.63 609.595L1295.6 604.012C1295.29 603.525 1294.88 603.109 1294.4 602.791C1293.91 602.474 1293.37 602.262 1292.79 602.169C1292.22 602.076 1291.64 602.105 1291.08 602.253C1290.52 602.401 1290 602.665 1289.55 603.029C1288.61 603.819 1288 604.926 1287.83 606.136C1287.66 607.347 1287.95 608.578 1288.63 609.595Z" fill="#26256B"/>
<path d="M1291.7 620.665C1291.76 621.359 1292.01 622.022 1292.44 622.573C1292.87 623.124 1293.44 623.538 1294.1 623.766C1294.76 623.994 1295.47 624.026 1296.14 623.857C1296.82 623.688 1297.43 623.326 1297.9 622.815C1298.38 622.305 1298.69 621.667 1298.81 620.981C1298.92 620.294 1298.84 619.589 1298.56 618.95C1298.28 618.312 1297.83 617.768 1297.24 617.385C1296.66 617.003 1295.98 616.798 1295.29 616.795C1294.8 616.812 1294.31 616.925 1293.87 617.129C1293.42 617.333 1293.02 617.623 1292.69 617.983C1292.35 618.343 1292.09 618.765 1291.93 619.225C1291.76 619.686 1291.68 620.175 1291.7 620.665Z" fill="#26256B"/>
<path d="M1310.83 617.683L1310.42 640.236L1297.6 637.318L1310.83 617.683Z" fill="#F28F8F"/>
<path d="M1006.51 806.576L1026.4 795.093L1034.26 785.546L1014.41 797.028L1006.51 806.576Z" fill="#26256B"/>
<path opacity="0.4" d="M1006.51 806.576L1026.4 795.093L1034.26 785.546L1014.41 797.028L1006.51 806.576Z" fill="#002E94"/>
<path d="M1060.59 837.788L1080.48 826.306L1097.07 811.619L1077.21 823.07L1060.59 837.788Z" fill="#26256B"/>
<path opacity="0.4" d="M1060.59 837.788L1080.48 826.306L1097.07 811.619L1077.21 823.07L1060.59 837.788Z" fill="#002E94"/>
<path d="M1229.53 877.407C1234.23 883.71 1237.08 891.204 1237.75 899.04C1233.06 892.725 1230.22 885.238 1229.53 877.407ZM1275.75 878.009C1269.05 832.491 1244.6 787.481 1215.48 770.637C1201.49 762.549 1188.55 762.263 1178.18 768.322L1159.46 779.106L1158.41 779.741C1157.58 780.2 1156.78 780.708 1156 781.263C1154.47 782.322 1153.02 783.51 1151.69 784.816L1151.05 785.419C1150.48 785.99 1149.88 786.656 1149.34 787.29C1148.8 787.925 1147.98 788.908 1147.34 789.764C1146 791.537 1144.78 793.402 1143.7 795.347C1143.12 796.33 1142.59 797.377 1142.08 798.519L978.625 704.184L958.768 715.635V728.323L960.449 729.274L962.035 730.194V732.732L958.863 734.603V741.962L982.875 792.714L1006.6 806.449L1014.5 796.933L1035.44 809.463L1047.46 830.049L1060.72 837.693L1077.31 822.975L1097.67 834.743L1104.52 863.006L1138.75 882.799C1140.44 889.992 1142.56 897.078 1145.09 904.02C1145.31 904.718 1145.6 905.447 1145.88 906.24C1157.24 936.057 1175.29 961.592 1195.65 973.36C1198.09 974.807 1200.65 976.049 1203.3 977.071C1204.7 977.627 1206.13 978.104 1207.58 978.498C1208.85 978.837 1210.12 979.122 1211.39 979.355C1215.39 980.085 1219.5 980.085 1223.5 979.355L1225.15 978.942C1225.94 978.784 1226.72 978.561 1227.47 978.276L1229.24 977.579C1229.87 977.352 1230.48 977.065 1231.05 976.722C1231.64 976.469 1232.21 976.183 1232.77 975.866L1233.59 975.358C1233.74 975.309 1233.88 975.234 1234 975.136C1238.54 972.535 1249.7 966.064 1252.75 964.351C1267.85 955.597 1277.62 933.456 1277.62 902.148C1277.59 894.067 1276.97 885.998 1275.75 878.009Z" fill="#26256B"/>
<path d="M1223.73 915.819C1215.86 911.283 1209.52 897.834 1209.52 885.78C1209.52 873.727 1215.86 867.605 1223.73 872.109C1231.59 876.613 1237.9 890.094 1237.9 902.18C1237.9 914.265 1231.56 920.355 1223.73 915.819ZM1255.86 889.46C1249.2 843.973 1224.74 798.931 1195.59 782.119C1182.08 774.316 1169.58 773.745 1159.43 779.106L1158.38 779.74C1157.55 780.199 1156.74 780.708 1155.97 781.263C1154.43 782.321 1152.99 783.51 1151.66 784.816L1151.02 785.418C1150.45 785.989 1149.85 786.655 1149.31 787.29C1148.77 787.924 1147.95 788.907 1147.31 789.764C1145.97 791.536 1144.75 793.402 1143.66 795.347C1143.09 796.33 1142.55 797.377 1142.05 798.519C1139.09 804.65 1136.96 811.145 1135.7 817.836L958.737 715.634V728.322L960.418 729.274L962.004 730.194V732.731L958.832 734.603V741.962L982.844 792.714L1006.57 806.449L1014.47 796.933L1035.4 809.462L1047.43 830.048L1060.68 837.693L1077.27 822.975L1097.64 834.743L1104.49 863.005L1138.75 882.799C1140.44 889.992 1142.56 897.078 1145.09 904.019C1145.31 904.717 1145.6 905.447 1145.88 906.24C1157.24 936.057 1175.29 961.591 1195.65 973.359C1198.09 974.807 1200.65 976.048 1203.3 977.071C1204.7 977.627 1206.13 978.103 1207.58 978.498C1208.85 978.836 1210.12 979.122 1211.39 979.354C1215.39 980.085 1219.5 980.085 1223.5 979.354L1225.15 978.942C1225.94 978.783 1226.72 978.56 1227.47 978.276L1229.24 977.578C1229.87 977.351 1230.48 977.064 1231.05 976.722C1231.64 976.468 1232.21 976.182 1232.77 975.865L1233.59 975.358C1233.74 975.309 1233.88 975.233 1234 975.136C1248.47 966 1257.76 944.177 1257.76 913.631C1257.71 905.538 1257.07 897.461 1255.86 889.46Z" fill="#26256B"/>
<path opacity="0.4" d="M1237.91 902.148C1237.91 914.233 1231.56 920.355 1223.73 915.819C1215.89 911.283 1209.52 897.866 1209.52 885.78C1209.52 873.695 1215.86 867.573 1223.73 872.109C1225.99 873.488 1227.96 875.299 1229.53 877.438C1230.21 885.271 1233.06 892.76 1237.75 899.071C1237.86 900.093 1237.92 901.12 1237.91 902.148Z" fill="#002E94"/>
<path opacity="0.4" d="M1277.55 902.116C1277.55 933.424 1267.78 955.565 1252.69 964.319C1249.51 966.032 1238.48 972.503 1233.94 975.104C1248.4 965.969 1257.7 944.145 1257.7 913.599C1257.66 905.519 1257.05 897.452 1255.86 889.46C1249.2 843.974 1224.74 798.931 1195.59 782.12C1182.08 774.317 1169.58 773.746 1159.43 779.106L1178.14 768.322C1188.52 762.263 1201.46 762.548 1215.45 770.637C1244.6 787.48 1269.05 832.491 1275.71 878.009C1276.92 885.988 1277.54 894.046 1277.55 902.116Z" fill="white"/>
<path d="M1257.7 913.535C1257.7 944.082 1248.4 965.905 1233.94 975.04C1238.47 972.439 1249.64 965.968 1252.69 964.256C1267.78 955.501 1277.55 933.36 1277.55 902.053C1277.55 900.911 1277.55 899.737 1277.55 898.563L1257.7 910.046C1257.67 911.283 1257.7 912.425 1257.7 913.535Z" fill="#26256B"/>
<path opacity="0.1" d="M1257.7 913.535C1257.7 944.082 1248.4 965.905 1233.94 975.04C1238.47 972.439 1249.64 965.968 1252.69 964.256C1267.78 955.501 1277.55 933.36 1277.55 902.053C1277.55 900.911 1277.55 899.737 1277.55 898.563L1257.7 910.046C1257.67 911.283 1257.7 912.425 1257.7 913.535Z" fill="#002E94"/>
<path opacity="0.15" d="M1136.46 830.81V837.249L958.768 734.667L962.035 732.763V730.099L1136.46 830.81Z" fill="#002E94"/>
<path opacity="0.15" d="M1136.46 833.475V837.25L958.768 734.667L962.035 732.764V732.732L1136.46 833.475Z" fill="#002E94"/>
<path opacity="0.15" d="M1213.73 964.288C1207 964.113 1200.43 962.154 1194.7 958.61C1165.74 941.894 1142.17 892.157 1142.17 847.749C1142.17 821.834 1150.01 802.484 1163.68 794.586C1173.2 789.067 1184.46 789.765 1196.29 796.584C1225.22 813.301 1248.79 863.196 1248.79 907.604C1248.79 933.488 1240.95 952.869 1227.28 960.735C1223.16 963.09 1218.48 964.316 1213.73 964.288ZM1177.42 794.11C1173.19 794.087 1169.03 795.181 1165.36 797.282C1152.9 804.483 1145.44 823.356 1145.44 847.717C1145.44 891.11 1168.28 939.705 1196.38 955.819C1207.14 962.163 1217.32 962.734 1225.79 957.849C1238.25 950.648 1245.71 931.807 1245.71 907.446C1245.71 864.021 1222.87 815.458 1194.8 799.312C1189.55 796.12 1183.56 794.37 1177.42 794.237V794.11Z" fill="#002E94"/>
<path opacity="0.4" d="M1141.92 798.456C1138.96 804.587 1136.83 811.083 1135.58 817.773L958.61 715.572L978.467 704.121L1141.92 798.456Z" fill="white"/>
<path d="M1371.92 808.384C1381.18 790.843 1391.78 751.447 1397.04 731.558C1404.53 703.327 1392.41 685.564 1378.65 684.834C1370.05 686.167 1341.73 789.162 1341.73 789.162C1338.55 791.667 1295.51 813.523 1281.68 819.01C1279.21 819.946 1276.48 819.946 1274 819.01C1267.37 816.599 1262.84 817.043 1256.33 816.409C1251.23 815.902 1248.66 814.093 1247.99 815.172C1247.39 816.51 1247.31 818.028 1247.77 819.421C1248.24 820.815 1249.21 821.982 1250.5 822.69C1253.3 824.32 1256.28 825.619 1259.38 826.559C1253.82 828.246 1248.03 829.028 1242.22 828.875C1228.9 828.59 1224.11 834.363 1234.45 847.907C1240.79 856.345 1251.29 859.009 1274.73 850.92C1281.46 848.573 1290.59 844.037 1299.13 840.96C1316.7 834.616 1321.33 833.855 1334.71 829.319C1354.22 822.721 1367.8 816.187 1371.92 808.384Z" fill="#FFA8A7"/>
<path d="M1373.48 682.17C1381.56 683.28 1389.34 685.088 1394.13 691.686C1398.92 698.284 1402.75 707.546 1398.06 732.763C1394.46 750.498 1389.65 767.964 1383.66 785.038C1383.66 785.038 1364.82 793.095 1344.8 772.667L1358.57 719.441C1358.57 719.441 1360.79 684.834 1373.48 682.17Z" fill="#093A51"/>
</svg>
