<svg width="214" height="6453" viewBox="0 0 214 6453" fill="none" xmlns="http://www.w3.org/2000/svg">
<rect width="33" height="2146" transform="matrix(1 0 0 -1 91 2162)" fill="#D9D9D9"/>
<rect width="33" height="2146" transform="matrix(1 0 0 -1 91 2162)" fill="url(#paint0_linear_1982_64)"/>
<rect width="33" height="2146" transform="matrix(1 0 0 -1 91 6453)" fill="#D9D9D9"/>
<rect width="33" height="2146" transform="matrix(1 0 0 -1 91 6453)" fill="url(#paint1_linear_1982_64)"/>
<rect x="91" y="2162" width="33" height="2146" fill="#D9D9D9"/>
<rect x="91" y="2162" width="33" height="2146" fill="url(#paint2_linear_1982_64)"/>
<circle cx="106.88" cy="4307.55" r="106.546" fill="#CB294E"/>
<circle cx="106.546" cy="2161.55" r="106.546" fill="#002E94"/>
<rect x="7" y="6420" width="200" height="33" rx="16.5" fill="#002E94"/>
<rect x="7" width="200" height="33" rx="16.5" fill="#CC294F"/>
<defs>
<linearGradient id="paint0_linear_1982_64" x1="16.5" y1="0" x2="16.5" y2="2063.43" gradientUnits="userSpaceOnUse">
<stop stop-color="#022F94"/>
<stop offset="1" stop-color="#CB294E"/>
</linearGradient>
<linearGradient id="paint1_linear_1982_64" x1="16.5" y1="0" x2="16.5" y2="2063.43" gradientUnits="userSpaceOnUse">
<stop stop-color="#022F94"/>
<stop offset="1" stop-color="#CB294E"/>
</linearGradient>
<linearGradient id="paint2_linear_1982_64" x1="107.5" y1="2162" x2="107.5" y2="4225.43" gradientUnits="userSpaceOnUse">
<stop stop-color="#022F94"/>
<stop offset="1" stop-color="#CB294E"/>
</linearGradient>
</defs>
</svg>
